<svg width="586" height="586" viewBox="0 0 586 586" fill="none" xmlns="http://www.w3.org/2000/svg">
<rect x="25.5" y="25.5" width="535" height="535" fill="white" stroke="#C70025" stroke-width="50"/>
<path d="M76.0345 68C73.4924 68 71.3549 69.9075 71.0668 72.4333L68.381 95.9766C68.178 97.7566 69.5701 99.3166 71.3617 99.3166H75.145V120.194V120.194C73.1096 120.194 71.3983 121.722 71.1676 123.744L68.381 148.171C68.178 149.951 69.5701 151.511 71.3617 151.511H75.145V188.047V197.789C75.145 212.587 87.141 224.583 101.939 224.583V224.583H126.055C127.581 224.583 128.863 223.439 129.036 221.923L131.67 198.833C132.008 195.866 129.688 193.266 126.702 193.266H119.435C102.866 193.266 89.435 179.835 89.435 163.266V151.511H126.055C127.581 151.511 128.863 150.366 129.036 148.851L131.67 125.761C132.008 122.794 129.688 120.194 126.702 120.194H89.435V99.3166H126.055C127.581 99.3166 128.863 98.1721 129.036 96.6566L131.67 73.5667C132.008 70.6 129.688 68 126.702 68H76.0345Z" fill="#C70025"/>
<path d="M156.79 68C154.237 68 152.094 69.9241 151.819 72.4628L149.276 95.9943C149.085 97.7684 150.474 99.3166 152.259 99.3166H155.686V188.308V188.308C155.686 208.342 171.927 224.583 191.961 224.583H208.418C209.225 224.583 209.904 223.974 209.99 223.171L212.624 198.804C212.943 195.847 210.627 193.266 207.653 193.266H193.085V193.266C179.907 193.266 169.224 182.584 169.224 169.406V73C169.224 70.2386 166.986 68 164.224 68H156.79Z" fill="#C70025"/>
<path d="M155.811 265.492C153.187 265.492 151.009 267.521 150.824 270.139L147.807 312.782C147.684 314.518 149.06 315.994 150.8 315.994H154.725V349.661V349.661C152.713 349.661 151.043 351.217 150.9 353.225L147.807 396.951C147.684 398.687 149.06 400.163 150.8 400.163H154.725V459.082V465.87C154.725 494.66 178.065 518 206.855 518V518C207.676 518 208.357 517.365 208.415 516.546L211.506 472.851C211.711 469.958 209.419 467.498 206.519 467.498H199.015C182.447 467.498 169.015 454.067 169.015 437.498V400.163H205.517C207.092 400.163 208.399 398.945 208.51 397.375L211.506 355.014C211.711 352.121 209.419 349.661 206.519 349.661H169.015V315.994H205.517C207.092 315.994 208.399 314.776 208.51 313.205L211.506 270.845C211.711 267.952 209.419 265.492 206.519 265.492H155.811Z" fill="#C70025"/>
<path d="M132.305 305.492C132.305 283.401 114.396 265.492 92.305 265.492H75.907C73.269 265.492 71.0848 267.542 70.9171 270.174L68.2031 312.803C68.0931 314.531 69.4652 315.994 71.1971 315.994H101.998C107.521 315.994 111.998 320.471 111.998 325.994V335.18C111.998 337.737 114.992 339.121 116.941 337.466L131.248 325.309C131.918 324.739 132.305 323.903 132.305 323.023V305.492Z" fill="#C70025"/>
<path d="M71.3845 461.302C71.3845 459.895 72.0111 458.562 73.0939 457.664L86.8192 446.287C88.7673 444.672 91.7168 446.046 91.7337 448.576L91.794 457.565C91.8308 463.062 96.297 467.498 101.794 467.498L101.998 467.498C107.521 467.498 111.998 463.021 111.998 457.498V452.34C111.998 451.231 111.814 450.129 111.452 449.081L71.754 333.9C71.5159 333.209 71.5381 332.455 71.8166 331.779L78.3227 315.994H84.9224L130.153 428.88C131.574 432.428 132.305 436.216 132.305 440.038L132.305 497.693C132.305 508.908 123.213 518 111.998 518V518C89.5678 518 71.3845 499.817 71.3845 477.386V461.302Z" fill="#C70025"/>
<path d="M410.859 265.492C408.234 265.492 406.056 267.522 405.872 270.14L402.863 312.783C402.741 314.518 404.116 315.994 405.856 315.994H409.762V349.661V349.661C407.856 349.661 406.274 351.136 406.14 353.038L403.042 396.952C402.919 398.688 404.294 400.163 406.034 400.163H409.762V459.082V466.014C409.762 494.725 433.037 518 461.748 518V518C462.567 518 463.246 517.367 463.304 516.55L466.386 472.85C466.59 469.958 464.299 467.498 461.399 467.498H454.013C437.444 467.498 424.013 454.067 424.013 437.498V400.163H460.415C461.986 400.163 463.291 398.951 463.407 397.385L466.544 355.031C466.759 352.132 464.465 349.661 461.558 349.661H424.013V315.994H460.405C461.98 315.994 463.287 314.776 463.398 313.205L466.386 270.844C466.59 267.951 464.299 265.492 461.399 265.492H410.859Z" fill="#C70025"/>
<path d="M385.219 305.492C385.219 283.401 367.31 265.492 345.219 265.492H328.821C326.183 265.492 323.999 267.542 323.831 270.174L321.117 312.803C321.007 314.531 322.379 315.994 324.111 315.994H354.912C360.435 315.994 364.912 320.471 364.912 325.994V334.861C364.912 337.401 367.871 338.791 369.827 337.17L384.133 325.31C384.821 324.74 385.219 323.894 385.219 323.001V305.492Z" fill="#C70025"/>
<path d="M324.298 461.431C324.298 459.943 324.961 458.532 326.107 457.582L339.733 446.287C341.681 444.672 344.631 446.046 344.648 448.576L344.708 457.565C344.745 463.062 349.211 467.498 354.708 467.498L354.912 467.498C360.435 467.498 364.912 463.021 364.912 457.498V450.665L324.668 333.9C324.43 333.209 324.452 332.455 324.73 331.779L331.237 315.994H337.836L383.784 430.671C384.732 433.036 385.219 435.561 385.219 438.109L385.219 491.891C385.219 506.311 373.53 518 359.11 518V518C339.884 518 324.298 502.414 324.298 483.188V461.431Z" fill="#C70025"/>
<path d="M488.765 270.174C488.932 267.542 491.116 265.492 493.754 265.492H512.671C515.558 265.492 517.845 267.929 517.661 270.81L514.964 313.184C514.863 314.764 513.552 315.994 511.97 315.994H511.569V467.498H512.671C515.558 467.498 517.845 469.936 517.661 472.816L514.964 515.191C514.863 516.77 513.552 518 511.97 518H489.044C487.313 518 485.941 516.538 486.051 514.809L488.858 470.707C488.973 468.903 490.47 467.498 492.278 467.498V467.498V333.381C492.278 333.015 492.345 332.652 492.475 332.311L498.708 315.994H489.044C487.313 315.994 485.941 314.531 486.051 312.803L488.765 270.174Z" fill="#C70025"/>
<path fill-rule="evenodd" clip-rule="evenodd" d="M234.247 270.492C234.247 267.731 236.485 265.492 239.247 265.492H246.169C248.931 265.492 251.169 267.731 251.169 270.492V307.577L254.001 286.446C254.273 284.418 256.338 283.499 257.547 285.15C267.564 298.824 277.93 352.34 278.245 358.103V270.492C278.245 267.731 280.484 265.492 283.245 265.492H293.552C296.313 265.492 298.552 267.731 298.552 270.492V492.934C298.552 506.778 287.33 518 273.486 518V518C272.398 518 271.538 517.08 271.61 515.994L274.779 468.712C274.825 468.029 275.392 467.498 276.077 467.498V467.498C277.274 467.498 278.245 466.528 278.245 465.33V416.997C278.094 416.559 277.685 414.336 277.055 410.907C273.442 391.266 262.551 332.054 251.169 342.086V515C251.169 516.657 249.826 518 248.169 518H237.247C235.59 518 234.247 516.657 234.247 515V270.492ZM278.245 359.484V358.499C278.224 358.681 278.224 359.015 278.245 359.484Z" fill="#C70025"/>
</svg>
