<?xml version="1.0" encoding="UTF-8" standalone="no"?>
<!-- Created with Inkscape (http://www.inkscape.org/) -->

<svg
   width="210mm"
   height="297mm"
   viewBox="0 0 210 297"
   version="1.1"
   id="svg5"
   inkscape:version="1.1.2 (1:1.1+202202050950+0a00cf5339)"
   sodipodi:docname="drawing-7.svg"
   xmlns:inkscape="http://www.inkscape.org/namespaces/inkscape"
   xmlns:sodipodi="http://sodipodi.sourceforge.net/DTD/sodipodi-0.dtd"
   xmlns="http://www.w3.org/2000/svg"
   xmlns:svg="http://www.w3.org/2000/svg">
  <sodipodi:namedview
     id="namedview7"
     pagecolor="#505050"
     bordercolor="#eeeeee"
     borderopacity="1"
     inkscape:pageshadow="0"
     inkscape:pageopacity="0"
     inkscape:pagecheckerboard="0"
     inkscape:document-units="mm"
     showgrid="true"
     showguides="true"
     inkscape:guide-bbox="true"
     inkscape:snap-bbox="true"
     inkscape:zoom="0.35275978"
     inkscape:cx="352.93139"
     inkscape:cy="165.83523"
     inkscape:window-width="1280"
     inkscape:window-height="743"
     inkscape:window-x="0"
     inkscape:window-y="0"
     inkscape:window-maximized="1"
     inkscape:current-layer="layer3">
    <sodipodi:guide
       position="0,297"
       orientation="0,793.70079"
       id="guide5731" />
    <sodipodi:guide
       position="210,297"
       orientation="1122.5197,0"
       id="guide5733" />
    <sodipodi:guide
       position="210,0"
       orientation="0,-793.70079"
       id="guide5735" />
    <sodipodi:guide
       position="0,0"
       orientation="-1122.5197,0"
       id="guide5737" />
    <inkscape:grid
       type="xygrid"
       id="grid6005" />
    <sodipodi:guide
       position="41.010416,188.52084"
       orientation="1,0"
       id="guide6239" />
    <sodipodi:guide
       position="64.029167,173.70417"
       orientation="1,0"
       id="guide6241" />
    <sodipodi:guide
       position="71.172917,185.61042"
       orientation="0,-1"
       id="guide6243" />
  </sodipodi:namedview>
  <defs
     id="defs2" />
  <g
     inkscape:groupmode="layer"
     id="layer2"
     inkscape:label="Layer 2" />
  <g
     inkscape:groupmode="layer"
     id="layer3"
     inkscape:label="Layer 3">
    <g
       id="g6247">
      <path
         d="m 56.620827,126.20625 c -1.08109,-3.10329 -5.8465,-2.11667 -8.46666,-2.11667 3.33851,3.82455 6.5151,7.79118 9.82397,11.64167 1.61502,1.87906 4.00262,3.95102 4.78499,6.35 1.20015,3.68061 0.38233,9.13076 -3.49647,10.75558 -2.35585,0.98688 -5.17815,0.6215 -7.67291,0.6215 -1.77245,0 -4.15317,0.40852 -5.82083,-0.26697 -1.9857,-0.80433 -5.64277,-6.09334 -4.22223,-8.35368 0.81333,-1.29381 4.36933,-2.24394 5.80973,-2.49185 0.24421,2.96202 1.96902,2.91042 4.49791,2.91042 0.82153,0 3.34698,0.35587 3.16019,-1.07395 -0.17728,-1.35387 -2.03386,-2.94084 -2.87417,-3.95313 -2.38866,-2.87815 -4.72255,-5.81105 -7.05935,-8.73125 -0.7792,-0.97367 -3.00011,-2.89508 -2.96545,-4.2098 0.028,-1.05886 1.98728,-2.33627 2.59503,-3.19854 h -3.70416 c 0.0365,-1.76874 0.0905,-6.16373 1.30651,-7.51337 0.78475,-0.87075 3.18452,-0.42413 4.24974,-0.42413 3.55097,0 10.57354,-1.33562 13.48237,0.94139 1.33191,1.04272 3.54912,5.94254 2.3749,7.59724 -0.81836,1.15332 -4.4839,1.45812 -5.80311,1.51554 m 29.89792,-10.05417 c -0.0744,1.72958 -0.51488,7.14455 -1.98808,8.19467 -0.74745,0.53287 -2.1725,0.272 -3.03901,0.272 h -7.67291 v 3.96875 h 12.17083 l -1.05833,7.40833 h -11.1125 c -0.002,2.50825 -0.66067,6.02879 0.96625,8.17721 2.07116,2.73501 7.92613,1.61238 10.94,1.61238 l -1.05834,7.67291 c -3.43746,0 -7.85204,0.66914 -11.1125,-0.62018 -6.5651,-2.5961 -5.82083,-11.25141 -5.82083,-16.84232 h -3.70417 l 0.79375,-7.40833 h 2.91042 v -4.23334 h -3.70417 c 0.004,-1.57161 -0.0574,-6.92255 1.21788,-7.93009 1.09299,-0.8636 4.3135,-0.27199 5.66129,-0.27199 h 15.61042 m 34.660403,7.9375 c 2.85618,4.31773 6.71354,8.24335 10.08857,12.17084 1.6166,1.88119 3.86688,3.87693 4.48918,6.35 0.86625,3.44275 0.18521,8.6815 -3.46525,10.19121 -2.5183,1.0414 -5.54196,0.6567 -8.20208,0.6567 -1.98384,0 -4.84955,0.52413 -6.61432,-0.53155 -1.65311,-0.98902 -4.91569,-6.04573 -3.6867,-8.0891 0.79481,-1.32133 4.36986,-2.15213 5.8031,-2.49185 0.92737,3.85762 5.57081,3.23268 8.73125,2.64584 -1.5187,-4.504 -7.05167,-9.09453 -10.12613,-12.7 -0.91678,-1.07527 -3.83963,-3.50839 -3.6531,-5.02709 0.14631,-1.19275 1.86743,-2.37542 2.66673,-3.175 h -3.96875 c 0.0675,-1.57163 0.18892,-6.68205 1.47876,-7.66551 0.96705,-0.73739 3.4417,-0.27199 4.60666,-0.27199 3.68565,0 11.20484,-1.43774 13.99434,1.35149 1.13956,1.13929 2.98186,5.69489 1.87219,7.23053 -0.60007,0.8308 -4.00208,1.50045 -4.98448,1.34197 -0.96732,-0.15584 -1.474,-1.36021 -2.41671,-1.71344 -1.9251,-0.72099 -4.5839,-0.27305 -6.61326,-0.27305 m 37.83542,-7.9375 c -0.0746,1.71344 -0.53181,7.15671 -1.98808,8.19467 -0.74745,0.53287 -2.17223,0.272 -3.039,0.272 h -7.67292 v 3.96875 h 12.17083 l -1.05833,7.40833 h -11.1125 c -0.0529,2.56804 -0.73898,5.94943 0.96546,8.17721 2.08968,2.73157 7.91316,1.61238 10.94079,1.61238 l -1.05833,7.67291 c -3.42742,0 -8.19468,0.77364 -11.37709,-0.73263 -6.13674,-2.9046 -5.82083,-11.09742 -5.82083,-16.72987 h -3.43958 l 0.79375,-7.40833 h 2.91041 v -4.23334 h -3.70416 c 0.004,-1.58724 -0.0825,-6.908 1.21787,-7.93009 1.0975,-0.8628 4.3098,-0.27199 5.66129,-0.27199 h 15.61042 m -65.087493,0.26458 v 5.29167 h 0.26458 l 0.52917,-1.5875 c 4.960409,0.73264 8.912753,4.51089 10.847913,8.99584 h 0.26458 l -0.26458,-9.26042 0.42413,-3.16759 6.19045,-0.272 v 23.81251 c 0,3.46683 0.76147,7.78933 -1.18216,10.84395 -1.57215,2.47041 -4.42357,2.38521 -7.01992,2.38521 0,-2.15107 -0.50588,-5.01968 0.0839,-7.08846 0.38788,-1.36074 1.68143,-1.87535 1.75578,-3.49487 0.32252,-7.03501 -6.229614,-11.92662 -11.629233,-15.08125 l -0.26458,8.99583 v 16.66875 h -6.35003 v -37.04167 h 6.35 m 79.904163,0 -1.32292,7.67292 c -2.88422,0.0939 -2.11667,3.13399 -2.11667,5.29167 v 16.40417 h 3.175 l -1.06468,7.24878 -3.43323,0.42413 h -9.26042 l 1.05833,-7.67291 h 2.64584 v -13.22917 l 0.27305,-6.06161 2.37278,-2.40506 h -5.82083 l 1.37001,-7.24879 3.1279,-0.42413 h 8.99584"
         style="fill:#020202;stroke:none;stroke-width:0.0700042"
         id="path1781"
         sodipodi:nodetypes="ccccsssccscccccccscccccscccccsccscccccccsccsccscccccccccscccccccsccccccccscccccccsccccccccccsccccccccccccscccccccccccccc" />
      <path
         d="m 63.5143,73.902725 c -0.0744,1.729578 -0.51488,7.144549 -1.98808,8.194669 -0.74745,0.532871 -2.172499,0.272 -3.039009,0.272 H 50.8143 v 3.96875 H 62.98513 L 61.9268,93.746475 H 50.8143 c -0.0021,2.50825 -0.66067,6.02879 0.96625,8.177215 2.071161,2.73501 7.926131,1.61238 10.94,1.61238 l -1.058339,7.67291 c -3.437461,0 -7.85204,0.66914 -11.1125,-0.62018 -6.565101,-2.5961 -5.82083,-11.251415 -5.82083,-16.842325 h -3.70417 l 0.79375,-7.408331 h 2.91042 v -4.233339 h -3.70417 c 0.004,-1.571611 -0.0574,-6.92255 1.21788,-7.930091 1.092991,-0.8636 4.3135,-0.271989 5.66129,-0.271989 H 63.5143"
         style="fill:#020202;stroke:none;stroke-width:0.0185219"
         id="path2563" />
      <path
         d="m 73.932164,81.887181 v 5.831233 7.931925 c 0,0 -0.01773,4.016691 0.852841,6.284741 2.07116,2.73501 7.92613,1.61238 10.94,1.61238 l -1.05834,7.67291 c -3.43746,0 -7.85204,0.66914 -11.1125,-0.62018 -6.5651,-2.5961 -5.998395,-14.460703 -5.998395,-14.460703 l 0.04419,-9.806077 0.133377,-4.217204 h -3.70417 c 0.004,-1.571612 -0.0574,-6.92255 1.21788,-7.930091 1.09299,-0.8636 8.685117,-0.460373 8.685117,-0.460373 z"
         style="fill:#020202;stroke:none;stroke-width:0.0185219"
         id="path2563-3"
         sodipodi:nodetypes="ccccccsccccccc" />
    </g>
  </g>
</svg>
