<?xml version="1.0" encoding="UTF-8" standalone="no"?>
<!-- Created with Inkscape (http://www.inkscape.org/) -->

<svg
   width="210mm"
   height="297mm"
   viewBox="0 0 210 297"
   version="1.1"
   id="svg25311"
   inkscape:version="1.2 (dc2aedaf03, 2022-05-15)"
   sodipodi:docname="Golden text.svg"
   xmlns:inkscape="http://www.inkscape.org/namespaces/inkscape"
   xmlns:sodipodi="http://sodipodi.sourceforge.net/DTD/sodipodi-0.dtd"
   xmlns:xlink="http://www.w3.org/1999/xlink"
   xmlns="http://www.w3.org/2000/svg"
   xmlns:svg="http://www.w3.org/2000/svg">
  <sodipodi:namedview
     id="namedview25313"
     pagecolor="#ffffff"
     bordercolor="#999999"
     borderopacity="1"
     inkscape:showpageshadow="0"
     inkscape:pageopacity="0"
     inkscape:pagecheckerboard="0"
     inkscape:deskcolor="#d1d1d1"
     inkscape:document-units="mm"
     showgrid="false"
     inkscape:zoom="2"
     inkscape:cx="456.25"
     inkscape:cy="409.5"
     inkscape:window-width="1920"
     inkscape:window-height="1017"
     inkscape:window-x="-8"
     inkscape:window-y="-8"
     inkscape:window-maximized="1"
     inkscape:current-layer="layer1" />
  <defs
     id="defs25308">
    <linearGradient
       inkscape:collect="always"
       id="linearGradient23276">
      <stop
         style="stop-color:#ffffff;stop-opacity:1;"
         offset="0"
         id="stop23272" />
      <stop
         style="stop-color:#ffffff;stop-opacity:0;"
         offset="1"
         id="stop23274" />
    </linearGradient>
    <inkscape:path-effect
       effect="offset"
       id="path-effect20985"
       is_visible="true"
       lpeversion="1.2"
       linejoin_type="miter"
       unit="mm"
       offset="-0.3273713"
       miter_limit="4"
       attempt_force_join="false"
       update_on_knot_move="true" />
    <linearGradient
       inkscape:collect="always"
       id="linearGradient1700">
      <stop
         style="stop-color:#f5be39;stop-opacity:1;"
         offset="0"
         id="stop1696" />
      <stop
         style="stop-color:#ffd699;stop-opacity:1;"
         offset="0.32797426"
         id="stop5505" />
      <stop
         style="stop-color:#9a5f00;stop-opacity:1;"
         offset="0.62057877"
         id="stop5507" />
      <stop
         style="stop-color:#cfa344;stop-opacity:1;"
         offset="0.81672031"
         id="stop5509" />
      <stop
         style="stop-color:#ffd587;stop-opacity:1;"
         offset="1"
         id="stop1698" />
    </linearGradient>
    <rect
       x="189.0983"
       y="315.16383"
       width="409.04242"
       height="150.20574"
       id="rect26095" />
    <rect
       x="189.0983"
       y="315.16383"
       width="409.04242"
       height="150.20574"
       id="rect12049" />
    <linearGradient
       inkscape:collect="always"
       xlink:href="#linearGradient1700"
       id="linearGradient19378"
       gradientUnits="userSpaceOnUse"
       x1="239.80426"
       y1="357.47327"
       x2="239.80426"
       y2="325.13574"
       gradientTransform="matrix(1.2594079,0,0,1.3172901,-187.12196,-341.62225)" />
    <linearGradient
       inkscape:collect="always"
       xlink:href="#linearGradient1700"
       id="linearGradient19380"
       gradientUnits="userSpaceOnUse"
       x1="239.80426"
       y1="325.13574"
       x2="239.80426"
       y2="357.47327"
       gradientTransform="matrix(1.2594079,0,0,1.3172901,-187.12196,-341.62225)" />
    <linearGradient
       inkscape:collect="always"
       xlink:href="#linearGradient1700"
       id="linearGradient19418"
       gradientUnits="userSpaceOnUse"
       x1="239.80426"
       y1="357.47327"
       x2="239.80426"
       y2="325.13574"
       gradientTransform="matrix(1.2594079,0,0,1.3172901,-187.12196,-341.62225)" />
    <linearGradient
       inkscape:collect="always"
       xlink:href="#linearGradient23276"
       id="linearGradient23278"
       x1="113.99459"
       y1="107.1596"
       x2="113.70056"
       y2="88.903358"
       gradientUnits="userSpaceOnUse" />
    <filter
       inkscape:collect="always"
       style="color-interpolation-filters:sRGB"
       id="filter24030"
       x="-0.004488052"
       y="-0.012193849"
       width="1.0089761"
       height="1.0243877">
      <feGaussianBlur
         inkscape:collect="always"
         stdDeviation="0.21685035"
         id="feGaussianBlur24032" />
    </filter>
    <linearGradient
       inkscape:collect="always"
       xlink:href="#linearGradient1700"
       id="linearGradient24099"
       gradientUnits="userSpaceOnUse"
       gradientTransform="matrix(1.2594079,0,0,1.3172901,-187.12196,-341.62225)"
       x1="239.80426"
       y1="357.47327"
       x2="239.80426"
       y2="325.13574" />
    <linearGradient
       inkscape:collect="always"
       xlink:href="#linearGradient1700"
       id="linearGradient24101"
       gradientUnits="userSpaceOnUse"
       gradientTransform="matrix(1.2594079,0,0,1.3172901,-187.12196,-341.62225)"
       x1="239.80426"
       y1="325.13574"
       x2="239.80426"
       y2="357.47327" />
    <linearGradient
       inkscape:collect="always"
       xlink:href="#linearGradient1700"
       id="linearGradient24103"
       gradientUnits="userSpaceOnUse"
       gradientTransform="matrix(1.2594079,0,0,1.3172901,-187.12196,-341.62225)"
       x1="239.80426"
       y1="357.47327"
       x2="239.80426"
       y2="325.13574" />
    <linearGradient
       inkscape:collect="always"
       xlink:href="#linearGradient1700"
       id="linearGradient24105"
       gradientUnits="userSpaceOnUse"
       gradientTransform="matrix(1.2594079,0,0,1.3172901,-187.12196,-341.62225)"
       x1="239.80426"
       y1="325.13574"
       x2="239.80426"
       y2="357.47327" />
  </defs>
  <g
     inkscape:label="Layer 1"
     inkscape:groupmode="layer"
     id="layer1">
    <rect
       style="opacity:0.809859;fill:#000000;stroke:#ffffff;stroke-width:0.264583;stroke-opacity:1"
       id="rect24086"
       width="153.72301"
       height="84.402084"
       x="40.216667"
       y="69.585419" />
    <g
       id="g24095"
       transform="translate(6.7607527,3.5704063)">
      <path
         id="path24028"
         style="font-size:48px;font-family:Ayres;-inkscape-font-specification:'Ayres, Normal';white-space:pre;opacity:0.809859;fill:#000000;stroke-width:1.28802;filter:url(#filter24030)"
         d="m 92.23538,87.789035 c 0,0 -2.236803,3.67e-4 -3.748091,1.644344 -2.720318,2.908573 -3.86847,10.749061 -0.543636,15.933921 1.027676,1.64398 4.171072,4.48898 5.803263,7.01818 3.143479,4.80547 2.961945,10.36993 2.055172,13.72112 -0.423161,1.51751 -1.390394,3.41426 -3.203939,3.41426 -1.813546,0 -2.962143,-2.27594 -3.2644,-4.36252 -0.362709,-2.21305 -0.544173,-6.63962 -0.665076,-8.15713 -0.120903,-0.0632 -1.692403,0 -1.692403,0 v 13.08861 h 0.906921 c 0,0 -0.120844,-0.6323 0.362769,-0.88522 0.483612,-0.25292 1.027377,0.0635 1.329634,0.25322 0.846322,0.50584 1.632169,1.01182 3.022555,1.01182 1.20903,0 2.901859,-0.44268 4.292244,-2.27634 2.780767,-3.66733 3.687587,-13.08856 0.241846,-18.58957 -1.088127,-1.77043 -4.412888,-5.18513 -5.863725,-7.33495 -2.962125,-4.362866 -2.599702,-8.599039 -1.753381,-10.875314 0.725418,-1.896895 1.63217,-3.035327 3.022555,-2.908867 1.390384,0.06323 2.297066,1.897225 2.599324,3.604431 0.483613,2.529195 0.42323,6.070134 0.42323,7.58765 l 1.874304,0.0631 V 88.042249 c -0.120903,-0.126459 -0.785998,-0.189652 -0.785998,-0.189652 0,0 0.120864,0.568883 -0.241846,0.948262 -0.362709,0.31615 -0.8465,-0.06319 -1.088306,-0.189652 -0.725418,-0.37938 -1.632179,-0.758943 -3.083016,-0.822172 z m 46.63903,0 c 0,0 -2.23681,3.67e-4 -3.7481,1.644344 -2.72031,2.908573 -3.86899,10.749061 -0.54415,15.933921 1.02768,1.64398 4.17108,4.48898 5.80327,7.01818 3.14347,4.80547 2.96246,10.36993 2.05568,13.72112 -0.42316,1.51751 -1.39039,3.41426 -3.20394,3.41426 -1.81354,0 -2.96215,-2.27594 -3.2644,-4.36252 -0.36271,-2.21305 -0.54417,-6.63962 -0.66507,-8.15713 -0.12091,-0.0632 -1.6924,0 -1.6924,0 v 13.08861 h 0.9064 c 0,0 -0.12085,-0.6323 0.36277,-0.88522 0.48361,-0.25292 1.02789,0.0635 1.33015,0.25322 0.84632,0.50584 1.63217,1.01182 3.02255,1.01182 1.20903,0 2.90135,-0.44268 4.29173,-2.27634 2.78078,-3.66733 3.68758,-13.08856 0.24185,-18.58957 -1.08813,-1.77043 -4.4129,-5.18513 -5.86373,-7.33495 -2.96212,-4.362866 -2.59918,-8.599039 -1.75286,-10.875314 0.72542,-1.896895 1.63216,-3.035327 3.02255,-2.908867 1.39039,0.06323 2.29707,1.897225 2.59933,3.604431 0.48361,2.529195 0.42323,6.070134 0.42323,7.58765 l 1.87379,0.0631 V 88.042249 c -0.12091,-0.126459 -0.786,-0.189652 -0.786,-0.189652 0,0 0.12138,0.568883 -0.24133,0.948262 -0.36271,0.31615 -0.8465,-0.06319 -1.08831,-0.189652 -0.72542,-0.37938 -1.63218,-0.758943 -3.08301,-0.822172 z m 24.34631,0.545703 c -0.23519,0.0056 -0.44489,0.02377 -0.60358,0.02377 v 1.07487 c 0.60451,0 1.45056,0.06293 1.45056,1.51722 v 36.610182 c 0,0.94845 0.0608,1.58078 -1.26917,1.58078 v 1.01182 c 0,0 1.26928,0.1265 1.87378,-0.18965 0.60452,-0.31615 1.63206,-0.3163 2.35748,0.0631 0.66497,0.25292 1.45115,0.1266 1.87431,0.1266 v -1.07487 c -0.60451,0 -1.45108,-0.0634 -1.45108,-1.51773 0,-2.27627 -0.0605,-36.610182 -0.0605,-36.610182 0,-0.885218 2e-4,-1.580782 1.26969,-1.580782 v -0.948263 c 0,0 -1.26979,-0.126312 -1.8743,0.126607 -0.60452,0.316149 -1.5716,0.316149 -2.29702,0 -0.41561,-0.197593 -0.87822,-0.222686 -1.27021,-0.213423 z m -42.49663,0.02377 -4.17132,0.06305 v 1.07487 c 1.75309,0 1.93425,0.63237 1.93425,3.161564 v 34.523478 c 0,2.27628 -1.57168,1.89704 -2.84117,1.89704 v 1.07487 c 0.42316,0 1.81395,0.18955 2.47892,-0.1266 0.72542,-0.37938 1.81344,-0.37923 2.4784,-0.0631 0.60452,0.31615 2.05517,0.18965 2.05517,0.18965 v -1.01182 c -1.45084,0 -2.90163,-0.0633 -2.90163,-1.89704 V 99.170769 l 7.43572,29.718091 c 0,0 0.36233,1.26452 0.84595,1.26452 h 0.36276 c 0.2418,0 0.42323,-0.12649 0.42323,-0.69556 V 91.456511 c 0,-2.276275 1.57171,-1.897042 2.90164,-1.897042 v -1.07487 c -0.48361,0 -1.57159,-0.189542 -2.23656,0.126608 -0.78587,0.316148 -1.87388,0.316148 -2.4784,0 -0.60452,-0.31615 -2.29702,-0.189653 -2.29702,-0.189653 v 1.07487 c 1.39039,0 2.90163,0.06338 2.90163,1.897042 v 24.912704 z m -51.321941,0.04599 c -0.756589,0.0089 -1.300696,0.0801 -1.300696,0.0801 l -0.06046,0.885218 c 0,0 1.269213,3.32e-4 1.511019,0.06356 0.544063,0.252918 0.483691,0.885217 0.483691,0.885217 l 0.06046,38.254007 c 0,0 0.06036,0.6323 -0.544152,0.88522 -0.241806,0.0632 -1.511019,0.063 -1.511019,0.063 l 0.06046,0.63252 h 4.533573 6.831108 v -10.43291 h -1.027844 c 0,3.6041 -0.42311,8.59914 -2.84117,9.42113 -0.846322,0.25292 -2.115634,0.31626 -2.115634,0.31626 0,0 0.06046,-2.27628 0.06046,-38.759919 0,-0.632298 0.181443,-0.948743 0.544153,-1.138432 0.302256,-0.12646 0.78561,-0.12609 1.57148,-0.12609 v -0.94878 c 0,0 -1.087957,-0.126275 -2.115633,-0.06305 -0.664966,0.06323 -1.027934,0.31626 -1.571997,0.31626 -0.604516,0 -1.450607,-0.25303 -1.752865,-0.31626 -0.287145,-0.01581 -0.562741,-0.02002 -0.814937,-0.01705 z m -16.459461,0.01705 v 0.632003 c 1.027676,0 1.995227,-0.06308 1.995227,1.011824 v 38.570265 c -0.120902,1.0749 -1.390711,0.94844 -1.995227,0.88521 v 0.63252 h 12.271603 v -10.43294 h -0.966866 c 0,2.33951 -0.484078,8.66237 -2.841687,9.42113 -0.846321,0.25292 -1.813524,0.31626 -3.022555,0.31626 v -20.23391 h 2.841687 c 1.088128,0.31614 1.027328,1.58122 1.027328,2.84582 h 0.967382 c 0,0 -0.120933,-1.70742 -0.181384,-2.40295 -0.120904,-0.69552 -0.120904,-0.94823 0,-2.02313 0.120903,-0.69553 0.181384,-1.70765 0.181384,-2.15026 l -1.027844,-0.063 c 0,0.6323 0.302596,2.59261 -1.087789,2.59261 H 58.383183 V 89.117119 c 0.906773,0 1.75352,0.06334 2.599842,0.31626 2.720318,0.948448 2.84117,7.144671 2.84117,9.484175 0.362709,0 0.664608,1.85e-4 0.966866,-0.06305 v -10.43295 z m 47.862202,0 v 0.632003 c 1.02768,0 1.99472,-0.06308 1.99472,1.011824 v 38.570265 c -0.12091,1.0749 -1.3902,0.94844 -1.99472,0.88521 v 0.63252 h 12.27161 v -10.43294 h -0.96739 c 0,2.33951 -0.48356,8.66237 -2.84117,9.42113 -0.84632,0.25292 -1.81352,0.31626 -3.02255,0.31626 v -20.23391 h 2.84117 c 1.08813,0.31614 1.02784,1.58122 1.02784,2.84582 h 0.96687 c 0,0 -0.12093,-1.70742 -0.18138,-2.40295 -0.1209,-0.69552 -0.1209,-0.94823 0,-2.02313 0.1209,-0.69553 0.18138,-1.70765 0.18138,-2.15026 l -1.02733,-0.063 c 0,0.6323 0.30208,2.59261 -1.0883,2.59261 h -2.72025 V 89.117119 c 0.90677,0 1.753,0.06334 2.59932,0.31626 2.72032,0.948448 2.84117,7.144671 2.84117,9.484175 0.36271,0 0.66514,1.85e-4 0.96739,-0.06305 v -10.43295 z m 46.6385,0 v 0.632003 c 1.02768,0 1.99523,-0.06308 1.99523,1.011824 v 38.570265 c -0.12091,1.0749 -1.39071,0.94844 -1.99523,0.88521 v 0.63252 h 12.2716 v -10.43294 h -0.96686 c 0,2.33951 -0.48355,8.66237 -2.84117,9.42113 -0.84632,0.25292 -1.81353,0.31626 -3.02256,0.31626 v -20.23391 h 2.84117 c 1.08813,0.31614 1.02733,1.58122 1.02733,2.84582 h 0.96738 c 0,0 -0.12093,-1.70742 -0.18138,-2.40295 -0.12091,-0.69552 -0.12091,-0.94823 0,-2.02313 0.1209,-0.69553 0.18138,-1.70765 0.18138,-2.15026 l -1.02784,-0.063 c 0,0.6323 0.30259,2.59261 -1.08779,2.59261 H 152.8844 V 89.117119 c 0.90677,0 1.75301,0.06334 2.59933,0.31626 2.72032,0.948448 2.84117,7.144671 2.84117,9.484175 0.36271,0 0.66513,1.85e-4 0.96738,-0.06305 v -10.43295 z"
         inkscape:label="path24028" />
      <path
         id="path18618"
         style="font-size:48px;font-family:Ayres;-inkscape-font-specification:'Ayres, Normal';white-space:pre;fill:url(#linearGradient24099);stroke:url(#linearGradient24101);stroke-width:1.28802"
         d="m 91.047156,86.502214 c 0,0 -2.236804,3.68e-4 -3.748092,1.644344 -2.720315,2.90857 -3.868467,10.749066 -0.543636,15.933912 1.027675,1.64398 4.171074,4.48898 5.803263,7.01818 3.143476,4.80546 2.961944,10.36993 2.055172,13.72112 -0.423159,1.51751 -1.390394,3.41426 -3.203939,3.41426 -1.813544,0 -2.962142,-2.27594 -3.2644,-4.36252 -0.362709,-2.21305 -0.544173,-6.63962 -0.665076,-8.15713 -0.120901,-0.0632 -1.692403,0 -1.692403,0 v 13.08861 h 0.906922 c 0,0 -0.120843,-0.6323 0.362768,-0.88522 0.483613,-0.25292 1.027377,0.0635 1.329635,0.25322 0.84632,0.50584 1.632171,1.01182 3.022554,1.01182 1.209029,0 2.90186,-0.44269 4.292245,-2.27634 2.780766,-3.66733 3.687578,-13.08856 0.241845,-18.58957 -1.088124,-1.77043 -4.41289,-5.18513 -5.863724,-7.33495 -2.962122,-4.362853 -2.599702,-8.599033 -1.753382,-10.875305 0.725419,-1.896893 1.632171,-3.035327 3.022555,-2.908867 1.390384,0.06323 2.297068,1.897227 2.599324,3.604431 0.483613,2.529193 0.42323,6.070136 0.42323,7.587651 l 1.874305,0.06305 V 86.755428 c -0.120903,-0.126459 -0.785999,-0.189652 -0.785999,-0.189652 0,0 0.120864,0.568883 -0.241846,0.948262 -0.362707,0.31615 -0.846501,-0.06319 -1.088305,-0.189652 -0.725419,-0.37938 -1.632182,-0.758944 -3.083016,-0.822172 z m 46.639014,0 c 0,0 -2.2368,3.68e-4 -3.74809,1.644344 -2.72032,2.90857 -3.86898,10.749066 -0.54416,15.933912 1.02768,1.64398 4.17108,4.48898 5.80327,7.01818 3.14348,4.80546 2.96247,10.36993 2.05569,13.72112 -0.42316,1.51751 -1.39039,3.41426 -3.20394,3.41426 -1.81355,0 -2.96215,-2.27594 -3.2644,-4.36252 -0.36271,-2.21305 -0.54418,-6.63962 -0.66508,-8.15713 -0.12091,-0.0632 -1.6924,0 -1.6924,0 v 13.08861 h 0.9064 c 0,0 -0.12085,-0.6323 0.36277,-0.88522 0.48361,-0.25292 1.02789,0.0635 1.33015,0.25322 0.84632,0.50584 1.63217,1.01182 3.02256,1.01182 1.20903,0 2.90135,-0.44269 4.29173,-2.27634 2.78076,-3.66733 3.68758,-13.08856 0.24184,-18.58957 -1.08813,-1.77043 -4.41289,-5.18513 -5.86372,-7.33495 -2.96213,-4.362853 -2.59919,-8.599033 -1.75287,-10.875305 0.72542,-1.896893 1.63217,-3.035327 3.02256,-2.908867 1.39039,0.06323 2.29706,1.897227 2.59932,3.604431 0.48361,2.529193 0.42323,6.070136 0.42323,7.587651 l 1.87379,0.06305 V 86.755428 c -0.12091,-0.126459 -0.786,-0.189652 -0.786,-0.189652 0,0 0.12138,0.568883 -0.24133,0.948262 -0.36271,0.31615 -0.84649,-0.06319 -1.0883,-0.189652 -0.72542,-0.37938 -1.63218,-0.758944 -3.08302,-0.822172 z m 24.34632,0.545703 c -0.2352,0.0056 -0.4449,0.02377 -0.60358,0.02377 v 1.07487 c 0.60451,0 1.45055,0.06293 1.45055,1.51722 v 36.610173 c 0,0.94845 0.0608,1.58078 -1.26917,1.58078 v 1.01182 c 0,0 1.26928,0.1265 1.87379,-0.18965 0.60452,-0.31615 1.63206,-0.3163 2.35748,0.0631 0.66497,0.25292 1.45114,0.1266 1.8743,0.1266 v -1.07487 c -0.60451,0 -1.45107,-0.0634 -1.45107,-1.51773 0,-2.27627 -0.0605,-36.610173 -0.0605,-36.610173 0,-0.885217 2e-4,-1.580782 1.26969,-1.580782 v -0.948263 c 0,0 -1.2698,-0.126311 -1.87431,0.126607 -0.60452,0.316149 -1.5716,0.316149 -2.29702,0 -0.4156,-0.197592 -0.87821,-0.222686 -1.2702,-0.213423 z m -42.49663,0.02377 -4.17133,0.06305 v 1.07487 c 1.75309,0 1.93425,0.632373 1.93425,3.161564 v 34.523469 c 0,2.27628 -1.57168,1.89704 -2.84117,1.89704 v 1.07487 c 0.42316,0 1.81395,0.18955 2.47892,-0.1266 0.72542,-0.37938 1.81344,-0.37923 2.4784,-0.0631 0.60452,0.31615 2.05517,0.18965 2.05517,0.18965 v -1.01182 c -1.45082,0 -2.90163,-0.0634 -2.90163,-1.89704 V 97.883948 l 7.43573,29.718082 c 0,0 0.36232,1.26452 0.84594,1.26452 h 0.36277 c 0.2418,0 0.42323,-0.12649 0.42323,-0.69556 v -38.0013 c 0,-2.276273 1.5717,-1.897042 2.90163,-1.897042 v -1.07487 c -0.48361,0 -1.57159,-0.189542 -2.23656,0.126608 -0.78587,0.316147 -1.87388,0.316147 -2.4784,0 -0.60452,-0.31615 -2.29702,-0.189653 -2.29702,-0.189653 v 1.07487 c 1.39039,0 2.90164,0.06338 2.90164,1.897042 v 24.912695 z m -51.321936,0.04599 c -0.756587,0.0089 -1.300696,0.0801 -1.300696,0.0801 l -0.06046,0.885218 c 0,0 1.269213,3.32e-4 1.511019,0.06356 0.544062,0.252917 0.483691,0.885217 0.483691,0.885217 l 0.06046,38.253998 c 0,0 0.06036,0.6323 -0.544153,0.88522 -0.241806,0.0632 -1.511019,0.063 -1.511019,0.063 l 0.06046,0.63252 H 71.4468 78.277907 V 118.4336 h -1.027844 c 0,3.60409 -0.423113,8.59914 -2.84117,9.42113 -0.84632,0.25292 -2.115633,0.31626 -2.115633,0.31626 0,0 0.06046,-2.27632 0.06046,-38.75991 0,-0.632297 0.181443,-0.948743 0.544153,-1.138432 0.302257,-0.12646 0.785611,-0.12609 1.57148,-0.12609 v -0.94878 c 0,0 -1.087958,-0.126275 -2.115633,-0.06305 -0.664965,0.06323 -1.027933,0.31626 -1.571997,0.31626 -0.604514,0 -1.450607,-0.25303 -1.752865,-0.31626 -0.287143,-0.01581 -0.562741,-0.02002 -0.814937,-0.01705 z m -16.45946,0.01705 v 0.632003 c 1.027676,0 1.995227,-0.06308 1.995227,1.011824 v 38.570256 c -0.120903,1.0749 -1.390712,0.94844 -1.995227,0.88521 v 0.63252 H 64.026066 V 118.4336 H 63.0592 c 0,2.33951 -0.484077,8.66237 -2.841687,9.42113 -0.846321,0.25292 -1.813524,0.31626 -3.022555,0.31626 v -20.23391 h 2.841688 c 1.088127,0.31614 1.027327,1.58122 1.027327,2.84582 h 0.967383 c 0,0 -0.120934,-1.70742 -0.181384,-2.40295 -0.120904,-0.69552 -0.120904,-0.94823 0,-2.02313 0.120902,-0.69553 0.181384,-1.70765 0.181384,-2.15026 l -1.027844,-0.063 c 0,0.6323 0.302595,2.59261 -1.087789,2.59261 H 57.194958 V 87.830298 c 0.906774,0 1.753521,0.06334 2.599842,0.31626 2.720318,0.948448 2.84117,7.144671 2.84117,9.484175 0.36271,0 0.664608,1.85e-4 0.966866,-0.06305 v -10.43295 z m 47.862195,0 v 0.632003 c 1.027671,0 1.994711,-0.06308 1.994711,1.011824 v 38.570256 c -0.12091,1.07489 -1.3902,0.94844 -1.994711,0.88521 v 0.63252 H 111.88826 V 118.4336 h -0.96738 c 0,2.33951 -0.48356,8.66237 -2.84117,9.42113 -0.84633,0.25292 -1.81353,0.31626 -3.02256,0.31626 v -20.23391 h 2.84117 c 1.08813,0.31614 1.02785,1.58122 1.02785,2.84582 h 0.96686 c 0,0 -0.12093,-1.70742 -0.18138,-2.40295 -0.1209,-0.69552 -0.1209,-0.94824 0,-2.02313 0.1209,-0.69553 0.18138,-1.70765 0.18138,-2.15026 l -1.02732,-0.063 c 0,0.6323 0.30207,2.59261 -1.08831,2.59261 h -2.72025 V 87.830298 c 0.90677,0 1.753,0.06334 2.59933,0.31626 2.72032,0.948447 2.84117,7.144674 2.84117,9.484175 0.36271,0 0.66513,1.85e-4 0.96738,-0.06305 v -10.43295 z m 46.638501,0 v 0.632003 c 1.02766,0 1.99522,-0.06308 1.99522,1.011824 v 38.570256 c -0.12091,1.07489 -1.39072,0.94844 -1.99522,0.88521 v 0.63252 h 12.2716 V 118.4336 h -0.96687 c 0,2.33951 -0.48355,8.66237 -2.84117,9.42113 -0.84632,0.25292 -1.81352,0.31626 -3.02255,0.31626 v -20.23391 h 2.84117 c 1.08813,0.31614 1.02732,1.58122 1.02732,2.84582 h 0.96739 c 0,0 -0.12094,-1.70742 -0.18139,-2.40295 -0.12091,-0.69552 -0.12091,-0.94824 0,-2.02313 0.1209,-0.69553 0.18139,-1.70765 0.18139,-2.15026 l -1.02785,-0.063 c 0,0.6323 0.30259,2.59261 -1.08779,2.59261 h -2.72024 V 87.830298 c 0.90677,0 1.753,0.06334 2.59932,0.31626 2.72032,0.948447 2.84117,7.144674 2.84117,9.484175 0.36271,0 0.66513,1.85e-4 0.96738,-0.06305 v -10.43295 z" />
      <path
         id="path18635"
         style="font-size:48px;font-family:Ayres;-inkscape-font-specification:'Ayres, Normal';white-space:pre;fill:url(#linearGradient24103);stroke-width:1.28802"
         d="m 91.047155,86.502214 c 0,0 -2.236803,3.67e-4 -3.748091,1.644344 -2.720318,2.908573 -3.86847,10.749062 -0.543636,15.933912 1.027676,1.64398 4.171072,4.48898 5.803263,7.01818 3.143479,4.80547 2.961945,10.36993 2.055172,13.72112 -0.423161,1.51751 -1.390394,3.41426 -3.203939,3.41426 -1.813546,0 -2.962143,-2.27594 -3.2644,-4.36252 -0.362709,-2.21305 -0.544173,-6.63962 -0.665076,-8.15713 -0.120903,-0.0632 -1.692403,0 -1.692403,0 v 13.08861 h 0.906921 c 0,0 -0.120844,-0.6323 0.362769,-0.88522 0.483612,-0.25292 1.027377,0.0635 1.329634,0.25322 0.846322,0.50584 1.632169,1.01182 3.022555,1.01182 1.20903,0 2.901859,-0.44268 4.292244,-2.27634 2.78077,-3.66733 3.687582,-13.08856 0.241846,-18.58957 -1.088127,-1.77043 -4.412888,-5.18513 -5.863725,-7.33495 -2.962125,-4.362857 -2.599702,-8.59903 -1.753381,-10.875305 0.725418,-1.896895 1.63217,-3.035327 3.022555,-2.908867 1.390384,0.06323 2.297066,1.897225 2.599324,3.604431 0.483613,2.529195 0.42323,6.070134 0.42323,7.587651 l 1.874304,0.06305 V 86.755428 c -0.120903,-0.126459 -0.785998,-0.189652 -0.785998,-0.189652 0,0 0.120864,0.568883 -0.241846,0.948262 -0.362709,0.31615 -0.8465,-0.06319 -1.088306,-0.189652 -0.725418,-0.37938 -1.632179,-0.758943 -3.083016,-0.822172 z m 46.639015,0 c 0,0 -2.23681,3.67e-4 -3.7481,1.644344 -2.72031,2.908573 -3.86899,10.749062 -0.54415,15.933912 1.02768,1.64398 4.17108,4.48898 5.80327,7.01818 3.14347,4.80547 2.96246,10.36993 2.05568,13.72112 -0.42316,1.51751 -1.39039,3.41426 -3.20394,3.41426 -1.81354,0 -2.96215,-2.27594 -3.2644,-4.36252 -0.36271,-2.21305 -0.54417,-6.63962 -0.66507,-8.15713 -0.12091,-0.0632 -1.6924,0 -1.6924,0 v 13.08861 h 0.9064 c 0,0 -0.12085,-0.6323 0.36277,-0.88522 0.48361,-0.25292 1.02789,0.0635 1.33015,0.25322 0.84632,0.50584 1.63217,1.01182 3.02255,1.01182 1.20903,0 2.90135,-0.44268 4.29173,-2.27634 2.78078,-3.66733 3.68758,-13.08856 0.24185,-18.58957 -1.08813,-1.77043 -4.4129,-5.18513 -5.86373,-7.33495 -2.96212,-4.362857 -2.59918,-8.59903 -1.75286,-10.875305 0.72542,-1.896895 1.63216,-3.035327 3.02255,-2.908867 1.39039,0.06323 2.29707,1.897225 2.59933,3.604431 0.48361,2.529195 0.42323,6.070134 0.42323,7.587651 l 1.87379,0.06305 V 86.755428 c -0.12091,-0.126459 -0.786,-0.189652 -0.786,-0.189652 0,0 0.12138,0.568883 -0.24133,0.948262 -0.36271,0.31615 -0.8465,-0.06319 -1.08831,-0.189652 -0.72542,-0.37938 -1.63218,-0.758943 -3.08301,-0.822172 z m 24.34631,0.545703 c -0.23519,0.0056 -0.44489,0.02377 -0.60358,0.02377 v 1.07487 c 0.60451,0 1.45056,0.06293 1.45056,1.51722 v 36.610173 c 0,0.94845 0.0608,1.58078 -1.26917,1.58078 v 1.01182 c 0,0 1.26928,0.1265 1.87378,-0.18965 0.60452,-0.31615 1.63206,-0.3163 2.35748,0.0631 0.66497,0.25292 1.45115,0.1266 1.87431,0.1266 v -1.07487 c -0.60451,0 -1.45108,-0.0634 -1.45108,-1.51773 0,-2.27627 -0.0605,-36.610173 -0.0605,-36.610173 0,-0.885218 2e-4,-1.580782 1.26969,-1.580782 v -0.948263 c 0,0 -1.26979,-0.126312 -1.8743,0.126607 -0.60452,0.316149 -1.5716,0.316149 -2.29702,0 -0.41561,-0.197593 -0.87822,-0.222686 -1.27021,-0.213423 z m -42.49663,0.02377 -4.17132,0.06305 v 1.07487 c 1.75309,0 1.93425,0.63237 1.93425,3.161564 v 34.523469 c 0,2.27628 -1.57168,1.89704 -2.84117,1.89704 v 1.07487 c 0.42316,0 1.81395,0.18955 2.47892,-0.1266 0.72542,-0.37938 1.81344,-0.37923 2.4784,-0.0631 0.60452,0.31615 2.05517,0.18965 2.05517,0.18965 v -1.01182 c -1.45084,0 -2.90163,-0.0633 -2.90163,-1.89704 V 97.883948 l 7.43572,29.718082 c 0,0 0.36233,1.26452 0.84595,1.26452 h 0.36276 c 0.2418,0 0.42323,-0.12649 0.42323,-0.69556 v -38.0013 c 0,-2.276275 1.57171,-1.897042 2.90164,-1.897042 v -1.07487 c -0.48361,0 -1.57159,-0.189542 -2.23656,0.126608 -0.78587,0.316148 -1.87388,0.316148 -2.4784,0 -0.60452,-0.31615 -2.29702,-0.189653 -2.29702,-0.189653 v 1.07487 c 1.39039,0 2.90163,0.06338 2.90163,1.897042 v 24.912695 z m -51.321926,0.04599 c -0.756589,0.0089 -1.300696,0.0801 -1.300696,0.0801 l -0.06046,0.885218 c 0,0 1.269213,3.32e-4 1.511019,0.06356 0.544063,0.252918 0.483691,0.885217 0.483691,0.885217 l 0.06046,38.253998 c 0,0 0.06036,0.6323 -0.544152,0.88522 -0.241806,0.0632 -1.511019,0.063 -1.511019,0.063 l 0.06046,0.63252 H 71.4468 78.277908 V 118.4336 h -1.027844 c 0,3.6041 -0.42311,8.59914 -2.84117,9.42113 -0.846322,0.25292 -2.115634,0.31626 -2.115634,0.31626 0,0 0.06046,-2.27628 0.06046,-38.75991 0,-0.632298 0.181443,-0.948743 0.544153,-1.138432 0.302256,-0.12646 0.78561,-0.12609 1.57148,-0.12609 v -0.94878 c 0,0 -1.087957,-0.126275 -2.115633,-0.06305 -0.664966,0.06323 -1.027934,0.31626 -1.571997,0.31626 -0.604516,0 -1.450607,-0.25303 -1.752865,-0.31626 -0.287145,-0.01581 -0.562741,-0.02002 -0.814937,-0.01705 z m -16.459461,0.01705 v 0.632003 c 1.027676,0 1.995227,-0.06308 1.995227,1.011824 v 38.570256 c -0.120902,1.0749 -1.390711,0.94844 -1.995227,0.88521 v 0.63252 H 64.026066 V 118.4336 H 63.0592 c 0,2.33951 -0.484078,8.66237 -2.841687,9.42113 -0.846321,0.25292 -1.813524,0.31626 -3.022555,0.31626 v -20.23391 h 2.841687 c 1.088128,0.31614 1.027328,1.58122 1.027328,2.84582 h 0.967382 c 0,0 -0.120933,-1.70742 -0.181384,-2.40295 -0.120904,-0.69552 -0.120904,-0.94823 0,-2.02313 0.120903,-0.69553 0.181384,-1.70765 0.181384,-2.15026 l -1.027844,-0.063 c 0,0.6323 0.302596,2.59261 -1.087789,2.59261 H 57.194958 V 87.830298 c 0.906773,0 1.75352,0.06334 2.599842,0.31626 2.720318,0.948448 2.84117,7.144671 2.84117,9.484175 0.362709,0 0.664608,1.85e-4 0.966866,-0.06305 v -10.43295 z m 47.862195,0 v 0.632003 c 1.027672,0 1.994712,-0.06308 1.994712,1.011824 v 38.570256 c -0.12091,1.0749 -1.3902,0.94844 -1.994712,0.88521 v 0.63252 H 111.88826 V 118.4336 h -0.96739 c 0,2.33951 -0.48356,8.66237 -2.84117,9.42113 -0.84632,0.25292 -1.81352,0.31626 -3.02255,0.31626 v -20.23391 h 2.84117 c 1.08813,0.31614 1.02784,1.58122 1.02784,2.84582 h 0.96687 c 0,0 -0.12093,-1.70742 -0.18138,-2.40295 -0.1209,-0.69552 -0.1209,-0.94823 0,-2.02313 0.1209,-0.69553 0.18138,-1.70765 0.18138,-2.15026 l -1.02733,-0.063 c 0,0.6323 0.30208,2.59261 -1.0883,2.59261 h -2.72025 V 87.830298 c 0.90677,0 1.753,0.06334 2.59932,0.31626 2.72032,0.948448 2.84117,7.144671 2.84117,9.484175 0.36271,0 0.66514,1.85e-4 0.96739,-0.06305 v -10.43295 z m 46.638492,0 v 0.632003 c 1.02768,0 1.99523,-0.06308 1.99523,1.011824 v 38.570256 c -0.12091,1.0749 -1.39071,0.94844 -1.99523,0.88521 v 0.63252 h 12.2716 V 118.4336 h -0.96686 c 0,2.33951 -0.48355,8.66237 -2.84117,9.42113 -0.84632,0.25292 -1.81353,0.31626 -3.02256,0.31626 v -20.23391 h 2.84117 c 1.08813,0.31614 1.02733,1.58122 1.02733,2.84582 h 0.96738 c 0,0 -0.12093,-1.70742 -0.18138,-2.40295 -0.12091,-0.69552 -0.12091,-0.94823 0,-2.02313 0.1209,-0.69553 0.18138,-1.70765 0.18138,-2.15026 l -1.02784,-0.063 c 0,0.6323 0.30259,2.59261 -1.08779,2.59261 h -2.72025 V 87.830298 c 0.90677,0 1.75301,0.06334 2.59933,0.31626 2.72032,0.948448 2.84117,7.144671 2.84117,9.484175 0.36271,0 0.66513,1.85e-4 0.96738,-0.06305 v -10.43295 z" />
      <path
         id="path24018"
         style="font-size:48px;font-family:Ayres;-inkscape-font-specification:'Ayres, Normal';white-space:pre;fill:#000000;stroke:url(#linearGradient24105);stroke-width:1.28802"
         d="m 91.047156,86.502214 c 0,0 -2.236804,3.68e-4 -3.748092,1.644344 -2.720315,2.90857 -3.868467,10.749066 -0.543636,15.933912 1.027675,1.64398 4.171074,4.48898 5.803263,7.01818 3.143476,4.80546 2.961944,10.36993 2.055172,13.72112 -0.423159,1.51751 -1.390394,3.41426 -3.203939,3.41426 -1.813544,0 -2.962142,-2.27594 -3.2644,-4.36252 -0.362709,-2.21305 -0.544173,-6.63962 -0.665076,-8.15713 -0.120901,-0.0632 -1.692403,0 -1.692403,0 v 13.08861 h 0.906922 c 0,0 -0.120843,-0.6323 0.362768,-0.88522 0.483613,-0.25292 1.027377,0.0635 1.329635,0.25322 0.84632,0.50584 1.632171,1.01182 3.022554,1.01182 1.209029,0 2.90186,-0.44269 4.292245,-2.27634 2.780766,-3.66733 3.687578,-13.08856 0.241845,-18.58957 -1.088124,-1.77043 -4.41289,-5.18513 -5.863724,-7.33495 -2.962122,-4.362853 -2.599702,-8.599033 -1.753382,-10.875305 0.725419,-1.896893 1.632171,-3.035327 3.022555,-2.908867 1.390384,0.06323 2.297068,1.897227 2.599324,3.604431 0.483613,2.529193 0.42323,6.070136 0.42323,7.587651 l 1.874305,0.06305 V 86.755428 c -0.120903,-0.126459 -0.785999,-0.189652 -0.785999,-0.189652 0,0 0.120864,0.568883 -0.241846,0.948262 -0.362707,0.31615 -0.846501,-0.06319 -1.088305,-0.189652 -0.725419,-0.37938 -1.632182,-0.758944 -3.083016,-0.822172 z m 46.639014,0 c 0,0 -2.2368,3.68e-4 -3.74809,1.644344 -2.72032,2.90857 -3.86898,10.749066 -0.54416,15.933912 1.02768,1.64398 4.17108,4.48898 5.80327,7.01818 3.14348,4.80546 2.96247,10.36993 2.05569,13.72112 -0.42316,1.51751 -1.39039,3.41426 -3.20394,3.41426 -1.81355,0 -2.96215,-2.27594 -3.2644,-4.36252 -0.36271,-2.21305 -0.54418,-6.63962 -0.66508,-8.15713 -0.12091,-0.0632 -1.6924,0 -1.6924,0 v 13.08861 h 0.9064 c 0,0 -0.12085,-0.6323 0.36277,-0.88522 0.48361,-0.25292 1.02789,0.0635 1.33015,0.25322 0.84632,0.50584 1.63217,1.01182 3.02256,1.01182 1.20903,0 2.90135,-0.44269 4.29173,-2.27634 2.78076,-3.66733 3.68758,-13.08856 0.24184,-18.58957 -1.08813,-1.77043 -4.41289,-5.18513 -5.86372,-7.33495 -2.96213,-4.362853 -2.59919,-8.599033 -1.75287,-10.875305 0.72542,-1.896893 1.63217,-3.035327 3.02256,-2.908867 1.39039,0.06323 2.29706,1.897227 2.59932,3.604431 0.48361,2.529193 0.42323,6.070136 0.42323,7.587651 l 1.87379,0.06305 V 86.755428 c -0.12091,-0.126459 -0.786,-0.189652 -0.786,-0.189652 0,0 0.12138,0.568883 -0.24133,0.948262 -0.36271,0.31615 -0.84649,-0.06319 -1.0883,-0.189652 -0.72542,-0.37938 -1.63218,-0.758944 -3.08302,-0.822172 z m 24.34632,0.545703 c -0.2352,0.0056 -0.4449,0.02377 -0.60358,0.02377 v 1.07487 c 0.60451,0 1.45055,0.06293 1.45055,1.51722 v 36.610173 c 0,0.94845 0.0608,1.58078 -1.26917,1.58078 v 1.01182 c 0,0 1.26928,0.1265 1.87379,-0.18965 0.60452,-0.31615 1.63206,-0.3163 2.35748,0.0631 0.66497,0.25292 1.45114,0.1266 1.8743,0.1266 v -1.07487 c -0.60451,0 -1.45107,-0.0634 -1.45107,-1.51773 0,-2.27627 -0.0605,-36.610173 -0.0605,-36.610173 0,-0.885217 2e-4,-1.580782 1.26969,-1.580782 v -0.948263 c 0,0 -1.2698,-0.126311 -1.87431,0.126607 -0.60452,0.316149 -1.5716,0.316149 -2.29702,0 -0.4156,-0.197592 -0.87821,-0.222686 -1.2702,-0.213423 z m -42.49663,0.02377 -4.17133,0.06305 v 1.07487 c 1.75309,0 1.93425,0.632373 1.93425,3.161564 v 34.523469 c 0,2.27628 -1.57168,1.89704 -2.84117,1.89704 v 1.07487 c 0.42316,0 1.81395,0.18955 2.47892,-0.1266 0.72542,-0.37938 1.81344,-0.37923 2.4784,-0.0631 0.60452,0.31615 2.05517,0.18965 2.05517,0.18965 v -1.01182 c -1.45082,0 -2.90163,-0.0634 -2.90163,-1.89704 V 97.883948 l 7.43573,29.718082 c 0,0 0.36232,1.26452 0.84594,1.26452 h 0.36277 c 0.2418,0 0.42323,-0.12649 0.42323,-0.69556 v -38.0013 c 0,-2.276273 1.5717,-1.897042 2.90163,-1.897042 v -1.07487 c -0.48361,0 -1.57159,-0.189542 -2.23656,0.126608 -0.78587,0.316147 -1.87388,0.316147 -2.4784,0 -0.60452,-0.31615 -2.29702,-0.189653 -2.29702,-0.189653 v 1.07487 c 1.39039,0 2.90164,0.06338 2.90164,1.897042 v 24.912695 z m -51.321936,0.04599 c -0.756587,0.0089 -1.300696,0.0801 -1.300696,0.0801 l -0.06046,0.885218 c 0,0 1.269213,3.32e-4 1.511019,0.06356 0.544062,0.252917 0.483691,0.885217 0.483691,0.885217 l 0.06046,38.253998 c 0,0 0.06036,0.6323 -0.544153,0.88522 -0.241806,0.0632 -1.511019,0.063 -1.511019,0.063 l 0.06046,0.63252 H 71.4468 78.277907 V 118.4336 h -1.027844 c 0,3.60409 -0.423113,8.59914 -2.84117,9.42113 -0.84632,0.25292 -2.115633,0.31626 -2.115633,0.31626 0,0 0.06046,-2.27632 0.06046,-38.75991 0,-0.632297 0.181443,-0.948743 0.544153,-1.138432 0.302257,-0.12646 0.785611,-0.12609 1.57148,-0.12609 v -0.94878 c 0,0 -1.087958,-0.126275 -2.115633,-0.06305 -0.664965,0.06323 -1.027933,0.31626 -1.571997,0.31626 -0.604514,0 -1.450607,-0.25303 -1.752865,-0.31626 -0.287143,-0.01581 -0.562741,-0.02002 -0.814937,-0.01705 z m -16.45946,0.01705 v 0.632003 c 1.027676,0 1.995227,-0.06308 1.995227,1.011824 v 38.570256 c -0.120903,1.0749 -1.390712,0.94844 -1.995227,0.88521 v 0.63252 H 64.026066 V 118.4336 H 63.0592 c 0,2.33951 -0.484077,8.66237 -2.841687,9.42113 -0.846321,0.25292 -1.813524,0.31626 -3.022555,0.31626 v -20.23391 h 2.841688 c 1.088127,0.31614 1.027327,1.58122 1.027327,2.84582 h 0.967383 c 0,0 -0.120934,-1.70742 -0.181384,-2.40295 -0.120904,-0.69552 -0.120904,-0.94823 0,-2.02313 0.120902,-0.69553 0.181384,-1.70765 0.181384,-2.15026 l -1.027844,-0.063 c 0,0.6323 0.302595,2.59261 -1.087789,2.59261 H 57.194958 V 87.830298 c 0.906774,0 1.753521,0.06334 2.599842,0.31626 2.720318,0.948448 2.84117,7.144671 2.84117,9.484175 0.36271,0 0.664608,1.85e-4 0.966866,-0.06305 v -10.43295 z m 47.862195,0 v 0.632003 c 1.027671,0 1.994711,-0.06308 1.994711,1.011824 v 38.570256 c -0.12091,1.07489 -1.3902,0.94844 -1.994711,0.88521 v 0.63252 H 111.88826 V 118.4336 h -0.96738 c 0,2.33951 -0.48356,8.66237 -2.84117,9.42113 -0.84633,0.25292 -1.81353,0.31626 -3.02256,0.31626 v -20.23391 h 2.84117 c 1.08813,0.31614 1.02785,1.58122 1.02785,2.84582 h 0.96686 c 0,0 -0.12093,-1.70742 -0.18138,-2.40295 -0.1209,-0.69552 -0.1209,-0.94824 0,-2.02313 0.1209,-0.69553 0.18138,-1.70765 0.18138,-2.15026 l -1.02732,-0.063 c 0,0.6323 0.30207,2.59261 -1.08831,2.59261 h -2.72025 V 87.830298 c 0.90677,0 1.753,0.06334 2.59933,0.31626 2.72032,0.948447 2.84117,7.144674 2.84117,9.484175 0.36271,0 0.66513,1.85e-4 0.96738,-0.06305 v -10.43295 z m 46.638501,0 v 0.632003 c 1.02766,0 1.99522,-0.06308 1.99522,1.011824 v 38.570256 c -0.12091,1.07489 -1.39072,0.94844 -1.99522,0.88521 v 0.63252 h 12.2716 V 118.4336 h -0.96687 c 0,2.33951 -0.48355,8.66237 -2.84117,9.42113 -0.84632,0.25292 -1.81352,0.31626 -3.02255,0.31626 v -20.23391 h 2.84117 c 1.08813,0.31614 1.02732,1.58122 1.02732,2.84582 h 0.96739 c 0,0 -0.12094,-1.70742 -0.18139,-2.40295 -0.12091,-0.69552 -0.12091,-0.94824 0,-2.02313 0.1209,-0.69553 0.18139,-1.70765 0.18139,-2.15026 l -1.02785,-0.063 c 0,0.6323 0.30259,2.59261 -1.08779,2.59261 h -2.72024 V 87.830298 c 0.90677,0 1.753,0.06334 2.59932,0.31626 2.72032,0.948447 2.84117,7.144674 2.84117,9.484175 0.36271,0 0.66513,1.85e-4 0.96738,-0.06305 v -10.43295 z" />
      <path
         id="path24012"
         style="font-size:48px;font-family:Ayres;-inkscape-font-specification:'Ayres, Normal';white-space:pre;fill:url(#linearGradient19378);stroke:url(#linearGradient19380);stroke-width:1.28802"
         d="m 91.047156,86.502214 c 0,0 -2.236804,3.68e-4 -3.748092,1.644344 -2.720315,2.90857 -3.868467,10.749066 -0.543636,15.933912 1.027675,1.64398 4.171074,4.48898 5.803263,7.01818 3.143476,4.80546 2.961944,10.36993 2.055172,13.72112 -0.423159,1.51751 -1.390394,3.41426 -3.203939,3.41426 -1.813544,0 -2.962142,-2.27594 -3.2644,-4.36252 -0.362709,-2.21305 -0.544173,-6.63962 -0.665076,-8.15713 -0.120901,-0.0632 -1.692403,0 -1.692403,0 v 13.08861 h 0.906922 c 0,0 -0.120843,-0.6323 0.362768,-0.88522 0.483613,-0.25292 1.027377,0.0635 1.329635,0.25322 0.84632,0.50584 1.632171,1.01182 3.022554,1.01182 1.209029,0 2.90186,-0.44269 4.292245,-2.27634 2.780766,-3.66733 3.687578,-13.08856 0.241845,-18.58957 -1.088124,-1.77043 -4.41289,-5.18513 -5.863724,-7.33495 -2.962122,-4.362853 -2.599702,-8.599033 -1.753382,-10.875305 0.725419,-1.896893 1.632171,-3.035327 3.022555,-2.908867 1.390384,0.06323 2.297068,1.897227 2.599324,3.604431 0.483613,2.529193 0.42323,6.070136 0.42323,7.587651 l 1.874305,0.06305 V 86.755428 c -0.120903,-0.126459 -0.785999,-0.189652 -0.785999,-0.189652 0,0 0.120864,0.568883 -0.241846,0.948262 -0.362707,0.31615 -0.846501,-0.06319 -1.088305,-0.189652 -0.725419,-0.37938 -1.632182,-0.758944 -3.083016,-0.822172 z m 46.639014,0 c 0,0 -2.2368,3.68e-4 -3.74809,1.644344 -2.72032,2.90857 -3.86898,10.749066 -0.54416,15.933912 1.02768,1.64398 4.17108,4.48898 5.80327,7.01818 3.14348,4.80546 2.96247,10.36993 2.05569,13.72112 -0.42316,1.51751 -1.39039,3.41426 -3.20394,3.41426 -1.81355,0 -2.96215,-2.27594 -3.2644,-4.36252 -0.36271,-2.21305 -0.54418,-6.63962 -0.66508,-8.15713 -0.12091,-0.0632 -1.6924,0 -1.6924,0 v 13.08861 h 0.9064 c 0,0 -0.12085,-0.6323 0.36277,-0.88522 0.48361,-0.25292 1.02789,0.0635 1.33015,0.25322 0.84632,0.50584 1.63217,1.01182 3.02256,1.01182 1.20903,0 2.90135,-0.44269 4.29173,-2.27634 2.78076,-3.66733 3.68758,-13.08856 0.24184,-18.58957 -1.08813,-1.77043 -4.41289,-5.18513 -5.86372,-7.33495 -2.96213,-4.362853 -2.59919,-8.599033 -1.75287,-10.875305 0.72542,-1.896893 1.63217,-3.035327 3.02256,-2.908867 1.39039,0.06323 2.29706,1.897227 2.59932,3.604431 0.48361,2.529193 0.42323,6.070136 0.42323,7.587651 l 1.87379,0.06305 V 86.755428 c -0.12091,-0.126459 -0.786,-0.189652 -0.786,-0.189652 0,0 0.12138,0.568883 -0.24133,0.948262 -0.36271,0.31615 -0.84649,-0.06319 -1.0883,-0.189652 -0.72542,-0.37938 -1.63218,-0.758944 -3.08302,-0.822172 z m 24.34632,0.545703 c -0.2352,0.0056 -0.4449,0.02377 -0.60358,0.02377 v 1.07487 c 0.60451,0 1.45055,0.06293 1.45055,1.51722 v 36.610173 c 0,0.94845 0.0608,1.58078 -1.26917,1.58078 v 1.01182 c 0,0 1.26928,0.1265 1.87379,-0.18965 0.60452,-0.31615 1.63206,-0.3163 2.35748,0.0631 0.66497,0.25292 1.45114,0.1266 1.8743,0.1266 v -1.07487 c -0.60451,0 -1.45107,-0.0634 -1.45107,-1.51773 0,-2.27627 -0.0605,-36.610173 -0.0605,-36.610173 0,-0.885217 2e-4,-1.580782 1.26969,-1.580782 v -0.948263 c 0,0 -1.2698,-0.126311 -1.87431,0.126607 -0.60452,0.316149 -1.5716,0.316149 -2.29702,0 -0.4156,-0.197592 -0.87821,-0.222686 -1.2702,-0.213423 z m -42.49663,0.02377 -4.17133,0.06305 v 1.07487 c 1.75309,0 1.93425,0.632373 1.93425,3.161564 v 34.523469 c 0,2.27628 -1.57168,1.89704 -2.84117,1.89704 v 1.07487 c 0.42316,0 1.81395,0.18955 2.47892,-0.1266 0.72542,-0.37938 1.81344,-0.37923 2.4784,-0.0631 0.60452,0.31615 2.05517,0.18965 2.05517,0.18965 v -1.01182 c -1.45082,0 -2.90163,-0.0634 -2.90163,-1.89704 V 97.883948 l 7.43573,29.718082 c 0,0 0.36232,1.26452 0.84594,1.26452 h 0.36277 c 0.2418,0 0.42323,-0.12649 0.42323,-0.69556 v -38.0013 c 0,-2.276273 1.5717,-1.897042 2.90163,-1.897042 v -1.07487 c -0.48361,0 -1.57159,-0.189542 -2.23656,0.126608 -0.78587,0.316147 -1.87388,0.316147 -2.4784,0 -0.60452,-0.31615 -2.29702,-0.189653 -2.29702,-0.189653 v 1.07487 c 1.39039,0 2.90164,0.06338 2.90164,1.897042 v 24.912695 z m -51.321936,0.04599 c -0.756587,0.0089 -1.300696,0.0801 -1.300696,0.0801 l -0.06046,0.885218 c 0,0 1.269213,3.32e-4 1.511019,0.06356 0.544062,0.252917 0.483691,0.885217 0.483691,0.885217 l 0.06046,38.253998 c 0,0 0.06036,0.6323 -0.544153,0.88522 -0.241806,0.0632 -1.511019,0.063 -1.511019,0.063 l 0.06046,0.63252 H 71.4468 78.277907 V 118.4336 h -1.027844 c 0,3.60409 -0.423113,8.59914 -2.84117,9.42113 -0.84632,0.25292 -2.115633,0.31626 -2.115633,0.31626 0,0 0.06046,-2.27632 0.06046,-38.75991 0,-0.632297 0.181443,-0.948743 0.544153,-1.138432 0.302257,-0.12646 0.785611,-0.12609 1.57148,-0.12609 v -0.94878 c 0,0 -1.087958,-0.126275 -2.115633,-0.06305 -0.664965,0.06323 -1.027933,0.31626 -1.571997,0.31626 -0.604514,0 -1.450607,-0.25303 -1.752865,-0.31626 -0.287143,-0.01581 -0.562741,-0.02002 -0.814937,-0.01705 z m -16.45946,0.01705 v 0.632003 c 1.027676,0 1.995227,-0.06308 1.995227,1.011824 v 38.570256 c -0.120903,1.0749 -1.390712,0.94844 -1.995227,0.88521 v 0.63252 H 64.026066 V 118.4336 H 63.0592 c 0,2.33951 -0.484077,8.66237 -2.841687,9.42113 -0.846321,0.25292 -1.813524,0.31626 -3.022555,0.31626 v -20.23391 h 2.841688 c 1.088127,0.31614 1.027327,1.58122 1.027327,2.84582 h 0.967383 c 0,0 -0.120934,-1.70742 -0.181384,-2.40295 -0.120904,-0.69552 -0.120904,-0.94823 0,-2.02313 0.120902,-0.69553 0.181384,-1.70765 0.181384,-2.15026 l -1.027844,-0.063 c 0,0.6323 0.302595,2.59261 -1.087789,2.59261 H 57.194958 V 87.830298 c 0.906774,0 1.753521,0.06334 2.599842,0.31626 2.720318,0.948448 2.84117,7.144671 2.84117,9.484175 0.36271,0 0.664608,1.85e-4 0.966866,-0.06305 v -10.43295 z m 47.862195,0 v 0.632003 c 1.027671,0 1.994711,-0.06308 1.994711,1.011824 v 38.570256 c -0.12091,1.07489 -1.3902,0.94844 -1.994711,0.88521 v 0.63252 H 111.88826 V 118.4336 h -0.96738 c 0,2.33951 -0.48356,8.66237 -2.84117,9.42113 -0.84633,0.25292 -1.81353,0.31626 -3.02256,0.31626 v -20.23391 h 2.84117 c 1.08813,0.31614 1.02785,1.58122 1.02785,2.84582 h 0.96686 c 0,0 -0.12093,-1.70742 -0.18138,-2.40295 -0.1209,-0.69552 -0.1209,-0.94824 0,-2.02313 0.1209,-0.69553 0.18138,-1.70765 0.18138,-2.15026 l -1.02732,-0.063 c 0,0.6323 0.30207,2.59261 -1.08831,2.59261 h -2.72025 V 87.830298 c 0.90677,0 1.753,0.06334 2.59933,0.31626 2.72032,0.948447 2.84117,7.144674 2.84117,9.484175 0.36271,0 0.66513,1.85e-4 0.96738,-0.06305 v -10.43295 z m 46.638501,0 v 0.632003 c 1.02766,0 1.99522,-0.06308 1.99522,1.011824 v 38.570256 c -0.12091,1.07489 -1.39072,0.94844 -1.99522,0.88521 v 0.63252 h 12.2716 V 118.4336 h -0.96687 c 0,2.33951 -0.48355,8.66237 -2.84117,9.42113 -0.84632,0.25292 -1.81352,0.31626 -3.02255,0.31626 v -20.23391 h 2.84117 c 1.08813,0.31614 1.02732,1.58122 1.02732,2.84582 h 0.96739 c 0,0 -0.12094,-1.70742 -0.18139,-2.40295 -0.12091,-0.69552 -0.12091,-0.94824 0,-2.02313 0.1209,-0.69553 0.18139,-1.70765 0.18139,-2.15026 l -1.02785,-0.063 c 0,0.6323 0.30259,2.59261 -1.08779,2.59261 h -2.72024 V 87.830298 c 0.90677,0 1.753,0.06334 2.59932,0.31626 2.72032,0.948447 2.84117,7.144674 2.84117,9.484175 0.36271,0 0.66513,1.85e-4 0.96738,-0.06305 v -10.43295 z" />
      <path
         id="path24014"
         style="font-size:48px;font-family:Ayres;-inkscape-font-specification:'Ayres, Normal';white-space:pre;fill:url(#linearGradient19418);stroke-width:1.28802"
         d="m 91.047155,86.502214 c 0,0 -2.236803,3.67e-4 -3.748091,1.644344 -2.720318,2.908573 -3.86847,10.749062 -0.543636,15.933912 1.027676,1.64398 4.171072,4.48898 5.803263,7.01818 3.143479,4.80547 2.961945,10.36993 2.055172,13.72112 -0.423161,1.51751 -1.390394,3.41426 -3.203939,3.41426 -1.813546,0 -2.962143,-2.27594 -3.2644,-4.36252 -0.362709,-2.21305 -0.544173,-6.63962 -0.665076,-8.15713 -0.120903,-0.0632 -1.692403,0 -1.692403,0 v 13.08861 h 0.906921 c 0,0 -0.120844,-0.6323 0.362769,-0.88522 0.483612,-0.25292 1.027377,0.0635 1.329634,0.25322 0.846322,0.50584 1.632169,1.01182 3.022555,1.01182 1.20903,0 2.901859,-0.44268 4.292244,-2.27634 2.78077,-3.66733 3.687582,-13.08856 0.241846,-18.58957 -1.088127,-1.77043 -4.412888,-5.18513 -5.863725,-7.33495 -2.962125,-4.362857 -2.599702,-8.59903 -1.753381,-10.875305 0.725418,-1.896895 1.63217,-3.035327 3.022555,-2.908867 1.390384,0.06323 2.297066,1.897225 2.599324,3.604431 0.483613,2.529195 0.42323,6.070134 0.42323,7.587651 l 1.874304,0.06305 V 86.755428 c -0.120903,-0.126459 -0.785998,-0.189652 -0.785998,-0.189652 0,0 0.120864,0.568883 -0.241846,0.948262 -0.362709,0.31615 -0.8465,-0.06319 -1.088306,-0.189652 -0.725418,-0.37938 -1.632179,-0.758943 -3.083016,-0.822172 z m 46.639015,0 c 0,0 -2.23681,3.67e-4 -3.7481,1.644344 -2.72031,2.908573 -3.86899,10.749062 -0.54415,15.933912 1.02768,1.64398 4.17108,4.48898 5.80327,7.01818 3.14347,4.80547 2.96246,10.36993 2.05568,13.72112 -0.42316,1.51751 -1.39039,3.41426 -3.20394,3.41426 -1.81354,0 -2.96215,-2.27594 -3.2644,-4.36252 -0.36271,-2.21305 -0.54417,-6.63962 -0.66507,-8.15713 -0.12091,-0.0632 -1.6924,0 -1.6924,0 v 13.08861 h 0.9064 c 0,0 -0.12085,-0.6323 0.36277,-0.88522 0.48361,-0.25292 1.02789,0.0635 1.33015,0.25322 0.84632,0.50584 1.63217,1.01182 3.02255,1.01182 1.20903,0 2.90135,-0.44268 4.29173,-2.27634 2.78078,-3.66733 3.68758,-13.08856 0.24185,-18.58957 -1.08813,-1.77043 -4.4129,-5.18513 -5.86373,-7.33495 -2.96212,-4.362857 -2.59918,-8.59903 -1.75286,-10.875305 0.72542,-1.896895 1.63216,-3.035327 3.02255,-2.908867 1.39039,0.06323 2.29707,1.897225 2.59933,3.604431 0.48361,2.529195 0.42323,6.070134 0.42323,7.587651 l 1.87379,0.06305 V 86.755428 c -0.12091,-0.126459 -0.786,-0.189652 -0.786,-0.189652 0,0 0.12138,0.568883 -0.24133,0.948262 -0.36271,0.31615 -0.8465,-0.06319 -1.08831,-0.189652 -0.72542,-0.37938 -1.63218,-0.758943 -3.08301,-0.822172 z m 24.34631,0.545703 c -0.23519,0.0056 -0.44489,0.02377 -0.60358,0.02377 v 1.07487 c 0.60451,0 1.45056,0.06293 1.45056,1.51722 v 36.610173 c 0,0.94845 0.0608,1.58078 -1.26917,1.58078 v 1.01182 c 0,0 1.26928,0.1265 1.87378,-0.18965 0.60452,-0.31615 1.63206,-0.3163 2.35748,0.0631 0.66497,0.25292 1.45115,0.1266 1.87431,0.1266 v -1.07487 c -0.60451,0 -1.45108,-0.0634 -1.45108,-1.51773 0,-2.27627 -0.0605,-36.610173 -0.0605,-36.610173 0,-0.885218 2e-4,-1.580782 1.26969,-1.580782 v -0.948263 c 0,0 -1.26979,-0.126312 -1.8743,0.126607 -0.60452,0.316149 -1.5716,0.316149 -2.29702,0 -0.41561,-0.197593 -0.87822,-0.222686 -1.27021,-0.213423 z m -42.49663,0.02377 -4.17132,0.06305 v 1.07487 c 1.75309,0 1.93425,0.63237 1.93425,3.161564 v 34.523469 c 0,2.27628 -1.57168,1.89704 -2.84117,1.89704 v 1.07487 c 0.42316,0 1.81395,0.18955 2.47892,-0.1266 0.72542,-0.37938 1.81344,-0.37923 2.4784,-0.0631 0.60452,0.31615 2.05517,0.18965 2.05517,0.18965 v -1.01182 c -1.45084,0 -2.90163,-0.0633 -2.90163,-1.89704 V 97.883948 l 7.43572,29.718082 c 0,0 0.36233,1.26452 0.84595,1.26452 h 0.36276 c 0.2418,0 0.42323,-0.12649 0.42323,-0.69556 v -38.0013 c 0,-2.276275 1.57171,-1.897042 2.90164,-1.897042 v -1.07487 c -0.48361,0 -1.57159,-0.189542 -2.23656,0.126608 -0.78587,0.316148 -1.87388,0.316148 -2.4784,0 -0.60452,-0.31615 -2.29702,-0.189653 -2.29702,-0.189653 v 1.07487 c 1.39039,0 2.90163,0.06338 2.90163,1.897042 v 24.912695 z m -51.321926,0.04599 c -0.756589,0.0089 -1.300696,0.0801 -1.300696,0.0801 l -0.06046,0.885218 c 0,0 1.269213,3.32e-4 1.511019,0.06356 0.544063,0.252918 0.483691,0.885217 0.483691,0.885217 l 0.06046,38.253998 c 0,0 0.06036,0.6323 -0.544152,0.88522 -0.241806,0.0632 -1.511019,0.063 -1.511019,0.063 l 0.06046,0.63252 H 71.4468 78.277908 V 118.4336 h -1.027844 c 0,3.6041 -0.42311,8.59914 -2.84117,9.42113 -0.846322,0.25292 -2.115634,0.31626 -2.115634,0.31626 0,0 0.06046,-2.27628 0.06046,-38.75991 0,-0.632298 0.181443,-0.948743 0.544153,-1.138432 0.302256,-0.12646 0.78561,-0.12609 1.57148,-0.12609 v -0.94878 c 0,0 -1.087957,-0.126275 -2.115633,-0.06305 -0.664966,0.06323 -1.027934,0.31626 -1.571997,0.31626 -0.604516,0 -1.450607,-0.25303 -1.752865,-0.31626 -0.287145,-0.01581 -0.562741,-0.02002 -0.814937,-0.01705 z m -16.459461,0.01705 v 0.632003 c 1.027676,0 1.995227,-0.06308 1.995227,1.011824 v 38.570256 c -0.120902,1.0749 -1.390711,0.94844 -1.995227,0.88521 v 0.63252 H 64.026066 V 118.4336 H 63.0592 c 0,2.33951 -0.484078,8.66237 -2.841687,9.42113 -0.846321,0.25292 -1.813524,0.31626 -3.022555,0.31626 v -20.23391 h 2.841687 c 1.088128,0.31614 1.027328,1.58122 1.027328,2.84582 h 0.967382 c 0,0 -0.120933,-1.70742 -0.181384,-2.40295 -0.120904,-0.69552 -0.120904,-0.94823 0,-2.02313 0.120903,-0.69553 0.181384,-1.70765 0.181384,-2.15026 l -1.027844,-0.063 c 0,0.6323 0.302596,2.59261 -1.087789,2.59261 H 57.194958 V 87.830298 c 0.906773,0 1.75352,0.06334 2.599842,0.31626 2.720318,0.948448 2.84117,7.144671 2.84117,9.484175 0.362709,0 0.664608,1.85e-4 0.966866,-0.06305 v -10.43295 z m 47.862195,0 v 0.632003 c 1.027672,0 1.994712,-0.06308 1.994712,1.011824 v 38.570256 c -0.12091,1.0749 -1.3902,0.94844 -1.994712,0.88521 v 0.63252 H 111.88826 V 118.4336 h -0.96739 c 0,2.33951 -0.48356,8.66237 -2.84117,9.42113 -0.84632,0.25292 -1.81352,0.31626 -3.02255,0.31626 v -20.23391 h 2.84117 c 1.08813,0.31614 1.02784,1.58122 1.02784,2.84582 h 0.96687 c 0,0 -0.12093,-1.70742 -0.18138,-2.40295 -0.1209,-0.69552 -0.1209,-0.94823 0,-2.02313 0.1209,-0.69553 0.18138,-1.70765 0.18138,-2.15026 l -1.02733,-0.063 c 0,0.6323 0.30208,2.59261 -1.0883,2.59261 h -2.72025 V 87.830298 c 0.90677,0 1.753,0.06334 2.59932,0.31626 2.72032,0.948448 2.84117,7.144671 2.84117,9.484175 0.36271,0 0.66514,1.85e-4 0.96739,-0.06305 v -10.43295 z m 46.638492,0 v 0.632003 c 1.02768,0 1.99523,-0.06308 1.99523,1.011824 v 38.570256 c -0.12091,1.0749 -1.39071,0.94844 -1.99523,0.88521 v 0.63252 h 12.2716 V 118.4336 h -0.96686 c 0,2.33951 -0.48355,8.66237 -2.84117,9.42113 -0.84632,0.25292 -1.81353,0.31626 -3.02256,0.31626 v -20.23391 h 2.84117 c 1.08813,0.31614 1.02733,1.58122 1.02733,2.84582 h 0.96738 c 0,0 -0.12093,-1.70742 -0.18138,-2.40295 -0.12091,-0.69552 -0.12091,-0.94823 0,-2.02313 0.1209,-0.69553 0.18138,-1.70765 0.18138,-2.15026 l -1.02784,-0.063 c 0,0.6323 0.30259,2.59261 -1.08779,2.59261 h -2.72025 V 87.830298 c 0.90677,0 1.75301,0.06334 2.59933,0.31626 2.72032,0.948448 2.84117,7.144671 2.84117,9.484175 0.36271,0 0.66513,1.85e-4 0.96738,-0.06305 v -10.43295 z" />
      <path
         id="path20983"
         style="font-size:48px;font-family:Ayres;-inkscape-font-specification:'Ayres, Normal';white-space:pre;fill:url(#linearGradient23278);fill-opacity:1;stroke-width:1.28802;opacity:0.92910448"
         d="m 91.043022,86.829842 c -0.743561,0.0017 -1.660364,0.334347 -1.660364,0.334347 -0.610663,0.223509 -1.282687,0.592633 -1.843815,1.203027 -2.321676,2.482358 -3.490962,8.84167 -1.416451,13.790894 a 81.756248,19.314583 0 0 0 4.681368,0.33641 c -0.373717,-0.4703 -0.722753,-0.92477 -0.995288,-1.3286 -3.023396,-4.453108 -2.670689,-8.800634 -1.789038,-11.17193 0.554983,-1.451255 1.263124,-2.537721 2.249991,-2.938839 0.298933,-0.122501 0.623546,-0.181337 0.977719,-0.167431 -0.08591,-0.01009 -0.107852,-0.05353 -0.204122,-0.05788 z m 46.638498,0 c -0.74356,0.0017 -1.65985,0.334347 -1.65985,0.334347 -0.61066,0.223509 -1.28268,0.592633 -1.84381,1.203027 -2.38594,2.551077 -3.55601,9.196858 -1.23765,14.198614 a 81.756248,19.314583 0 0 0 4.3217,-0.29869 c -0.30273,-0.38757 -0.58585,-0.76252 -0.81442,-1.10122 -3.02344,-4.453163 -2.66909,-8.800787 -1.78749,-11.17193 0.55815,-1.459531 1.27017,-2.550082 2.26549,-2.945557 0.29403,-0.117791 0.61279,-0.174336 0.96015,-0.160713 -0.0859,-0.01008 -0.10783,-0.05353 -0.20412,-0.05788 z m -41.950929,0.109554 c -0.06763,0.457609 -0.275436,0.800985 -0.275436,0.800985 l -0.0098,0.0098 -0.01189,0.0098 c -0.562589,0.490372 -1.28975,-0.05843 -1.454691,-0.144694 -0.480329,-0.251202 -1.264067,-0.397972 -2.029334,-0.54467 0.569256,0.212285 1.039919,0.668899 1.41025,1.246953 0.456064,0.701522 0.761912,1.582964 0.911572,2.428275 0.465915,2.436477 0.430015,5.707029 0.425814,7.326168 l 1.221114,0.04134 V 86.968852 c -0.0204,-0.0049 -0.126739,-0.01806 -0.187585,-0.02946 z m 46.638499,0 c -0.0676,0.457609 -0.27544,0.800985 -0.27544,0.800985 l -0.01,0.0098 -0.0114,0.0098 c -0.56259,0.49037 -1.29027,-0.05843 -1.45521,-0.144694 -0.48034,-0.251202 -1.26407,-0.397973 -2.02934,-0.54467 0.56915,0.212247 1.03995,0.669048 1.41025,1.246953 0.45618,0.701573 0.76241,1.58284 0.91209,2.428275 0.46589,2.436401 0.43192,5.706912 0.42788,7.326168 l 1.21853,0.04134 V 86.968852 c -0.0204,-0.0049 -0.12673,-0.01806 -0.18758,-0.02946 z m 19.67218,0.4377 c -0.10618,0.0025 -0.18747,0.0065 -0.2837,0.01137 v 0.50798 c 0.64771,0.05339 1.44952,0.279768 1.44952,1.76785 v 9.339999 a 81.756248,19.314583 0 0 0 2.68511,-0.520382 c -0.007,-3.945863 -0.007,-3.846238 -0.0155,-8.819617 0,-0.781619 0.17585,-1.564113 1.26969,-1.762166 v -0.423747 c -0.79987,-0.01484 -1.42007,0.0863 -1.42007,0.0863 l 0.0258,-0.01189 c -0.69979,0.365976 -1.78154,0.357894 -2.58021,0.0098 l -0.004,-0.0021 -0.006,-0.0041 c -0.34959,-0.166206 -0.74614,-0.188172 -1.12086,-0.179317 z m -42.76173,0.02739 -3.58634,0.05426 v 0.470773 c 1.68647,0.116717 1.93373,1.028479 1.93373,3.44165 v 11.776541 a 81.756248,19.314583 0 0 0 0.6134,-0.0119 v -5.250837 l 0.64647,-0.0801 1.3224,5.284947 a 81.756248,19.314583 0 0 0 2.92179,-0.0682 z m -51.060965,0.04082 c -0.295402,0.0035 -0.557097,0.01642 -0.765328,0.03101 -0.09347,0.0065 -0.162995,0.01331 -0.232544,0.01964 l -0.01757,0.267684 c 0.524011,0.01039 0.951363,0.02739 0.951363,0.02739 0.05237,0.004 0.102028,0.0081 0.146245,0.01344 0.04817,0.0058 0.100265,0.01422 0.144694,0.02584 l 0.02894,0.0078 0.02739,0.01137 c 0.383011,0.178051 0.550975,0.48822 0.623218,0.746208 0.01903,0.06796 0.06979,0.247505 0.04909,0.466638 l 0.0016,-0.03101 0.01757,11.219474 a 81.756248,19.314583 0 0 0 2.826184,0.40618 c 0.002,-3.814466 0.0062,-6.214489 0.0062,-11.246866 0,-0.726637 0.219845,-1.166058 0.720369,-1.427819 l 0.01395,-0.0057 0.01137,-0.0057 c 0.289838,-0.121265 0.807286,-0.117956 1.369425,-0.12299 v -0.334347 c -0.959356,-0.07423 -1.751598,-0.05339 -1.758032,-0.05271 -0.628241,0.06026 -1.007307,0.318327 -1.601453,0.318327 -0.639025,0 -1.494737,-0.254612 -1.786971,-0.318327 -0.272799,-0.01458 -0.535596,-0.01833 -0.775663,-0.0155 z m -16.136483,0.01757 v 0.0078 c 0.940967,0.0026 1.996261,0.05087 1.996261,1.308447 v 8.610327 a 81.756248,19.314583 0 0 0 2.788977,0.634587 V 87.502153 h 0.328145 c 0.92204,0 1.804116,0.06394 2.693376,0.329695 l 0.0078,0.0021 0.0057,0.0041 c 2.871937,1.00131 3.026335,6.932872 3.034957,9.446969 0.116305,-0.0022 0.234187,-0.01066 0.337964,-0.02119 v -9.800953 z m 47.863229,0 v 0.0078 c 0.940509,0.0027 1.994189,0.05114 1.994189,1.308447 V 103.0258 a 81.756248,19.314583 0 0 0 2.78898,0.0651 V 87.502153 h 0.32815 c 0.92204,0 1.80411,0.06394 2.69337,0.329695 l 0.008,0.0021 0.006,0.0041 c 2.87194,1.00131 3.02685,6.932872 3.03547,9.446969 0.1163,-0.0022 0.23419,-0.01066 0.33797,-0.02119 v -9.800953 z m 46.638499,0 v 0.0078 c 0.94051,0.0027 1.99419,0.05115 1.99419,1.308447 v 12.419917 a 81.756248,19.314583 0 0 0 2.78898,-0.3514 V 87.502153 h 0.32814 c 0.92204,0 1.80412,0.06394 2.69338,0.329695 l 0.008,0.0021 0.006,0.0041 c 2.87195,1.00131 3.02634,6.932872 3.03496,9.446969 0.11631,-0.0022 0.23418,-0.01066 0.33796,-0.02119 v -9.800953 z m -22.7304,0.0021 v 0.463021 c 1.34645,0.02266 2.90267,0.20258 2.90267,2.179712 v 12.772861 a 81.756248,19.314583 0 0 0 0.55242,-0.0217 V 90.16969 c 0,-2.457817 1.71323,-2.25148 2.9006,-2.206584 V 87.54091 c -0.54826,-0.03447 -1.27903,-0.154375 -1.76785,0.07803 l -0.01,0.0062 -0.008,0.0036 c -0.85868,0.345436 -2.0421,0.358783 -2.75384,-0.01344 -0.0366,-0.01915 -0.0851,-0.03975 -0.15038,-0.05891 -0.11913,-0.03499 -0.26873,-0.06102 -0.43718,-0.0801 0,0 -0.59052,-0.02629 -1.22887,-0.01137 z" />
    </g>
  </g>
</svg>
