<?xml version="1.0" encoding="UTF-8" standalone="no"?>
<!-- Created with Inkscape (http://www.inkscape.org/) -->

<svg
   width="210mm"
   height="297mm"
   viewBox="0 0 210 297"
   version="1.1"
   id="svg5"
   inkscape:version="1.2 (dc2aedaf03, 2022-05-15)"
   sodipodi:docname="Material design.svg"
   xmlns:inkscape="http://www.inkscape.org/namespaces/inkscape"
   xmlns:sodipodi="http://sodipodi.sourceforge.net/DTD/sodipodi-0.dtd"
   xmlns="http://www.w3.org/2000/svg"
   xmlns:svg="http://www.w3.org/2000/svg"
   xmlns:rdf="http://www.w3.org/1999/02/22-rdf-syntax-ns#"
   xmlns:cc="http://creativecommons.org/ns#"
   xmlns:dc="http://purl.org/dc/elements/1.1/">
  <title
     id="title24172">Material design by choudel</title>
  <sodipodi:namedview
     id="namedview7"
     pagecolor="#ffffff"
     bordercolor="#999999"
     borderopacity="1"
     inkscape:showpageshadow="0"
     inkscape:pageopacity="0"
     inkscape:pagecheckerboard="0"
     inkscape:deskcolor="#d1d1d1"
     inkscape:document-units="mm"
     showgrid="false"
     inkscape:zoom="0.74564394"
     inkscape:cx="309.12878"
     inkscape:cy="468.72238"
     inkscape:window-width="958"
     inkscape:window-height="1008"
     inkscape:window-x="-7"
     inkscape:window-y="0"
     inkscape:window-maximized="0"
     inkscape:current-layer="g19381" />
  <defs
     id="defs2">
    <inkscape:path-effect
       effect="spiro"
       id="path-effect7324"
       is_visible="true"
       lpeversion="1" />
    <inkscape:path-effect
       effect="spiro"
       id="path-effect6594"
       is_visible="true"
       lpeversion="1" />
    <inkscape:path-effect
       effect="spiro"
       id="path-effect6590"
       is_visible="true"
       lpeversion="1" />
    <inkscape:path-effect
       effect="spiro"
       id="path-effect6586"
       is_visible="true"
       lpeversion="1" />
    <inkscape:path-effect
       effect="spiro"
       id="path-effect6519"
       is_visible="true"
       lpeversion="1" />
    <filter
       inkscape:collect="always"
       style="color-interpolation-filters:sRGB"
       id="filter18247"
       x="-0.043715253"
       y="-0.15828675"
       width="1.0874305"
       height="1.3165735">
      <feGaussianBlur
         inkscape:collect="always"
         stdDeviation="1.1633911"
         id="feGaussianBlur18249" />
    </filter>
    <filter
       inkscape:collect="always"
       style="color-interpolation-filters:sRGB"
       id="filter18616"
       x="-0.055979238"
       y="-0.15172452"
       width="1.1119585"
       height="1.303449">
      <feGaussianBlur
         inkscape:collect="always"
         stdDeviation="1.4897717"
         id="feGaussianBlur18618" />
    </filter>
    <filter
       inkscape:collect="always"
       style="color-interpolation-filters:sRGB"
       id="filter18622"
       x="-0.0023967815"
       y="-0.0037021809"
       width="1.0047936"
       height="1.0074044">
      <feGaussianBlur
         inkscape:collect="always"
         stdDeviation="0.063785423"
         id="feGaussianBlur18624" />
    </filter>
    <filter
       inkscape:collect="always"
       style="color-interpolation-filters:sRGB"
       id="filter18628"
       x="-0.097722864"
       y="-0.20405625"
       width="1.1954457"
       height="1.4081125">
      <feGaussianBlur
         inkscape:collect="always"
         stdDeviation="1.6749906"
         id="feGaussianBlur18630" />
    </filter>
    <filter
       inkscape:collect="always"
       style="color-interpolation-filters:sRGB"
       id="filter18634"
       x="-0.040972411"
       y="-0.14134105"
       width="1.0819448"
       height="1.2826821">
      <feGaussianBlur
         inkscape:collect="always"
         stdDeviation="1.090396"
         id="feGaussianBlur18636" />
    </filter>
    <filter
       inkscape:collect="always"
       style="color-interpolation-filters:sRGB"
       id="filter18640"
       x="-0.022500126"
       y="-0.16138671"
       width="1.0450003"
       height="1.3227734">
      <feGaussianBlur
         inkscape:collect="always"
         stdDeviation="0.59879436"
         id="feGaussianBlur18642" />
    </filter>
    <filter
       inkscape:collect="always"
       style="color-interpolation-filters:sRGB"
       id="filter20111"
       x="-0.067521163"
       y="-0.10429635"
       width="1.1350423"
       height="1.2085927">
      <feGaussianBlur
         inkscape:collect="always"
         stdDeviation="1.7969373"
         id="feGaussianBlur20113" />
    </filter>
    <clipPath
       clipPathUnits="userSpaceOnUse"
       id="clipPath20895">
      <circle
         style="opacity:1;fill:#000000;fill-opacity:1;stroke:#000000;stroke-width:0.264583;stroke-opacity:1"
         id="circle20897"
         cx="100.95162"
         cy="93.145157"
         r="27.854836" />
    </clipPath>
  </defs>
  <g
     inkscape:label="Layer 1"
     inkscape:groupmode="layer"
     id="layer1">
    <rect
       style="fill:#293462;stroke-width:0.264583;fill-opacity:1"
       id="rect61"
       width="24.838709"
       height="24.129032"
       x="8.8709679"
       y="25.548388" />
    <rect
       style="fill:#f24c4c;fill-opacity:1;stroke-width:0.264583"
       id="rect1935"
       width="24.838709"
       height="24.129032"
       x="8.8709679"
       y="52.516129" />
    <rect
       style="fill:#ec9b3b;fill-opacity:1;stroke-width:0.264583"
       id="rect3443"
       width="24.838709"
       height="24.129032"
       x="8.8709679"
       y="79.838707" />
    <rect
       style="fill:#f7d716;fill-opacity:1;stroke-width:0.264583"
       id="rect4171"
       width="24.838709"
       height="24.129032"
       x="8.8709679"
       y="106.80645" />
    <g
       id="g19381"
       clip-path="url(#clipPath20895)">
      <path
         id="path18638"
         style="opacity:1;fill:#000000;fill-opacity:1;stroke-width:0.264583;filter:url(#filter18640)"
         d="M 69.54821 60.322416 L 69.54821 68.838692 C 69.82409 68.78128 70.100636 68.726062 70.3771 68.673328 C 70.653563 68.620594 70.930005 68.570112 71.207023 68.521916 C 71.484042 68.473719 71.761468 68.428256 72.039014 68.384456 C 72.31656 68.340657 72.594508 68.298943 72.872555 68.259399 C 73.150601 68.219856 73.42861 68.182173 73.707129 68.146745 C 73.985648 68.111316 74.264289 68.077947 74.543254 68.046493 C 75.101183 67.983584 75.660092 67.928467 76.219637 67.880611 C 76.779183 67.832756 77.339729 67.792068 77.900671 67.758138 C 78.461613 67.724208 79.023204 67.697103 79.585323 67.675972 C 80.147442 67.654842 80.71 67.639955 81.273075 67.630497 C 81.836151 67.621039 82.399599 67.617007 82.963411 67.618095 C 83.527224 67.619183 84.091486 67.625157 84.655815 67.635665 C 85.220144 67.646172 85.784625 67.661306 86.349251 67.680107 C 86.913877 67.698907 87.478501 67.72132 88.043205 67.747286 C 88.607908 67.773252 89.172598 67.802613 89.737158 67.834619 C 90.301719 67.866625 90.866397 67.90157 91.430595 67.938489 C 91.994793 67.975407 92.558349 68.014573 93.121965 68.055278 C 94.249196 68.136687 95.375438 68.224382 96.499019 68.314176 C 97.622601 68.403971 98.747418 68.495659 99.87349 68.584444 C 100.99956 68.673229 102.12666 68.758962 103.25416 68.837659 C 103.81791 68.877007 104.38162 68.914673 104.94553 68.949797 C 105.50944 68.98492 106.07348 69.0177 106.63742 69.047465 C 107.20136 69.07723 107.76547 69.103776 108.32931 69.127047 C 108.89314 69.150317 109.45708 69.170316 110.02067 69.185958 C 110.58427 69.2016 111.14726 69.213186 111.71049 69.220064 C 112.27372 69.226942 112.83707 69.228769 113.3998 69.225749 C 113.96252 69.222728 114.52494 69.214481 115.08703 69.200427 C 115.64913 69.186373 116.21087 69.166705 116.7722 69.140483 C 117.33353 69.11426 117.89435 69.081823 118.45479 69.042297 C 119.01522 69.002772 119.57538 68.956218 120.13479 68.902254 C 120.69419 68.848291 121.25293 68.786789 121.81117 68.717253 C 122.09029 68.682484 122.36901 68.645539 122.64781 68.606665 C 122.92661 68.567791 123.20546 68.526797 123.48394 68.483675 C 123.77373 68.4388 124.06307 68.391613 124.3521 68.342082 C 124.64113 68.29255 124.93 68.240702 125.2182 68.186536 C 125.5064 68.132369 125.7939 68.075818 126.08119 68.017037 C 126.36849 67.958256 126.65529 67.897477 126.94161 67.834102 C 127.22792 67.770728 127.51365 67.705162 127.79892 67.637215 C 128.08418 67.569268 128.36899 67.498874 128.65313 67.426375 C 128.93727 67.353876 129.22077 67.27913 129.50372 67.2021 C 129.78667 67.12507 130.06902 67.045928 130.3507 66.964388 C 130.63238 66.882848 130.91371 66.798753 131.19406 66.712724 C 131.4744 66.626695 131.75383 66.538638 132.03277 66.44814 C 132.3117 66.357643 132.58989 66.265066 132.86734 66.170121 C 133.05185 66.106984 133.23543 66.041431 133.41925 65.976335 L 133.41925 60.322416 L 69.54821 60.322416 z " />
      <path
         id="path10231"
         style="opacity:1;fill:#f7d716;fill-opacity:1;stroke-width:0.264583"
         d="M 69.54821 60.322416 L 69.54821 68.838692 C 69.82409 68.78128 70.100636 68.726062 70.3771 68.673328 C 70.653563 68.620594 70.930005 68.570112 71.207023 68.521916 C 71.484042 68.473719 71.761468 68.428256 72.039014 68.384456 C 72.31656 68.340657 72.594508 68.298943 72.872555 68.259399 C 73.150601 68.219856 73.42861 68.182173 73.707129 68.146745 C 73.985648 68.111316 74.264289 68.077947 74.543254 68.046493 C 75.101183 67.983584 75.660092 67.928467 76.219637 67.880611 C 76.779183 67.832756 77.339729 67.792068 77.900671 67.758138 C 78.461613 67.724208 79.023204 67.697103 79.585323 67.675972 C 80.147442 67.654842 80.71 67.639955 81.273075 67.630497 C 81.836151 67.621039 82.399599 67.617007 82.963411 67.618095 C 83.527224 67.619183 84.091486 67.625157 84.655815 67.635665 C 85.220144 67.646172 85.784625 67.661306 86.349251 67.680107 C 86.913877 67.698907 87.478501 67.72132 88.043205 67.747286 C 88.607908 67.773252 89.172598 67.802613 89.737158 67.834619 C 90.301719 67.866625 90.866397 67.90157 91.430595 67.938489 C 91.994793 67.975407 92.558349 68.014573 93.121965 68.055278 C 94.249196 68.136687 95.375438 68.224382 96.499019 68.314176 C 97.622601 68.403971 98.747418 68.495659 99.87349 68.584444 C 100.99956 68.673229 102.12666 68.758962 103.25416 68.837659 C 103.81791 68.877007 104.38162 68.914673 104.94553 68.949797 C 105.50944 68.98492 106.07348 69.0177 106.63742 69.047465 C 107.20136 69.07723 107.76547 69.103776 108.32931 69.127047 C 108.89314 69.150317 109.45708 69.170316 110.02067 69.185958 C 110.58427 69.2016 111.14726 69.213186 111.71049 69.220064 C 112.27372 69.226942 112.83707 69.228769 113.3998 69.225749 C 113.96252 69.222728 114.52494 69.214481 115.08703 69.200427 C 115.64913 69.186373 116.21087 69.166705 116.7722 69.140483 C 117.33353 69.11426 117.89435 69.081823 118.45479 69.042297 C 119.01522 69.002772 119.57538 68.956218 120.13479 68.902254 C 120.69419 68.848291 121.25293 68.786789 121.81117 68.717253 C 122.09029 68.682484 122.36901 68.645539 122.64781 68.606665 C 122.92661 68.567791 123.20546 68.526797 123.48394 68.483675 C 123.77373 68.4388 124.06307 68.391613 124.3521 68.342082 C 124.64113 68.29255 124.93 68.240702 125.2182 68.186536 C 125.5064 68.132369 125.7939 68.075818 126.08119 68.017037 C 126.36849 67.958256 126.65529 67.897477 126.94161 67.834102 C 127.22792 67.770728 127.51365 67.705162 127.79892 67.637215 C 128.08418 67.569268 128.36899 67.498874 128.65313 67.426375 C 128.93727 67.353876 129.22077 67.27913 129.50372 67.2021 C 129.78667 67.12507 130.06902 67.045928 130.3507 66.964388 C 130.63238 66.882848 130.91371 66.798753 131.19406 66.712724 C 131.4744 66.626695 131.75383 66.538638 132.03277 66.44814 C 132.3117 66.357643 132.58989 66.265066 132.86734 66.170121 C 133.05185 66.106984 133.23543 66.041431 133.41925 65.976335 L 133.41925 60.322416 L 69.54821 60.322416 z " />
      <path
         id="path18632"
         style="opacity:1;fill:#000000;fill-opacity:1;stroke-width:0.264583;filter:url(#filter18634)"
         d="M 133.41925 65.976335 C 133.23543 66.041431 133.05185 66.106984 132.86734 66.170121 C 132.58989 66.265066 132.3117 66.357643 132.03277 66.44814 C 131.75383 66.538638 131.4744 66.626695 131.19406 66.712724 C 130.91371 66.798753 130.63238 66.882848 130.3507 66.964388 C 130.06902 67.045928 129.78667 67.12507 129.50372 67.2021 C 129.22077 67.27913 128.93727 67.353876 128.65313 67.426375 C 128.36899 67.498874 128.08418 67.569268 127.79892 67.637215 C 127.51365 67.705162 127.22792 67.770728 126.94161 67.834102 C 126.65529 67.897477 126.36849 67.958256 126.08119 68.017037 C 125.7939 68.075818 125.5064 68.132369 125.2182 68.186536 C 124.93 68.240702 124.64113 68.29255 124.3521 68.342082 C 124.06307 68.391613 123.77373 68.4388 123.48394 68.483675 C 123.20546 68.526797 122.92661 68.567791 122.64781 68.606665 C 122.36901 68.645539 122.09029 68.682484 121.81117 68.717253 C 121.25293 68.786789 120.69419 68.848291 120.13479 68.902254 C 119.57538 68.956218 119.01522 69.002772 118.45479 69.042297 C 117.89435 69.081823 117.33353 69.11426 116.7722 69.140483 C 116.21087 69.166705 115.64913 69.186373 115.08703 69.200427 C 114.52494 69.214481 113.96252 69.222728 113.3998 69.225749 C 112.83707 69.228769 112.27372 69.226942 111.71049 69.220064 C 111.14726 69.213186 110.58427 69.2016 110.02067 69.185958 C 109.45708 69.170316 108.89314 69.150317 108.32931 69.127047 C 107.76547 69.103776 107.20136 69.07723 106.63742 69.047465 C 106.07348 69.0177 105.50944 68.98492 104.94553 68.949797 C 104.38162 68.914673 103.81791 68.877007 103.25416 68.837659 C 102.12666 68.758962 100.99956 68.673229 99.87349 68.584444 C 98.747418 68.495659 97.622601 68.403971 96.499019 68.314176 C 95.375438 68.224382 94.249196 68.136687 93.121965 68.055278 C 92.558349 68.014573 91.994793 67.975407 91.430595 67.938489 C 90.866397 67.90157 90.301719 67.866625 89.737158 67.834619 C 89.172598 67.802613 88.607908 67.773252 88.043205 67.747286 C 87.478501 67.72132 86.913877 67.698907 86.349251 67.680107 C 85.784625 67.661306 85.220144 67.646172 84.655815 67.635665 C 84.091486 67.625157 83.527224 67.619183 82.963411 67.618095 C 82.399599 67.617007 81.836151 67.621039 81.273075 67.630497 C 80.71 67.639955 80.147442 67.654842 79.585323 67.675972 C 79.023204 67.697103 78.461613 67.724208 77.900671 67.758138 C 77.339729 67.792068 76.779183 67.832756 76.219637 67.880611 C 75.660092 67.928467 75.101183 67.983584 74.543254 68.046493 C 74.264289 68.077947 73.985648 68.111316 73.707129 68.146745 C 73.42861 68.182173 73.150601 68.219856 72.872555 68.259399 C 72.594508 68.298943 72.31656 68.340657 72.039014 68.384456 C 71.761468 68.428256 71.484042 68.473719 71.207023 68.521916 C 70.930005 68.570112 70.653563 68.620594 70.3771 68.673328 C 70.100636 68.726062 69.82409 68.78128 69.54821 68.838692 L 69.54821 74.551522 C 69.559933 74.551039 69.571626 74.549929 69.58335 74.549455 C 70.020247 74.53177 70.457218 74.519577 70.894381 74.512764 C 71.331543 74.505952 71.768775 74.504533 72.205929 74.50863 C 72.643082 74.512727 73.08009 74.522524 73.51696 74.537569 C 73.95383 74.552615 74.390646 74.573032 74.826957 74.599064 C 75.263269 74.625097 75.699409 74.656574 76.134888 74.693632 C 76.570366 74.73069 77.005346 74.773151 77.439718 74.821273 C 77.874089 74.869395 78.307425 74.923279 78.740413 74.982503 C 79.173402 75.041728 79.605643 75.106441 80.036975 75.176807 C 80.468307 75.247173 80.898969 75.323154 81.328369 75.4047 C 81.75777 75.486245 82.185851 75.573419 82.613045 75.666182 C 83.04024 75.758946 83.46629 75.857234 83.891003 75.961255 C 84.315717 76.065276 84.739252 76.175118 85.16121 76.290434 C 85.643954 76.422362 86.124728 76.561275 86.603499 76.705912 C 87.082271 76.850549 87.558899 77.000991 88.03442 77.156014 C 88.509941 77.311037 88.984078 77.470417 89.457072 77.633504 C 89.930066 77.796591 90.402333 77.963354 90.873523 78.132182 C 91.815903 78.469837 92.755038 78.816442 93.694539 79.163127 C 94.634041 79.509811 95.573666 79.856423 96.516073 80.193555 C 97.329469 80.484535 98.145225 80.768665 98.963468 81.045699 C 99.781712 81.322733 100.60249 81.592433 101.42533 81.855469 C 102.24818 82.118504 103.07343 82.374911 103.90063 82.623897 C 104.72784 82.872883 105.55702 83.11455 106.38834 83.349434 C 107.21966 83.584319 108.05325 83.812381 108.88844 84.033114 C 109.48592 84.191019 110.08537 84.340843 110.68472 84.491484 C 110.73975 84.371207 110.79443 84.250833 110.85215 84.131816 C 110.93439 83.962233 111.01935 83.793877 111.10691 83.626937 C 111.19448 83.459997 111.28497 83.294521 111.3777 83.130326 C 111.47043 82.966132 111.56573 82.803331 111.66347 82.641984 C 111.76121 82.480637 111.86112 82.320824 111.96371 82.162427 C 112.0663 82.00403 112.17114 81.846999 112.27842 81.691654 C 112.3857 81.53631 112.49578 81.382373 112.6076 81.230184 C 112.71941 81.077995 112.83298 80.927464 112.94918 80.778532 C 113.06537 80.6296 113.18378 80.48227 113.3042 80.336698 C 113.42461 80.191127 113.54713 80.04731 113.67161 79.9052 C 113.7961 79.763091 113.92253 79.623099 114.05092 79.484554 C 114.17931 79.346009 114.30997 79.20912 114.44211 79.074243 C 114.57426 78.939366 114.7079 78.806409 114.84364 78.675301 C 114.97938 78.544194 115.11689 78.415083 115.25601 78.287728 C 115.39514 78.160373 115.53583 78.034618 115.67821 77.911007 C 115.82059 77.787396 115.96472 77.66553 116.11023 77.545654 C 116.25573 77.425778 116.40304 77.307821 116.55154 77.191671 C 116.70005 77.075521 116.84975 76.961489 117.00113 76.849056 C 117.1525 76.736623 117.30538 76.626019 117.4595 76.517293 C 117.61361 76.408568 117.76889 76.301409 117.92562 76.196383 C 118.08234 76.091356 118.24029 75.988177 118.39949 75.886841 C 118.5587 75.785504 118.71956 75.686323 118.88112 75.588668 C 119.04267 75.491012 119.20517 75.394814 119.36894 75.30083 C 119.53272 75.206846 119.69762 75.115199 119.86348 75.024878 C 120.02935 74.934557 120.1964 74.845928 120.36423 74.759261 C 120.53206 74.672594 120.70048 74.587518 120.87014 74.504496 C 121.0398 74.421474 121.21037 74.340486 121.38174 74.2611 C 121.72447 74.102329 122.07063 73.950629 122.4194 73.806348 C 122.62225 73.722431 122.82595 73.641358 123.03073 73.562435 C 123.23551 73.483511 123.44116 73.40692 123.64775 73.332992 C 123.85434 73.259063 124.06217 73.187466 124.27045 73.118534 C 124.47873 73.049603 124.68743 72.983513 124.89729 72.91958 C 125.10714 72.855648 125.31798 72.794027 125.52929 72.735095 C 125.7406 72.676164 125.95278 72.619525 126.16543 72.565597 C 126.37807 72.511668 126.59132 72.460524 126.80518 72.411601 C 127.01904 72.362678 127.23308 72.31599 127.44803 72.272074 C 127.66299 72.228159 127.87857 72.186957 128.09451 72.148051 C 128.31044 72.109145 128.52677 72.072909 128.74356 72.039014 C 128.96036 72.005119 129.17767 71.973327 129.3952 71.944446 C 129.61274 71.915564 129.83075 71.889247 130.04891 71.865381 C 130.26707 71.841515 130.48551 71.820151 130.70417 71.801302 C 130.92283 71.782454 131.14141 71.766038 131.36046 71.752209 C 131.5795 71.73838 131.79899 71.727427 132.0183 71.71862 C 132.23761 71.709812 132.4572 71.703283 132.67666 71.6995 C 132.89611 71.695716 133.11553 71.69464 133.33501 71.695882 C 133.3631 71.696041 133.39117 71.697191 133.41925 71.697432 L 133.41925 65.976335 z " />
      <path
         id="path10233"
         style="opacity:1;fill:#293462;fill-opacity:1;stroke-width:0.264583"
         d="M 133.41925 65.976335 C 133.23543 66.041431 133.05185 66.106984 132.86734 66.170121 C 132.58989 66.265066 132.3117 66.357643 132.03277 66.44814 C 131.75383 66.538638 131.4744 66.626695 131.19406 66.712724 C 130.91371 66.798753 130.63238 66.882848 130.3507 66.964388 C 130.06902 67.045928 129.78667 67.12507 129.50372 67.2021 C 129.22077 67.27913 128.93727 67.353876 128.65313 67.426375 C 128.36899 67.498874 128.08418 67.569268 127.79892 67.637215 C 127.51365 67.705162 127.22792 67.770728 126.94161 67.834102 C 126.65529 67.897477 126.36849 67.958256 126.08119 68.017037 C 125.7939 68.075818 125.5064 68.132369 125.2182 68.186536 C 124.93 68.240702 124.64113 68.29255 124.3521 68.342082 C 124.06307 68.391613 123.77373 68.4388 123.48394 68.483675 C 123.20546 68.526797 122.92661 68.567791 122.64781 68.606665 C 122.36901 68.645539 122.09029 68.682484 121.81117 68.717253 C 121.25293 68.786789 120.69419 68.848291 120.13479 68.902254 C 119.57538 68.956218 119.01522 69.002772 118.45479 69.042297 C 117.89435 69.081823 117.33353 69.11426 116.7722 69.140483 C 116.21087 69.166705 115.64913 69.186373 115.08703 69.200427 C 114.52494 69.214481 113.96252 69.222728 113.3998 69.225749 C 112.83707 69.228769 112.27372 69.226942 111.71049 69.220064 C 111.14726 69.213186 110.58427 69.2016 110.02067 69.185958 C 109.45708 69.170316 108.89314 69.150317 108.32931 69.127047 C 107.76547 69.103776 107.20136 69.07723 106.63742 69.047465 C 106.07348 69.0177 105.50944 68.98492 104.94553 68.949797 C 104.38162 68.914673 103.81791 68.877007 103.25416 68.837659 C 102.12666 68.758962 100.99956 68.673229 99.87349 68.584444 C 98.747418 68.495659 97.622601 68.403971 96.499019 68.314176 C 95.375438 68.224382 94.249196 68.136687 93.121965 68.055278 C 92.558349 68.014573 91.994793 67.975407 91.430595 67.938489 C 90.866397 67.90157 90.301719 67.866625 89.737158 67.834619 C 89.172598 67.802613 88.607908 67.773252 88.043205 67.747286 C 87.478501 67.72132 86.913877 67.698907 86.349251 67.680107 C 85.784625 67.661306 85.220144 67.646172 84.655815 67.635665 C 84.091486 67.625157 83.527224 67.619183 82.963411 67.618095 C 82.399599 67.617007 81.836151 67.621039 81.273075 67.630497 C 80.71 67.639955 80.147442 67.654842 79.585323 67.675972 C 79.023204 67.697103 78.461613 67.724208 77.900671 67.758138 C 77.339729 67.792068 76.779183 67.832756 76.219637 67.880611 C 75.660092 67.928467 75.101183 67.983584 74.543254 68.046493 C 74.264289 68.077947 73.985648 68.111316 73.707129 68.146745 C 73.42861 68.182173 73.150601 68.219856 72.872555 68.259399 C 72.594508 68.298943 72.31656 68.340657 72.039014 68.384456 C 71.761468 68.428256 71.484042 68.473719 71.207023 68.521916 C 70.930005 68.570112 70.653563 68.620594 70.3771 68.673328 C 70.100636 68.726062 69.82409 68.78128 69.54821 68.838692 L 69.54821 74.551522 C 69.559933 74.551039 69.571626 74.549929 69.58335 74.549455 C 70.020247 74.53177 70.457218 74.519577 70.894381 74.512764 C 71.331543 74.505952 71.768775 74.504533 72.205929 74.50863 C 72.643082 74.512727 73.08009 74.522524 73.51696 74.537569 C 73.95383 74.552615 74.390646 74.573032 74.826957 74.599064 C 75.263269 74.625097 75.699409 74.656574 76.134888 74.693632 C 76.570366 74.73069 77.005346 74.773151 77.439718 74.821273 C 77.874089 74.869395 78.307425 74.923279 78.740413 74.982503 C 79.173402 75.041728 79.605643 75.106441 80.036975 75.176807 C 80.468307 75.247173 80.898969 75.323154 81.328369 75.4047 C 81.75777 75.486245 82.185851 75.573419 82.613045 75.666182 C 83.04024 75.758946 83.46629 75.857234 83.891003 75.961255 C 84.315717 76.065276 84.739252 76.175118 85.16121 76.290434 C 85.643954 76.422362 86.124728 76.561275 86.603499 76.705912 C 87.082271 76.850549 87.558899 77.000991 88.03442 77.156014 C 88.509941 77.311037 88.984078 77.470417 89.457072 77.633504 C 89.930066 77.796591 90.402333 77.963354 90.873523 78.132182 C 91.815903 78.469837 92.755038 78.816442 93.694539 79.163127 C 94.634041 79.509811 95.573666 79.856423 96.516073 80.193555 C 97.329469 80.484535 98.145225 80.768665 98.963468 81.045699 C 99.781712 81.322733 100.60249 81.592433 101.42533 81.855469 C 102.24818 82.118504 103.07343 82.374911 103.90063 82.623897 C 104.72784 82.872883 105.55702 83.11455 106.38834 83.349434 C 107.21966 83.584319 108.05325 83.812381 108.88844 84.033114 C 109.48592 84.191019 110.08537 84.340843 110.68472 84.491484 C 110.73975 84.371207 110.79443 84.250833 110.85215 84.131816 C 110.93439 83.962233 111.01935 83.793877 111.10691 83.626937 C 111.19448 83.459997 111.28497 83.294521 111.3777 83.130326 C 111.47043 82.966132 111.56573 82.803331 111.66347 82.641984 C 111.76121 82.480637 111.86112 82.320824 111.96371 82.162427 C 112.0663 82.00403 112.17114 81.846999 112.27842 81.691654 C 112.3857 81.53631 112.49578 81.382373 112.6076 81.230184 C 112.71941 81.077995 112.83298 80.927464 112.94918 80.778532 C 113.06537 80.6296 113.18378 80.48227 113.3042 80.336698 C 113.42461 80.191127 113.54713 80.04731 113.67161 79.9052 C 113.7961 79.763091 113.92253 79.623099 114.05092 79.484554 C 114.17931 79.346009 114.30997 79.20912 114.44211 79.074243 C 114.57426 78.939366 114.7079 78.806409 114.84364 78.675301 C 114.97938 78.544194 115.11689 78.415083 115.25601 78.287728 C 115.39514 78.160373 115.53583 78.034618 115.67821 77.911007 C 115.82059 77.787396 115.96472 77.66553 116.11023 77.545654 C 116.25573 77.425778 116.40304 77.307821 116.55154 77.191671 C 116.70005 77.075521 116.84975 76.961489 117.00113 76.849056 C 117.1525 76.736623 117.30538 76.626019 117.4595 76.517293 C 117.61361 76.408568 117.76889 76.301409 117.92562 76.196383 C 118.08234 76.091356 118.24029 75.988177 118.39949 75.886841 C 118.5587 75.785504 118.71956 75.686323 118.88112 75.588668 C 119.04267 75.491012 119.20517 75.394814 119.36894 75.30083 C 119.53272 75.206846 119.69762 75.115199 119.86348 75.024878 C 120.02935 74.934557 120.1964 74.845928 120.36423 74.759261 C 120.53206 74.672594 120.70048 74.587518 120.87014 74.504496 C 121.0398 74.421474 121.21037 74.340486 121.38174 74.2611 C 121.72447 74.102329 122.07063 73.950629 122.4194 73.806348 C 122.62225 73.722431 122.82595 73.641358 123.03073 73.562435 C 123.23551 73.483511 123.44116 73.40692 123.64775 73.332992 C 123.85434 73.259063 124.06217 73.187466 124.27045 73.118534 C 124.47873 73.049603 124.68743 72.983513 124.89729 72.91958 C 125.10714 72.855648 125.31798 72.794027 125.52929 72.735095 C 125.7406 72.676164 125.95278 72.619525 126.16543 72.565597 C 126.37807 72.511668 126.59132 72.460524 126.80518 72.411601 C 127.01904 72.362678 127.23308 72.31599 127.44803 72.272074 C 127.66299 72.228159 127.87857 72.186957 128.09451 72.148051 C 128.31044 72.109145 128.52677 72.072909 128.74356 72.039014 C 128.96036 72.005119 129.17767 71.973327 129.3952 71.944446 C 129.61274 71.915564 129.83075 71.889247 130.04891 71.865381 C 130.26707 71.841515 130.48551 71.820151 130.70417 71.801302 C 130.92283 71.782454 131.14141 71.766038 131.36046 71.752209 C 131.5795 71.73838 131.79899 71.727427 132.0183 71.71862 C 132.23761 71.709812 132.4572 71.703283 132.67666 71.6995 C 132.89611 71.695716 133.11553 71.69464 133.33501 71.695882 C 133.3631 71.696041 133.39117 71.697191 133.41925 71.697432 L 133.41925 65.976335 z " />
      <path
         id="path18626"
         style="opacity:1;fill:#000000;fill-opacity:1;stroke-width:0.264583;filter:url(#filter18628)"
         d="M 69.54821 80.764579 C 69.735686 80.77822 69.923361 80.791918 70.110449 80.812638 C 70.360128 80.84029 70.6095 80.874249 70.858207 80.913924 C 71.106915 80.953599 71.354931 80.99932 71.602348 81.05035 C 71.849764 81.10138 72.096549 81.157617 72.342354 81.219332 C 72.58816 81.281047 72.832803 81.348105 73.076676 81.419836 C 73.32055 81.491568 73.563692 81.5682 73.805314 81.64928 C 74.046937 81.730359 74.28715 81.815837 74.5262 81.905595 C 74.765251 81.995353 75.003176 82.089464 75.239335 82.187231 C 75.475494 82.284999 75.710221 82.386497 75.943168 82.491606 C 76.176115 82.596714 76.40725 82.705386 76.636666 82.817167 C 76.866081 82.928948 77.093748 83.043548 77.319312 83.161332 C 77.544875 83.279116 77.768164 83.399949 77.989555 83.523067 C 78.210946 83.646185 78.430978 83.772008 78.649463 83.899788 C 78.867948 84.027568 79.084681 84.157505 79.300586 84.289429 C 79.516491 84.421352 79.73134 84.554889 79.944991 84.690438 C 80.158642 84.825987 80.371472 84.963127 80.583195 85.101782 C 81.00664 85.379093 81.426408 85.662131 81.8441 85.948759 C 82.261791 86.235387 82.677539 86.525641 83.092086 86.81744 C 83.92118 87.401037 84.746581 87.990906 85.578756 88.570304 C 85.994843 88.860003 86.41217 89.147254 86.832943 89.429683 C 87.253715 89.712112 87.677667 89.989628 88.105733 90.26064 C 88.319767 90.396147 88.535407 90.530111 88.752722 90.662166 C 88.970037 90.794222 89.189043 90.924383 89.40953 91.052323 C 89.630016 91.180264 89.852091 91.3064 90.075639 91.429561 C 90.299187 91.552722 90.524033 91.673063 90.750533 91.79078 C 90.977033 91.908496 91.205388 92.023338 91.434729 92.134945 C 91.66407 92.246552 91.894605 92.355156 92.126676 92.459989 C 92.358748 92.564822 92.5922 92.665936 92.826892 92.76333 C 93.061585 92.860724 93.297656 92.954126 93.534859 93.043416 C 93.772062 93.132707 94.010458 93.217659 94.250061 93.298181 C 94.489665 93.378703 94.730087 93.454985 94.971981 93.526074 C 95.213875 93.597163 95.457061 93.66352 95.701135 93.724512 C 95.945209 93.785503 96.190347 93.841198 96.436491 93.891427 C 96.682635 93.941655 96.929944 93.98595 97.178048 94.024752 C 97.426151 94.063553 97.675336 94.096745 97.925289 94.123454 C 98.175242 94.150163 98.426005 94.17048 98.677698 94.184432 C 98.92939 94.198384 99.181953 94.206122 99.435274 94.206653 C 99.688596 94.207178 99.942131 94.200378 100.19543 94.186499 C 100.44874 94.17262 100.70139 94.151551 100.95353 94.122937 C 101.20566 94.094323 101.45716 94.058094 101.70697 94.014417 C 101.95678 93.970739 102.20529 93.919492 102.45163 93.860421 C 102.5748 93.830885 102.69748 93.799299 102.81956 93.765853 C 102.94165 93.732407 103.06303 93.697314 103.18388 93.659916 C 103.30474 93.622519 103.4251 93.582967 103.54458 93.541577 C 103.66407 93.500187 103.78267 93.456777 103.90063 93.411353 C 104.0186 93.365928 104.13573 93.318225 104.25203 93.268726 C 104.36834 93.219226 104.48376 93.167829 104.59827 93.114213 C 104.71277 93.060597 104.82626 93.005072 104.93881 92.947298 C 105.05137 92.889525 105.16321 92.829437 105.27368 92.767464 C 105.38414 92.705492 105.49322 92.64149 105.60131 92.575228 C 105.7094 92.508966 105.81619 92.440512 105.9217 92.370072 C 106.02721 92.299633 106.13161 92.227019 106.23434 92.152515 C 106.33708 92.078011 106.43844 92.001527 106.5382 91.923071 C 106.63796 91.844615 106.73618 91.764554 106.83276 91.682259 C 106.92933 91.599964 107.0243 91.515582 107.11749 91.429561 C 107.21069 91.34354 107.30177 91.255646 107.39138 91.166012 C 107.48099 91.076377 107.5691 90.985262 107.65493 90.892126 C 107.74076 90.798991 107.82475 90.703913 107.90659 90.607389 C 107.98844 90.510866 108.0682 90.412633 108.14585 90.312834 C 108.22351 90.213035 108.29893 90.111421 108.3722 90.008459 C 108.44547 89.905498 108.51642 89.801312 108.5851 89.6953 C 108.65379 89.589289 108.72016 89.481788 108.78406 89.372839 C 108.84795 89.263891 108.90912 89.153366 108.96803 89.041593 C 109.02693 88.929821 109.0833 88.816564 109.13701 88.702079 C 109.19072 88.587595 109.24217 88.471897 109.29049 88.354814 C 109.36185 88.181882 109.42689 88.006828 109.48841 87.830298 C 109.54992 87.653768 109.60796 87.476017 109.66411 87.297514 C 109.77641 86.940508 109.88225 86.580888 110 86.225745 C 110.0594 86.046616 110.12173 85.868823 110.18707 85.691927 C 110.25241 85.515031 110.32058 85.338871 110.39171 85.164311 C 110.46284 84.98975 110.53715 84.816568 110.61392 84.644446 C 110.63681 84.593124 110.66134 84.542583 110.68472 84.491484 C 110.08537 84.340843 109.48592 84.191019 108.88844 84.033114 C 108.05325 83.812381 107.21966 83.584319 106.38834 83.349434 C 105.55702 83.11455 104.72784 82.872883 103.90063 82.623897 C 103.07343 82.374911 102.24818 82.118504 101.42533 81.855469 C 100.60249 81.592433 99.781712 81.322733 98.963468 81.045699 C 98.145225 80.768665 97.329469 80.484535 96.516073 80.193555 C 95.573666 79.856423 94.634041 79.509811 93.694539 79.163127 C 92.755038 78.816442 91.815903 78.469837 90.873523 78.132182 C 90.402333 77.963354 89.930066 77.796591 89.457072 77.633504 C 88.984078 77.470417 88.509941 77.311037 88.03442 77.156014 C 87.558899 77.000991 87.082271 76.850549 86.603499 76.705912 C 86.124728 76.561275 85.643954 76.422362 85.16121 76.290434 C 84.739252 76.175118 84.315717 76.065276 83.891003 75.961255 C 83.46629 75.857234 83.04024 75.758946 82.613045 75.666182 C 82.185851 75.573419 81.75777 75.486245 81.328369 75.4047 C 80.898969 75.323154 80.468307 75.247173 80.036975 75.176807 C 79.605643 75.106441 79.173402 75.041728 78.740413 74.982503 C 78.307425 74.923279 77.874089 74.869395 77.439718 74.821273 C 77.005346 74.773151 76.570366 74.73069 76.134888 74.693632 C 75.699409 74.656574 75.263269 74.625097 74.826957 74.599064 C 74.390646 74.573032 73.95383 74.552615 73.51696 74.537569 C 73.08009 74.522524 72.643082 74.512727 72.205929 74.50863 C 71.768775 74.504533 71.331543 74.505952 70.894381 74.512764 C 70.457218 74.519577 70.020247 74.53177 69.58335 74.549455 C 69.571626 74.549929 69.559933 74.551039 69.54821 74.551522 L 69.54821 80.764579 z " />
      <path
         id="rect4225"
         style="opacity:1;fill:#f24c4c;fill-opacity:1;stroke-width:0.264583"
         d="M 69.54821 80.764579 C 69.735686 80.77822 69.923361 80.791918 70.110449 80.812638 C 70.360128 80.84029 70.6095 80.874249 70.858207 80.913924 C 71.106915 80.953599 71.354931 80.99932 71.602348 81.05035 C 71.849764 81.10138 72.096549 81.157617 72.342354 81.219332 C 72.58816 81.281047 72.832803 81.348105 73.076676 81.419836 C 73.32055 81.491568 73.563692 81.5682 73.805314 81.64928 C 74.046937 81.730359 74.28715 81.815837 74.5262 81.905595 C 74.765251 81.995353 75.003176 82.089464 75.239335 82.187231 C 75.475494 82.284999 75.710221 82.386497 75.943168 82.491606 C 76.176115 82.596714 76.40725 82.705386 76.636666 82.817167 C 76.866081 82.928948 77.093748 83.043548 77.319312 83.161332 C 77.544875 83.279116 77.768164 83.399949 77.989555 83.523067 C 78.210946 83.646185 78.430978 83.772008 78.649463 83.899788 C 78.867948 84.027568 79.084681 84.157505 79.300586 84.289429 C 79.516491 84.421352 79.73134 84.554889 79.944991 84.690438 C 80.158642 84.825987 80.371472 84.963127 80.583195 85.101782 C 81.00664 85.379093 81.426408 85.662131 81.8441 85.948759 C 82.261791 86.235387 82.677539 86.525641 83.092086 86.81744 C 83.92118 87.401037 84.746581 87.990906 85.578756 88.570304 C 85.994843 88.860003 86.41217 89.147254 86.832943 89.429683 C 87.253715 89.712112 87.677667 89.989628 88.105733 90.26064 C 88.319767 90.396147 88.535407 90.530111 88.752722 90.662166 C 88.970037 90.794222 89.189043 90.924383 89.40953 91.052323 C 89.630016 91.180264 89.852091 91.3064 90.075639 91.429561 C 90.299187 91.552722 90.524033 91.673063 90.750533 91.79078 C 90.977033 91.908496 91.205388 92.023338 91.434729 92.134945 C 91.66407 92.246552 91.894605 92.355156 92.126676 92.459989 C 92.358748 92.564822 92.5922 92.665936 92.826892 92.76333 C 93.061585 92.860724 93.297656 92.954126 93.534859 93.043416 C 93.772062 93.132707 94.010458 93.217659 94.250061 93.298181 C 94.489665 93.378703 94.730087 93.454985 94.971981 93.526074 C 95.213875 93.597163 95.457061 93.66352 95.701135 93.724512 C 95.945209 93.785503 96.190347 93.841198 96.436491 93.891427 C 96.682635 93.941655 96.929944 93.98595 97.178048 94.024752 C 97.426151 94.063553 97.675336 94.096745 97.925289 94.123454 C 98.175242 94.150163 98.426005 94.17048 98.677698 94.184432 C 98.92939 94.198384 99.181953 94.206122 99.435274 94.206653 C 99.688596 94.207178 99.942131 94.200378 100.19543 94.186499 C 100.44874 94.17262 100.70139 94.151551 100.95353 94.122937 C 101.20566 94.094323 101.45716 94.058094 101.70697 94.014417 C 101.95678 93.970739 102.20529 93.919492 102.45163 93.860421 C 102.5748 93.830885 102.69748 93.799299 102.81956 93.765853 C 102.94165 93.732407 103.06303 93.697314 103.18388 93.659916 C 103.30474 93.622519 103.4251 93.582967 103.54458 93.541577 C 103.66407 93.500187 103.78267 93.456777 103.90063 93.411353 C 104.0186 93.365928 104.13573 93.318225 104.25203 93.268726 C 104.36834 93.219226 104.48376 93.167829 104.59827 93.114213 C 104.71277 93.060597 104.82626 93.005072 104.93881 92.947298 C 105.05137 92.889525 105.16321 92.829437 105.27368 92.767464 C 105.38414 92.705492 105.49322 92.64149 105.60131 92.575228 C 105.7094 92.508966 105.81619 92.440512 105.9217 92.370072 C 106.02721 92.299633 106.13161 92.227019 106.23434 92.152515 C 106.33708 92.078011 106.43844 92.001527 106.5382 91.923071 C 106.63796 91.844615 106.73618 91.764554 106.83276 91.682259 C 106.92933 91.599964 107.0243 91.515582 107.11749 91.429561 C 107.21069 91.34354 107.30177 91.255646 107.39138 91.166012 C 107.48099 91.076377 107.5691 90.985262 107.65493 90.892126 C 107.74076 90.798991 107.82475 90.703913 107.90659 90.607389 C 107.98844 90.510866 108.0682 90.412633 108.14585 90.312834 C 108.22351 90.213035 108.29893 90.111421 108.3722 90.008459 C 108.44547 89.905498 108.51642 89.801312 108.5851 89.6953 C 108.65379 89.589289 108.72016 89.481788 108.78406 89.372839 C 108.84795 89.263891 108.90912 89.153366 108.96803 89.041593 C 109.02693 88.929821 109.0833 88.816564 109.13701 88.702079 C 109.19072 88.587595 109.24217 88.471897 109.29049 88.354814 C 109.36185 88.181882 109.42689 88.006828 109.48841 87.830298 C 109.54992 87.653768 109.60796 87.476017 109.66411 87.297514 C 109.77641 86.940508 109.88225 86.580888 110 86.225745 C 110.0594 86.046616 110.12173 85.868823 110.18707 85.691927 C 110.25241 85.515031 110.32058 85.338871 110.39171 85.164311 C 110.46284 84.98975 110.53715 84.816568 110.61392 84.644446 C 110.63681 84.593124 110.66134 84.542583 110.68472 84.491484 C 110.08537 84.340843 109.48592 84.191019 108.88844 84.033114 C 108.05325 83.812381 107.21966 83.584319 106.38834 83.349434 C 105.55702 83.11455 104.72784 82.872883 103.90063 82.623897 C 103.07343 82.374911 102.24818 82.118504 101.42533 81.855469 C 100.60249 81.592433 99.781712 81.322733 98.963468 81.045699 C 98.145225 80.768665 97.329469 80.484535 96.516073 80.193555 C 95.573666 79.856423 94.634041 79.509811 93.694539 79.163127 C 92.755038 78.816442 91.815903 78.469837 90.873523 78.132182 C 90.402333 77.963354 89.930066 77.796591 89.457072 77.633504 C 88.984078 77.470417 88.509941 77.311037 88.03442 77.156014 C 87.558899 77.000991 87.082271 76.850549 86.603499 76.705912 C 86.124728 76.561275 85.643954 76.422362 85.16121 76.290434 C 84.739252 76.175118 84.315717 76.065276 83.891003 75.961255 C 83.46629 75.857234 83.04024 75.758946 82.613045 75.666182 C 82.185851 75.573419 81.75777 75.486245 81.328369 75.4047 C 80.898969 75.323154 80.468307 75.247173 80.036975 75.176807 C 79.605643 75.106441 79.173402 75.041728 78.740413 74.982503 C 78.307425 74.923279 77.874089 74.869395 77.439718 74.821273 C 77.005346 74.773151 76.570366 74.73069 76.134888 74.693632 C 75.699409 74.656574 75.263269 74.625097 74.826957 74.599064 C 74.390646 74.573032 73.95383 74.552615 73.51696 74.537569 C 73.08009 74.522524 72.643082 74.512727 72.205929 74.50863 C 71.768775 74.504533 71.331543 74.505952 70.894381 74.512764 C 70.457218 74.519577 70.020247 74.53177 69.58335 74.549455 C 69.571626 74.549929 69.559933 74.551039 69.54821 74.551522 L 69.54821 80.764579 z " />
      <path
         id="path19746"
         style="opacity:1;fill:#000000;fill-opacity:1;stroke-width:0.264583;filter:url(#filter20111)"
         d="m 133.41925,71.697432 c -0.0281,-2.41e-4 -0.0562,-0.0014 -0.0842,-0.0016 -0.21948,-0.0012 -0.4389,-1.66e-4 -0.65835,0.0036 -0.21946,0.0038 -0.43905,0.01031 -0.65836,0.01912 -0.21931,0.0088 -0.4388,0.01976 -0.65784,0.03359 -0.21905,0.01383 -0.43763,0.03025 -0.65629,0.04909 -0.21866,0.01885 -0.4371,0.04021 -0.65526,0.06408 -0.21816,0.02387 -0.43617,0.05018 -0.65371,0.07906 -0.21753,0.02888 -0.43484,0.06067 -0.65164,0.09457 -0.21679,0.0339 -0.43312,0.07013 -0.64905,0.109037 -0.21594,0.03891 -0.43152,0.08011 -0.64648,0.124023 -0.21495,0.04392 -0.42899,0.0906 -0.64285,0.139527 -0.21386,0.04892 -0.42711,0.100067 -0.63975,0.153996 -0.21265,0.05393 -0.42483,0.110567 -0.63614,0.169498 -0.21131,0.05893 -0.42215,0.120553 -0.632,0.184485 -0.20986,0.06393 -0.41856,0.130023 -0.62684,0.198954 -0.20828,0.06893 -0.41611,0.140529 -0.6227,0.214458 -0.20659,0.07393 -0.41224,0.150519 -0.61702,0.229443 -0.20478,0.07892 -0.40848,0.159996 -0.61133,0.243913 -0.34877,0.144281 -0.69493,0.295981 -1.03766,0.454752 -0.17137,0.07939 -0.34194,0.160374 -0.5116,0.243396 -0.16966,0.08302 -0.33808,0.168098 -0.50591,0.254765 -0.16783,0.08667 -0.33488,0.175296 -0.50075,0.265617 -0.16586,0.09032 -0.33076,0.181968 -0.49454,0.275952 -0.16377,0.09398 -0.32627,0.190182 -0.48782,0.287838 -0.16156,0.09766 -0.32242,0.196836 -0.48163,0.298173 -0.1592,0.101336 -0.31715,0.204515 -0.47387,0.309542 -0.15673,0.105026 -0.31201,0.212185 -0.46612,0.32091 -0.15412,0.108726 -0.307,0.21933 -0.45837,0.331763 -0.15138,0.112433 -0.30108,0.226465 -0.44959,0.342615 -0.1485,0.11615 -0.29581,0.234107 -0.44131,0.353983 -0.14551,0.119876 -0.28964,0.241742 -0.43202,0.365353 -0.14238,0.123611 -0.28307,0.249366 -0.4222,0.376721 -0.13912,0.127355 -0.27663,0.256466 -0.41237,0.387573 -0.13574,0.131108 -0.26938,0.264065 -0.40153,0.398942 -0.13214,0.134877 -0.2628,0.271766 -0.39119,0.410311 -0.12839,0.138545 -0.25482,0.278537 -0.37931,0.420646 -0.12448,0.14211 -0.247,0.285927 -0.36741,0.431498 -0.12042,0.145572 -0.23883,0.292902 -0.35502,0.441834 -0.1162,0.148932 -0.22977,0.299463 -0.34158,0.451652 -0.11182,0.152189 -0.2219,0.306126 -0.32918,0.46147 -0.10728,0.155345 -0.21212,0.312376 -0.31471,0.470773 -0.10259,0.158397 -0.2025,0.31821 -0.30024,0.479557 -0.0977,0.161347 -0.19304,0.324148 -0.28577,0.488342 -0.0927,0.164195 -0.18322,0.329671 -0.27079,0.496611 -0.0876,0.16694 -0.17252,0.335296 -0.25476,0.504879 -0.0577,0.119017 -0.1124,0.239391 -0.16743,0.359668 0.23846,0.05994 0.47593,0.123633 0.71468,0.182417 0.83882,0.206529 1.67909,0.40614 2.52129,0.598413 0.84221,0.192274 1.68629,0.377038 2.53163,0.555005 0.84535,0.177968 1.69218,0.349021 2.54042,0.512631 0.84824,0.163609 1.69779,0.320021 2.54868,0.469222 0.85089,0.1492 1.70313,0.291074 2.55643,0.425813 0.8533,0.13474 1.70769,0.262178 2.56315,0.382406 0.85546,0.120228 1.71197,0.233333 2.56935,0.338997 0.85739,0.105665 1.71547,0.204023 2.57452,0.295073 0.5376,0.05698 1.0762,0.105857 1.61438,0.157096 z m 0,16.711125 c -0.53818,-0.05124 -1.07678,-0.100118 -1.61438,-0.157096 -0.85905,-0.09105 -1.71713,-0.189408 -2.57452,-0.295073 -0.85738,-0.105664 -1.71389,-0.218769 -2.56935,-0.338997 -0.85546,-0.120228 -1.70985,-0.247666 -2.56315,-0.382406 -0.8533,-0.134739 -1.70554,-0.276613 -2.55643,-0.425813 -0.85089,-0.149201 -1.70044,-0.305613 -2.54868,-0.469222 -0.84824,-0.16361 -1.69507,-0.334663 -2.54042,-0.512631 -0.84534,-0.177967 -1.68942,-0.362731 -2.53163,-0.555005 -0.8422,-0.192273 -1.68247,-0.391884 -2.52129,-0.598413 -0.23875,-0.05878 -0.47622,-0.122481 -0.71468,-0.182417 -0.0234,0.0511 -0.0479,0.10164 -0.0708,0.152962 -0.0768,0.172122 -0.15108,0.345304 -0.22221,0.519865 -0.0711,0.17456 -0.1393,0.35072 -0.20464,0.527616 -0.0653,0.176896 -0.12767,0.354689 -0.18707,0.533818 -0.11775,0.355143 -0.22359,0.714763 -0.33589,1.071769 -0.0561,0.178503 -0.11419,0.356254 -0.1757,0.532784 -0.0615,0.17653 -0.12656,0.351584 -0.19792,0.524516 -0.0483,0.117083 -0.0998,0.232781 -0.15348,0.347265 -0.0537,0.114485 -0.11008,0.227742 -0.16898,0.339514 -0.0589,0.111773 -0.12008,0.222298 -0.18397,0.331246 -0.0639,0.108949 -0.13027,0.21645 -0.19896,0.322461 -0.0687,0.106012 -0.13963,0.210198 -0.2129,0.313159 -0.0733,0.102962 -0.14869,0.204576 -0.22635,0.304375 -0.0776,0.0998 -0.15741,0.198032 -0.23926,0.294555 -0.0818,0.09652 -0.16583,0.191602 -0.25166,0.284737 -0.0858,0.09314 -0.17394,0.184251 -0.26355,0.273886 -0.0896,0.08963 -0.18069,0.177528 -0.27389,0.263549 -0.0932,0.08602 -0.18816,0.170403 -0.28473,0.252698 -0.0966,0.0823 -0.1948,0.162356 -0.29456,0.240812 -0.0998,0.07846 -0.20112,0.15494 -0.30386,0.229444 -0.10273,0.0745 -0.20713,0.147118 -0.31264,0.217557 -0.10551,0.07044 -0.2123,0.138894 -0.32039,0.205156 -0.10809,0.06626 -0.21717,0.130264 -0.32763,0.192236 -0.11047,0.06197 -0.22231,0.122061 -0.33487,0.179834 -0.11255,0.05777 -0.22604,0.113299 -0.34054,0.166915 -0.11451,0.05362 -0.22993,0.105013 -0.34624,0.154513 -0.1163,0.0495 -0.23343,0.0972 -0.3514,0.142627 -0.11796,0.04542 -0.23656,0.08883 -0.35605,0.130224 -0.11948,0.04139 -0.23984,0.08094 -0.3607,0.118339 -0.12085,0.0374 -0.24223,0.07249 -0.36432,0.105937 -0.12208,0.03345 -0.24476,0.06503 -0.36793,0.09457 -0.24634,0.05907 -0.49485,0.110318 -0.74466,0.153996 -0.24981,0.04368 -0.50131,0.07991 -0.75344,0.10852 -0.25214,0.02861 -0.50479,0.04968 -0.7581,0.06356 -0.253299,0.01388 -0.506834,0.02068 -0.760156,0.02015 -0.253321,-5.31e-4 -0.505884,-0.0083 -0.757576,-0.02222 -0.251693,-0.01395 -0.502456,-0.03427 -0.752409,-0.06098 -0.249953,-0.02671 -0.499138,-0.0599 -0.747241,-0.0987 -0.248104,-0.0388 -0.495413,-0.0831 -0.741557,-0.133325 -0.246144,-0.05023 -0.491282,-0.105924 -0.735356,-0.166915 -0.244074,-0.06099 -0.48726,-0.127349 -0.729154,-0.198438 -0.241894,-0.07109 -0.482316,-0.147371 -0.72192,-0.227893 -0.239603,-0.08052 -0.477999,-0.165474 -0.715202,-0.254765 C 93.297656,92.954126 93.061585,92.860724 92.826892,92.76333 92.5922,92.665936 92.358748,92.564822 92.126676,92.459989 91.894605,92.355156 91.66407,92.246552 91.434729,92.134945 91.205388,92.023338 90.977033,91.908496 90.750533,91.79078 90.524033,91.673063 90.299187,91.552722 90.075639,91.429561 89.852091,91.3064 89.630016,91.180264 89.40953,91.052323 89.189043,90.924383 88.970037,90.794222 88.752722,90.662166 88.535407,90.530111 88.319767,90.396147 88.105733,90.26064 87.677667,89.989628 87.253715,89.712112 86.832943,89.429683 86.41217,89.147254 85.994843,88.860003 85.578756,88.570304 84.746581,87.990906 83.92118,87.401037 83.092086,86.81744 82.677539,86.525641 82.261791,86.235387 81.8441,85.948759 81.426408,85.662131 81.00664,85.379093 80.583195,85.101782 80.371472,84.963127 80.158642,84.825987 79.944991,84.690438 79.73134,84.554889 79.516491,84.421352 79.300586,84.289429 79.084681,84.157505 78.867948,84.027568 78.649463,83.899788 78.430978,83.772008 78.210946,83.646185 77.989555,83.523067 77.768164,83.399949 77.544875,83.279116 77.319312,83.161332 77.093748,83.043548 76.866081,82.928948 76.636666,82.817167 76.40725,82.705386 76.176115,82.596714 75.943168,82.491606 75.710221,82.386497 75.475494,82.284999 75.239335,82.187231 75.003176,82.089464 74.765251,81.995353 74.5262,81.905595 74.28715,81.815837 74.046937,81.730359 73.805314,81.64928 73.563692,81.5682 73.32055,81.491568 73.076676,81.419836 72.832803,81.348105 72.58816,81.281047 72.342354,81.219332 72.096549,81.157617 71.849764,81.10138 71.602348,81.05035 71.354931,80.99932 71.106915,80.953599 70.858207,80.913924 70.6095,80.874249 70.360128,80.84029 70.110449,80.812638 69.923361,80.791918 69.735686,80.77822 69.54821,80.764579 v 17.156059 c 0.05031,-5.4e-4 0.100572,-0.0035 0.150895,-0.0036 0.288505,-9.34e-4 0.576815,0.0043 0.86558,0.0155 0.288765,0.01121 0.577522,0.02872 0.866097,0.05168 0.288575,0.02295 0.577129,0.0515 0.865064,0.08578 0.287934,0.03429 0.575636,0.07416 0.862479,0.119372 0.286844,0.04521 0.573044,0.09569 0.858346,0.151412 0.285302,0.05572 0.569351,0.116593 0.852661,0.182418 0.28331,0.06583 0.565592,0.136869 0.84646,0.21239 0.280867,0.07552 0.560734,0.155488 0.838708,0.240296 0.277975,0.08481 0.554259,0.173998 0.82889,0.267684 0.274631,0.09368 0.547201,0.191884 0.818038,0.294039 0.270837,0.102154 0.540329,0.208026 0.807703,0.31781 0.267374,0.109783 0.532828,0.223526 0.79685,0.340546 0.264023,0.11702 0.52625,0.23735 0.787033,0.36122 0.260782,0.12387 0.520075,0.25105 0.77773,0.38137 0.257654,0.13033 0.513791,0.2641 0.768428,0.40049 0.254638,0.1364 0.507912,0.27548 0.759644,0.41755 0.251732,0.14207 0.501921,0.28725 0.750858,0.4346 0.248938,0.14735 0.496336,0.29682 0.742591,0.44907 0.246255,0.15224 0.491155,0.30679 0.734839,0.46353 0.243684,0.15675 0.486379,0.31612 0.727604,0.47698 0.241224,0.16085 0.480976,0.32325 0.719853,0.48782 0.238876,0.16458 0.477012,0.3313 0.713651,0.4992 0.473279,0.3358 0.942149,0.67746 1.407149,1.02422 0.465,0.34677 0.925765,0.69857 1.383378,1.05317 0.457613,0.3546 0.912615,0.71288 1.365809,1.07332 0.453193,0.36044 0.904797,0.72301 1.355472,1.08675 0.901351,0.72749 1.799469,1.45892 2.702161,2.18437 0.451346,0.36272 0.904039,0.7237 1.358573,1.0821 0.41529,0.32746 0.83265,0.65176 1.25212,0.97359 0.0065,-3.3e-4 0.01309,-7.1e-4 0.01964,-0.001 0.328302,-0.0166 0.656406,-0.0353 0.984436,-0.0563 0.328031,-0.0211 0.656224,-0.0442 0.983923,-0.0698 0.32769,-0.0255 0.65507,-0.0532 0.98237,-0.0832 0.32729,-0.03 0.6545,-0.0622 0.98133,-0.0966 0.32684,-0.0345 0.65348,-0.0711 0.97979,-0.11007 0.32631,-0.0389 0.65199,-0.0801 0.97771,-0.12351 0.32573,-0.0434 0.6511,-0.0891 0.97617,-0.13694 0.32507,-0.0479 0.65026,-0.098 0.97462,-0.15038 0.32435,-0.0523 0.64794,-0.10699 0.97152,-0.16381 0.32357,-0.0568 0.64671,-0.11595 0.96945,-0.17725 0.32273,-0.0613 0.64503,-0.12491 0.96686,-0.19069 0.32183,-0.0658 0.64343,-0.13386 0.96428,-0.20412 0.32086,-0.0703 0.64136,-0.1423 0.96119,-0.21704 0.31982,-0.0747 0.63883,-0.15178 0.95756,-0.231 0.31873,-0.0792 0.63689,-0.16072 0.95446,-0.24443 0.31758,-0.0837 0.6345,-0.16968 0.95085,-0.25786 0.31635,-0.0882 0.63217,-0.17863 0.94723,-0.2713 0.31506,-0.0927 0.62938,-0.18758 0.94309,-0.28474 0.31372,-0.0972 0.62667,-0.19653 0.93897,-0.29817 0.31229,-0.10165 0.624,-0.20548 0.93482,-0.31161 0.31082,-0.10613 0.6209,-0.21443 0.93018,-0.32505 0.30928,-0.11062 0.61785,-0.22389 0.92552,-0.33899 0.30768,-0.11511 0.61435,-0.23232 0.92036,-0.35192 0.30601,-0.1196 0.61143,-0.24126 0.91571,-0.36535 0.30428,-0.1241 0.60753,-0.25072 0.91002,-0.37931 0.30248,-0.12858 0.60423,-0.25914 0.90485,-0.39222 0.30063,-0.13308 0.60047,-0.2686 0.89917,-0.40618 0.40381,-0.18598 0.80544,-0.37582 1.20561,-0.56947 0.40018,-0.19366 0.79887,-0.39098 1.19528,-0.59222 0.39641,-0.20123 0.79087,-0.40621 1.18339,-0.61495 0.39252,-0.20873 0.78302,-0.42154 1.1715,-0.63768 0.38849,-0.21614 0.77478,-0.43594 1.15911,-0.65939 0.38433,-0.22346 0.76666,-0.45041 1.1467,-0.6811 0.38003,-0.23069 0.75766,-0.46497 1.13326,-0.7028 0.37561,-0.23783 0.7493,-0.4791 1.12035,-0.72399 0.089,-0.0587 0.17639,-0.11967 0.2651,-0.1788 z" />
      <path
         id="path18620"
         style="opacity:1;fill:#000000;fill-opacity:1;stroke-width:0.264583;filter:url(#filter18622)"
         d="m 133.41925,71.697432 c -0.0281,-2.41e-4 -0.0562,-0.0014 -0.0842,-0.0016 -0.21948,-0.0012 -0.4389,-1.66e-4 -0.65835,0.0036 -0.21946,0.0038 -0.43905,0.01031 -0.65836,0.01912 -0.21931,0.0088 -0.4388,0.01976 -0.65784,0.03359 -0.21905,0.01383 -0.43763,0.03025 -0.65629,0.04909 -0.21866,0.01885 -0.4371,0.04021 -0.65526,0.06408 -0.21816,0.02387 -0.43617,0.05018 -0.65371,0.07906 -0.21753,0.02888 -0.43484,0.06067 -0.65164,0.09457 -0.21679,0.0339 -0.43312,0.07013 -0.64905,0.109037 -0.21594,0.03891 -0.43152,0.08011 -0.64648,0.124023 -0.21495,0.04392 -0.42899,0.0906 -0.64285,0.139527 -0.21386,0.04892 -0.42711,0.100067 -0.63975,0.153996 -0.21265,0.05393 -0.42483,0.110567 -0.63614,0.169498 -0.21131,0.05893 -0.42215,0.120553 -0.632,0.184485 -0.20986,0.06393 -0.41856,0.130023 -0.62684,0.198954 -0.20828,0.06893 -0.41611,0.140529 -0.6227,0.214458 -0.20659,0.07393 -0.41224,0.150519 -0.61702,0.229443 -0.20478,0.07892 -0.40848,0.159996 -0.61133,0.243913 -0.34877,0.144281 -0.69493,0.295981 -1.03766,0.454752 -0.17137,0.07939 -0.34194,0.160374 -0.5116,0.243396 -0.16966,0.08302 -0.33808,0.168098 -0.50591,0.254765 -0.16783,0.08667 -0.33488,0.175296 -0.50075,0.265617 -0.16586,0.09032 -0.33076,0.181968 -0.49454,0.275952 -0.16377,0.09398 -0.32627,0.190182 -0.48782,0.287838 -0.16156,0.09766 -0.32242,0.196836 -0.48163,0.298173 -0.1592,0.101336 -0.31715,0.204515 -0.47387,0.309542 -0.15673,0.105026 -0.31201,0.212185 -0.46612,0.32091 -0.15412,0.108726 -0.307,0.21933 -0.45837,0.331763 -0.15138,0.112433 -0.30108,0.226465 -0.44959,0.342615 -0.1485,0.11615 -0.29581,0.234107 -0.44131,0.353983 -0.14551,0.119876 -0.28964,0.241742 -0.43202,0.365353 -0.14238,0.123611 -0.28307,0.249366 -0.4222,0.376721 -0.13912,0.127355 -0.27663,0.256466 -0.41237,0.387573 -0.13574,0.131108 -0.26938,0.264065 -0.40153,0.398942 -0.13214,0.134877 -0.2628,0.271766 -0.39119,0.410311 -0.12839,0.138545 -0.25482,0.278537 -0.37931,0.420646 -0.12448,0.14211 -0.247,0.285927 -0.36741,0.431498 -0.12042,0.145572 -0.23883,0.292902 -0.35502,0.441834 -0.1162,0.148932 -0.22977,0.299463 -0.34158,0.451652 -0.11182,0.152189 -0.2219,0.306126 -0.32918,0.46147 -0.10728,0.155345 -0.21212,0.312376 -0.31471,0.470773 -0.10259,0.158397 -0.2025,0.31821 -0.30024,0.479557 -0.0977,0.161347 -0.19304,0.324148 -0.28577,0.488342 -0.0927,0.164195 -0.18322,0.329671 -0.27079,0.496611 -0.0876,0.16694 -0.17252,0.335296 -0.25476,0.504879 -0.0577,0.119017 -0.1124,0.239391 -0.16743,0.359668 0.23846,0.05994 0.47593,0.123633 0.71468,0.182417 0.83882,0.206529 1.67909,0.40614 2.52129,0.598413 0.84221,0.192274 1.68629,0.377038 2.53163,0.555005 0.84535,0.177968 1.69218,0.349021 2.54042,0.512631 0.84824,0.163609 1.69779,0.320021 2.54868,0.469222 0.85089,0.1492 1.70313,0.291074 2.55643,0.425813 0.8533,0.13474 1.70769,0.262178 2.56315,0.382406 0.85546,0.120228 1.71197,0.233333 2.56935,0.338997 0.85739,0.105665 1.71547,0.204023 2.57452,0.295073 0.5376,0.05698 1.0762,0.105857 1.61438,0.157096 z m 0,16.711125 c -0.53818,-0.05124 -1.07678,-0.100118 -1.61438,-0.157096 -0.85905,-0.09105 -1.71713,-0.189408 -2.57452,-0.295073 -0.85738,-0.105664 -1.71389,-0.218769 -2.56935,-0.338997 -0.85546,-0.120228 -1.70985,-0.247666 -2.56315,-0.382406 -0.8533,-0.134739 -1.70554,-0.276613 -2.55643,-0.425813 -0.85089,-0.149201 -1.70044,-0.305613 -2.54868,-0.469222 -0.84824,-0.16361 -1.69507,-0.334663 -2.54042,-0.512631 -0.84534,-0.177967 -1.68942,-0.362731 -2.53163,-0.555005 -0.8422,-0.192273 -1.68247,-0.391884 -2.52129,-0.598413 -0.23875,-0.05878 -0.47622,-0.122481 -0.71468,-0.182417 -0.0234,0.0511 -0.0479,0.10164 -0.0708,0.152962 -0.0768,0.172122 -0.15108,0.345304 -0.22221,0.519865 -0.0711,0.17456 -0.1393,0.35072 -0.20464,0.527616 -0.0653,0.176896 -0.12767,0.354689 -0.18707,0.533818 -0.11775,0.355143 -0.22359,0.714763 -0.33589,1.071769 -0.0561,0.178503 -0.11419,0.356254 -0.1757,0.532784 -0.0615,0.17653 -0.12656,0.351584 -0.19792,0.524516 -0.0483,0.117083 -0.0998,0.232781 -0.15348,0.347265 -0.0537,0.114485 -0.11008,0.227742 -0.16898,0.339514 -0.0589,0.111773 -0.12008,0.222298 -0.18397,0.331246 -0.0639,0.108949 -0.13027,0.21645 -0.19896,0.322461 -0.0687,0.106012 -0.13963,0.210198 -0.2129,0.313159 -0.0733,0.102962 -0.14869,0.204576 -0.22635,0.304375 -0.0776,0.0998 -0.15741,0.198032 -0.23926,0.294555 -0.0818,0.09652 -0.16583,0.191602 -0.25166,0.284737 -0.0858,0.09314 -0.17394,0.184251 -0.26355,0.273886 -0.0896,0.08963 -0.18069,0.177528 -0.27389,0.263549 -0.0932,0.08602 -0.18816,0.170403 -0.28473,0.252698 -0.0966,0.0823 -0.1948,0.162356 -0.29456,0.240812 -0.0998,0.07846 -0.20112,0.15494 -0.30386,0.229444 -0.10273,0.0745 -0.20713,0.147118 -0.31264,0.217557 -0.10551,0.07044 -0.2123,0.138894 -0.32039,0.205156 -0.10809,0.06626 -0.21717,0.130264 -0.32763,0.192236 -0.11047,0.06197 -0.22231,0.122061 -0.33487,0.179834 -0.11255,0.05777 -0.22604,0.113299 -0.34054,0.166915 -0.11451,0.05362 -0.22993,0.105013 -0.34624,0.154513 -0.1163,0.0495 -0.23343,0.0972 -0.3514,0.142627 -0.11796,0.04542 -0.23656,0.08883 -0.35605,0.130224 -0.11948,0.04139 -0.23984,0.08094 -0.3607,0.118339 -0.12085,0.0374 -0.24223,0.07249 -0.36432,0.105937 -0.12208,0.03345 -0.24476,0.06503 -0.36793,0.09457 -0.24634,0.05907 -0.49485,0.110318 -0.74466,0.153996 -0.24981,0.04368 -0.50131,0.07991 -0.75344,0.10852 -0.25214,0.02861 -0.50479,0.04968 -0.7581,0.06356 -0.253299,0.01388 -0.506834,0.02068 -0.760156,0.02015 -0.253321,-5.31e-4 -0.505884,-0.0083 -0.757576,-0.02222 -0.251693,-0.01395 -0.502456,-0.03427 -0.752409,-0.06098 -0.249953,-0.02671 -0.499138,-0.0599 -0.747241,-0.0987 -0.248104,-0.0388 -0.495413,-0.0831 -0.741557,-0.133325 -0.246144,-0.05023 -0.491282,-0.105924 -0.735356,-0.166915 -0.244074,-0.06099 -0.48726,-0.127349 -0.729154,-0.198438 -0.241894,-0.07109 -0.482316,-0.147371 -0.72192,-0.227893 -0.239603,-0.08052 -0.477999,-0.165474 -0.715202,-0.254765 C 93.297656,92.954126 93.061585,92.860724 92.826892,92.76333 92.5922,92.665936 92.358748,92.564822 92.126676,92.459989 91.894605,92.355156 91.66407,92.246552 91.434729,92.134945 91.205388,92.023338 90.977033,91.908496 90.750533,91.79078 90.524033,91.673063 90.299187,91.552722 90.075639,91.429561 89.852091,91.3064 89.630016,91.180264 89.40953,91.052323 89.189043,90.924383 88.970037,90.794222 88.752722,90.662166 88.535407,90.530111 88.319767,90.396147 88.105733,90.26064 87.677667,89.989628 87.253715,89.712112 86.832943,89.429683 86.41217,89.147254 85.994843,88.860003 85.578756,88.570304 84.746581,87.990906 83.92118,87.401037 83.092086,86.81744 82.677539,86.525641 82.261791,86.235387 81.8441,85.948759 81.426408,85.662131 81.00664,85.379093 80.583195,85.101782 80.371472,84.963127 80.158642,84.825987 79.944991,84.690438 79.73134,84.554889 79.516491,84.421352 79.300586,84.289429 79.084681,84.157505 78.867948,84.027568 78.649463,83.899788 78.430978,83.772008 78.210946,83.646185 77.989555,83.523067 77.768164,83.399949 77.544875,83.279116 77.319312,83.161332 77.093748,83.043548 76.866081,82.928948 76.636666,82.817167 76.40725,82.705386 76.176115,82.596714 75.943168,82.491606 75.710221,82.386497 75.475494,82.284999 75.239335,82.187231 75.003176,82.089464 74.765251,81.995353 74.5262,81.905595 74.28715,81.815837 74.046937,81.730359 73.805314,81.64928 73.563692,81.5682 73.32055,81.491568 73.076676,81.419836 72.832803,81.348105 72.58816,81.281047 72.342354,81.219332 72.096549,81.157617 71.849764,81.10138 71.602348,81.05035 71.354931,80.99932 71.106915,80.953599 70.858207,80.913924 70.6095,80.874249 70.360128,80.84029 70.110449,80.812638 69.923361,80.791918 69.735686,80.77822 69.54821,80.764579 v 17.156059 c 0.05031,-5.4e-4 0.100572,-0.0035 0.150895,-0.0036 0.288505,-9.34e-4 0.576815,0.0043 0.86558,0.0155 0.288765,0.01121 0.577522,0.02872 0.866097,0.05168 0.288575,0.02295 0.577129,0.0515 0.865064,0.08578 0.287934,0.03429 0.575636,0.07416 0.862479,0.119372 0.286844,0.04521 0.573044,0.09569 0.858346,0.151412 0.285302,0.05572 0.569351,0.116593 0.852661,0.182418 0.28331,0.06583 0.565592,0.136869 0.84646,0.21239 0.280867,0.07552 0.560734,0.155488 0.838708,0.240296 0.277975,0.08481 0.554259,0.173998 0.82889,0.267684 0.274631,0.09368 0.547201,0.191884 0.818038,0.294039 0.270837,0.102154 0.540329,0.208026 0.807703,0.31781 0.267374,0.109783 0.532828,0.223526 0.79685,0.340546 0.264023,0.11702 0.52625,0.23735 0.787033,0.36122 0.260782,0.12387 0.520075,0.25105 0.77773,0.38137 0.257654,0.13033 0.513791,0.2641 0.768428,0.40049 0.254638,0.1364 0.507912,0.27548 0.759644,0.41755 0.251732,0.14207 0.501921,0.28725 0.750858,0.4346 0.248938,0.14735 0.496336,0.29682 0.742591,0.44907 0.246255,0.15224 0.491155,0.30679 0.734839,0.46353 0.243684,0.15675 0.486379,0.31612 0.727604,0.47698 0.241224,0.16085 0.480976,0.32325 0.719853,0.48782 0.238876,0.16458 0.477012,0.3313 0.713651,0.4992 0.473279,0.3358 0.942149,0.67746 1.407149,1.02422 0.465,0.34677 0.925765,0.69857 1.383378,1.05317 0.457613,0.3546 0.912615,0.71288 1.365809,1.07332 0.453193,0.36044 0.904797,0.72301 1.355472,1.08675 0.901351,0.72749 1.799469,1.45892 2.702161,2.18437 0.451346,0.36272 0.904039,0.7237 1.358573,1.0821 0.41529,0.32746 0.83265,0.65176 1.25212,0.97359 0.0065,-3.3e-4 0.01309,-7.1e-4 0.01964,-0.001 0.328302,-0.0166 0.656406,-0.0353 0.984436,-0.0563 0.328031,-0.0211 0.656224,-0.0442 0.983923,-0.0698 0.32769,-0.0255 0.65507,-0.0532 0.98237,-0.0832 0.32729,-0.03 0.6545,-0.0622 0.98133,-0.0966 0.32684,-0.0345 0.65348,-0.0711 0.97979,-0.11007 0.32631,-0.0389 0.65199,-0.0801 0.97771,-0.12351 0.32573,-0.0434 0.6511,-0.0891 0.97617,-0.13694 0.32507,-0.0479 0.65026,-0.098 0.97462,-0.15038 0.32435,-0.0523 0.64794,-0.10699 0.97152,-0.16381 0.32357,-0.0568 0.64671,-0.11595 0.96945,-0.17725 0.32273,-0.0613 0.64503,-0.12491 0.96686,-0.19069 0.32183,-0.0658 0.64343,-0.13386 0.96428,-0.20412 0.32086,-0.0703 0.64136,-0.1423 0.96119,-0.21704 0.31982,-0.0747 0.63883,-0.15178 0.95756,-0.231 0.31873,-0.0792 0.63689,-0.16072 0.95446,-0.24443 0.31758,-0.0837 0.6345,-0.16968 0.95085,-0.25786 0.31635,-0.0882 0.63217,-0.17863 0.94723,-0.2713 0.31506,-0.0927 0.62938,-0.18758 0.94309,-0.28474 0.31372,-0.0972 0.62667,-0.19653 0.93897,-0.29817 0.31229,-0.10165 0.624,-0.20548 0.93482,-0.31161 0.31082,-0.10613 0.6209,-0.21443 0.93018,-0.32505 0.30928,-0.11062 0.61785,-0.22389 0.92552,-0.33899 0.30768,-0.11511 0.61435,-0.23232 0.92036,-0.35192 0.30601,-0.1196 0.61143,-0.24126 0.91571,-0.36535 0.30428,-0.1241 0.60753,-0.25072 0.91002,-0.37931 0.30248,-0.12858 0.60423,-0.25914 0.90485,-0.39222 0.30063,-0.13308 0.60047,-0.2686 0.89917,-0.40618 0.40381,-0.18598 0.80544,-0.37582 1.20561,-0.56947 0.40018,-0.19366 0.79887,-0.39098 1.19528,-0.59222 0.39641,-0.20123 0.79087,-0.40621 1.18339,-0.61495 0.39252,-0.20873 0.78302,-0.42154 1.1715,-0.63768 0.38849,-0.21614 0.77478,-0.43594 1.15911,-0.65939 0.38433,-0.22346 0.76666,-0.45041 1.1467,-0.6811 0.38003,-0.23069 0.75766,-0.46497 1.13326,-0.7028 0.37561,-0.23783 0.7493,-0.4791 1.12035,-0.72399 0.089,-0.0587 0.17639,-0.11967 0.2651,-0.1788 z" />
      <path
         id="path10235"
         style="opacity:1;fill:#ec9b3b;fill-opacity:1;stroke-width:0.264583"
         d="m 133.41925,71.697432 c -0.0281,-2.41e-4 -0.0562,-0.0014 -0.0842,-0.0016 -0.21948,-0.0012 -0.4389,-1.66e-4 -0.65835,0.0036 -0.21946,0.0038 -0.43905,0.01031 -0.65836,0.01912 -0.21931,0.0088 -0.4388,0.01976 -0.65784,0.03359 -0.21905,0.01383 -0.43763,0.03025 -0.65629,0.04909 -0.21866,0.01885 -0.4371,0.04021 -0.65526,0.06408 -0.21816,0.02387 -0.43617,0.05018 -0.65371,0.07906 -0.21753,0.02888 -0.43484,0.06067 -0.65164,0.09457 -0.21679,0.0339 -0.43312,0.07013 -0.64905,0.109037 -0.21594,0.03891 -0.43152,0.08011 -0.64648,0.124023 -0.21495,0.04392 -0.42899,0.0906 -0.64285,0.139527 -0.21386,0.04892 -0.42711,0.100067 -0.63975,0.153996 -0.21265,0.05393 -0.42483,0.110567 -0.63614,0.169498 -0.21131,0.05893 -0.42215,0.120553 -0.632,0.184485 -0.20986,0.06393 -0.41856,0.130023 -0.62684,0.198954 -0.20828,0.06893 -0.41611,0.140529 -0.6227,0.214458 -0.20659,0.07393 -0.41224,0.150519 -0.61702,0.229443 -0.20478,0.07892 -0.40848,0.159996 -0.61133,0.243913 -0.34877,0.144281 -0.69493,0.295981 -1.03766,0.454752 -0.17137,0.07939 -0.34194,0.160374 -0.5116,0.243396 -0.16966,0.08302 -0.33808,0.168098 -0.50591,0.254765 -0.16783,0.08667 -0.33488,0.175296 -0.50075,0.265617 -0.16586,0.09032 -0.33076,0.181968 -0.49454,0.275952 -0.16377,0.09398 -0.32627,0.190182 -0.48782,0.287838 -0.16156,0.09766 -0.32242,0.196836 -0.48163,0.298173 -0.1592,0.101336 -0.31715,0.204515 -0.47387,0.309542 -0.15673,0.105026 -0.31201,0.212185 -0.46612,0.32091 -0.15412,0.108726 -0.307,0.21933 -0.45837,0.331763 -0.15138,0.112433 -0.30108,0.226465 -0.44959,0.342615 -0.1485,0.11615 -0.29581,0.234107 -0.44131,0.353983 -0.14551,0.119876 -0.28964,0.241742 -0.43202,0.365353 -0.14238,0.123611 -0.28307,0.249366 -0.4222,0.376721 -0.13912,0.127355 -0.27663,0.256466 -0.41237,0.387573 -0.13574,0.131108 -0.26938,0.264065 -0.40153,0.398942 -0.13214,0.134877 -0.2628,0.271766 -0.39119,0.410311 -0.12839,0.138545 -0.25482,0.278537 -0.37931,0.420646 -0.12448,0.14211 -0.247,0.285927 -0.36741,0.431498 -0.12042,0.145572 -0.23883,0.292902 -0.35502,0.441834 -0.1162,0.148932 -0.22977,0.299463 -0.34158,0.451652 -0.11182,0.152189 -0.2219,0.306126 -0.32918,0.46147 -0.10728,0.155345 -0.21212,0.312376 -0.31471,0.470773 -0.10259,0.158397 -0.2025,0.31821 -0.30024,0.479557 -0.0977,0.161347 -0.19304,0.324148 -0.28577,0.488342 -0.0927,0.164195 -0.18322,0.329671 -0.27079,0.496611 -0.0876,0.16694 -0.17252,0.335296 -0.25476,0.504879 -0.0577,0.119017 -0.1124,0.239391 -0.16743,0.359668 0.23846,0.05994 0.47593,0.123633 0.71468,0.182417 0.83882,0.206529 1.67909,0.40614 2.52129,0.598413 0.84221,0.192274 1.68629,0.377038 2.53163,0.555005 0.84535,0.177968 1.69218,0.349021 2.54042,0.512631 0.84824,0.163609 1.69779,0.320021 2.54868,0.469222 0.85089,0.1492 1.70313,0.291074 2.55643,0.425813 0.8533,0.13474 1.70769,0.262178 2.56315,0.382406 0.85546,0.120228 1.71197,0.233333 2.56935,0.338997 0.85739,0.105665 1.71547,0.204023 2.57452,0.295073 0.5376,0.05698 1.0762,0.105857 1.61438,0.157096 z m 0,16.711125 c -0.53818,-0.05124 -1.07678,-0.100118 -1.61438,-0.157096 -0.85905,-0.09105 -1.71713,-0.189408 -2.57452,-0.295073 -0.85738,-0.105664 -1.71389,-0.218769 -2.56935,-0.338997 -0.85546,-0.120228 -1.70985,-0.247666 -2.56315,-0.382406 -0.8533,-0.134739 -1.70554,-0.276613 -2.55643,-0.425813 -0.85089,-0.149201 -1.70044,-0.305613 -2.54868,-0.469222 -0.84824,-0.16361 -1.69507,-0.334663 -2.54042,-0.512631 -0.84534,-0.177967 -1.68942,-0.362731 -2.53163,-0.555005 -0.8422,-0.192273 -1.68247,-0.391884 -2.52129,-0.598413 -0.23875,-0.05878 -0.47622,-0.122481 -0.71468,-0.182417 -0.0234,0.0511 -0.0479,0.10164 -0.0708,0.152962 -0.0768,0.172122 -0.15108,0.345304 -0.22221,0.519865 -0.0711,0.17456 -0.1393,0.35072 -0.20464,0.527616 -0.0653,0.176896 -0.12767,0.354689 -0.18707,0.533818 -0.11775,0.355143 -0.22359,0.714763 -0.33589,1.071769 -0.0561,0.178503 -0.11419,0.356254 -0.1757,0.532784 -0.0615,0.17653 -0.12656,0.351584 -0.19792,0.524516 -0.0483,0.117083 -0.0998,0.232781 -0.15348,0.347265 -0.0537,0.114485 -0.11008,0.227742 -0.16898,0.339514 -0.0589,0.111773 -0.12008,0.222298 -0.18397,0.331246 -0.0639,0.108949 -0.13027,0.21645 -0.19896,0.322461 -0.0687,0.106012 -0.13963,0.210198 -0.2129,0.313159 -0.0733,0.102962 -0.14869,0.204576 -0.22635,0.304375 -0.0776,0.0998 -0.15741,0.198032 -0.23926,0.294555 -0.0818,0.09652 -0.16583,0.191602 -0.25166,0.284737 -0.0858,0.09314 -0.17394,0.184251 -0.26355,0.273886 -0.0896,0.08963 -0.18069,0.177528 -0.27389,0.263549 -0.0932,0.08602 -0.18816,0.170403 -0.28473,0.252698 -0.0966,0.0823 -0.1948,0.162356 -0.29456,0.240812 -0.0998,0.07846 -0.20112,0.15494 -0.30386,0.229444 -0.10273,0.0745 -0.20713,0.147118 -0.31264,0.217557 -0.10551,0.07044 -0.2123,0.138894 -0.32039,0.205156 -0.10809,0.06626 -0.21717,0.130264 -0.32763,0.192236 -0.11047,0.06197 -0.22231,0.122061 -0.33487,0.179834 -0.11255,0.05777 -0.22604,0.113299 -0.34054,0.166915 -0.11451,0.05362 -0.22993,0.105013 -0.34624,0.154513 -0.1163,0.0495 -0.23343,0.0972 -0.3514,0.142627 -0.11796,0.04542 -0.23656,0.08883 -0.35605,0.130224 -0.11948,0.04139 -0.23984,0.08094 -0.3607,0.118339 -0.12085,0.0374 -0.24223,0.07249 -0.36432,0.105937 -0.12208,0.03345 -0.24476,0.06503 -0.36793,0.09457 -0.24634,0.05907 -0.49485,0.110318 -0.74466,0.153996 -0.24981,0.04368 -0.50131,0.07991 -0.75344,0.10852 -0.25214,0.02861 -0.50479,0.04968 -0.7581,0.06356 -0.253299,0.01388 -0.506834,0.02068 -0.760156,0.02015 -0.253321,-5.31e-4 -0.505884,-0.0083 -0.757576,-0.02222 -0.251693,-0.01395 -0.502456,-0.03427 -0.752409,-0.06098 -0.249953,-0.02671 -0.499138,-0.0599 -0.747241,-0.0987 -0.248104,-0.0388 -0.495413,-0.0831 -0.741557,-0.133325 -0.246144,-0.05023 -0.491282,-0.105924 -0.735356,-0.166915 -0.244074,-0.06099 -0.48726,-0.127349 -0.729154,-0.198438 -0.241894,-0.07109 -0.482316,-0.147371 -0.72192,-0.227893 -0.239603,-0.08052 -0.477999,-0.165474 -0.715202,-0.254765 C 93.297656,92.954126 93.061585,92.860724 92.826892,92.76333 92.5922,92.665936 92.358748,92.564822 92.126676,92.459989 91.894605,92.355156 91.66407,92.246552 91.434729,92.134945 91.205388,92.023338 90.977033,91.908496 90.750533,91.79078 90.524033,91.673063 90.299187,91.552722 90.075639,91.429561 89.852091,91.3064 89.630016,91.180264 89.40953,91.052323 89.189043,90.924383 88.970037,90.794222 88.752722,90.662166 88.535407,90.530111 88.319767,90.396147 88.105733,90.26064 87.677667,89.989628 87.253715,89.712112 86.832943,89.429683 86.41217,89.147254 85.994843,88.860003 85.578756,88.570304 84.746581,87.990906 83.92118,87.401037 83.092086,86.81744 82.677539,86.525641 82.261791,86.235387 81.8441,85.948759 81.426408,85.662131 81.00664,85.379093 80.583195,85.101782 80.371472,84.963127 80.158642,84.825987 79.944991,84.690438 79.73134,84.554889 79.516491,84.421352 79.300586,84.289429 79.084681,84.157505 78.867948,84.027568 78.649463,83.899788 78.430978,83.772008 78.210946,83.646185 77.989555,83.523067 77.768164,83.399949 77.544875,83.279116 77.319312,83.161332 77.093748,83.043548 76.866081,82.928948 76.636666,82.817167 76.40725,82.705386 76.176115,82.596714 75.943168,82.491606 75.710221,82.386497 75.475494,82.284999 75.239335,82.187231 75.003176,82.089464 74.765251,81.995353 74.5262,81.905595 74.28715,81.815837 74.046937,81.730359 73.805314,81.64928 73.563692,81.5682 73.32055,81.491568 73.076676,81.419836 72.832803,81.348105 72.58816,81.281047 72.342354,81.219332 72.096549,81.157617 71.849764,81.10138 71.602348,81.05035 71.354931,80.99932 71.106915,80.953599 70.858207,80.913924 70.6095,80.874249 70.360128,80.84029 70.110449,80.812638 69.923361,80.791918 69.735686,80.77822 69.54821,80.764579 v 17.156059 c 0.05031,-5.4e-4 0.100572,-0.0035 0.150895,-0.0036 0.288505,-9.34e-4 0.576815,0.0043 0.86558,0.0155 0.288765,0.01121 0.577522,0.02872 0.866097,0.05168 0.288575,0.02295 0.577129,0.0515 0.865064,0.08578 0.287934,0.03429 0.575636,0.07416 0.862479,0.119372 0.286844,0.04521 0.573044,0.09569 0.858346,0.151412 0.285302,0.05572 0.569351,0.116593 0.852661,0.182418 0.28331,0.06583 0.565592,0.136869 0.84646,0.21239 0.280867,0.07552 0.560734,0.155488 0.838708,0.240296 0.277975,0.08481 0.554259,0.173998 0.82889,0.267684 0.274631,0.09368 0.547201,0.191884 0.818038,0.294039 0.270837,0.102154 0.540329,0.208026 0.807703,0.31781 0.267374,0.109783 0.532828,0.223526 0.79685,0.340546 0.264023,0.11702 0.52625,0.23735 0.787033,0.36122 0.260782,0.12387 0.520075,0.25105 0.77773,0.38137 0.257654,0.13033 0.513791,0.2641 0.768428,0.40049 0.254638,0.1364 0.507912,0.27548 0.759644,0.41755 0.251732,0.14207 0.501921,0.28725 0.750858,0.4346 0.248938,0.14735 0.496336,0.29682 0.742591,0.44907 0.246255,0.15224 0.491155,0.30679 0.734839,0.46353 0.243684,0.15675 0.486379,0.31612 0.727604,0.47698 0.241224,0.16085 0.480976,0.32325 0.719853,0.48782 0.238876,0.16458 0.477012,0.3313 0.713651,0.4992 0.473279,0.3358 0.942149,0.67746 1.407149,1.02422 0.465,0.34677 0.925765,0.69857 1.383378,1.05317 0.457613,0.3546 0.912615,0.71288 1.365809,1.07332 0.453193,0.36044 0.904797,0.72301 1.355472,1.08675 0.901351,0.72749 1.799469,1.45892 2.702161,2.18437 0.451346,0.36272 0.904039,0.7237 1.358573,1.0821 0.41529,0.32746 0.83265,0.65176 1.25212,0.97359 0.0065,-3.3e-4 0.01309,-7.1e-4 0.01964,-0.001 0.328302,-0.0166 0.656406,-0.0353 0.984436,-0.0563 0.328031,-0.0211 0.656224,-0.0442 0.983923,-0.0698 0.32769,-0.0255 0.65507,-0.0532 0.98237,-0.0832 0.32729,-0.03 0.6545,-0.0622 0.98133,-0.0966 0.32684,-0.0345 0.65348,-0.0711 0.97979,-0.11007 0.32631,-0.0389 0.65199,-0.0801 0.97771,-0.12351 0.32573,-0.0434 0.6511,-0.0891 0.97617,-0.13694 0.32507,-0.0479 0.65026,-0.098 0.97462,-0.15038 0.32435,-0.0523 0.64794,-0.10699 0.97152,-0.16381 0.32357,-0.0568 0.64671,-0.11595 0.96945,-0.17725 0.32273,-0.0613 0.64503,-0.12491 0.96686,-0.19069 0.32183,-0.0658 0.64343,-0.13386 0.96428,-0.20412 0.32086,-0.0703 0.64136,-0.1423 0.96119,-0.21704 0.31982,-0.0747 0.63883,-0.15178 0.95756,-0.231 0.31873,-0.0792 0.63689,-0.16072 0.95446,-0.24443 0.31758,-0.0837 0.6345,-0.16968 0.95085,-0.25786 0.31635,-0.0882 0.63217,-0.17863 0.94723,-0.2713 0.31506,-0.0927 0.62938,-0.18758 0.94309,-0.28474 0.31372,-0.0972 0.62667,-0.19653 0.93897,-0.29817 0.31229,-0.10165 0.624,-0.20548 0.93482,-0.31161 0.31082,-0.10613 0.6209,-0.21443 0.93018,-0.32505 0.30928,-0.11062 0.61785,-0.22389 0.92552,-0.33899 0.30768,-0.11511 0.61435,-0.23232 0.92036,-0.35192 0.30601,-0.1196 0.61143,-0.24126 0.91571,-0.36535 0.30428,-0.1241 0.60753,-0.25072 0.91002,-0.37931 0.30248,-0.12858 0.60423,-0.25914 0.90485,-0.39222 0.30063,-0.13308 0.60047,-0.2686 0.89917,-0.40618 0.40381,-0.18598 0.80544,-0.37582 1.20561,-0.56947 0.40018,-0.19366 0.79887,-0.39098 1.19528,-0.59222 0.39641,-0.20123 0.79087,-0.40621 1.18339,-0.61495 0.39252,-0.20873 0.78302,-0.42154 1.1715,-0.63768 0.38849,-0.21614 0.77478,-0.43594 1.15911,-0.65939 0.38433,-0.22346 0.76666,-0.45041 1.1467,-0.6811 0.38003,-0.23069 0.75766,-0.46497 1.13326,-0.7028 0.37561,-0.23783 0.7493,-0.4791 1.12035,-0.72399 0.089,-0.0587 0.17639,-0.11967 0.2651,-0.1788 z" />
      <path
         id="path18614"
         style="opacity:1;fill:#000000;fill-opacity:1;stroke-width:0.264583;filter:url(#filter18616)"
         d="m 133.41925,101.446 c -0.0887,0.0591 -0.17613,0.12008 -0.2651,0.1788 -0.37105,0.24489 -0.74474,0.48616 -1.12035,0.72399 -0.3756,0.23783 -0.75323,0.47211 -1.13326,0.7028 -0.38004,0.23069 -0.76237,0.45764 -1.1467,0.6811 -0.38433,0.22345 -0.77062,0.44325 -1.15911,0.65939 -0.38848,0.21614 -0.77898,0.42895 -1.1715,0.63768 -0.39252,0.20874 -0.78698,0.41372 -1.18339,0.61495 -0.39641,0.20124 -0.7951,0.39856 -1.19528,0.59222 -0.40017,0.19365 -0.8018,0.38349 -1.20561,0.56947 -0.2987,0.13758 -0.59854,0.2731 -0.89917,0.40618 -0.30062,0.13308 -0.60237,0.26364 -0.90485,0.39222 -0.30249,0.12859 -0.60574,0.25521 -0.91002,0.37931 -0.30428,0.12409 -0.6097,0.24575 -0.91571,0.36535 -0.30601,0.1196 -0.61268,0.23681 -0.92036,0.35192 -0.30767,0.1151 -0.61624,0.22837 -0.92552,0.33899 -0.30928,0.11062 -0.61936,0.21892 -0.93018,0.32505 -0.31082,0.10613 -0.62253,0.20996 -0.93482,0.31161 -0.3123,0.10164 -0.62525,0.20101 -0.93897,0.29817 -0.31371,0.0972 -0.62803,0.19207 -0.94309,0.28474 -0.31506,0.0927 -0.63088,0.18311 -0.94723,0.2713 -0.31635,0.0882 -0.63327,0.17416 -0.95085,0.25786 -0.31757,0.0837 -0.63573,0.16521 -0.95446,0.24443 -0.31873,0.0792 -0.63774,0.15626 -0.95756,0.231 -0.31983,0.0747 -0.64033,0.14678 -0.96119,0.21704 -0.32085,0.0703 -0.64245,0.13834 -0.96428,0.20412 -0.32183,0.0658 -0.64413,0.12938 -0.96686,0.19069 -0.32274,0.0613 -0.64588,0.12042 -0.96945,0.17725 -0.32358,0.0568 -0.64717,0.11146 -0.97152,0.16381 -0.32436,0.0524 -0.64955,0.1025 -0.97462,0.15038 -0.32507,0.0479 -0.65044,0.0935 -0.97617,0.13694 -0.32572,0.0434 -0.6514,0.0846 -0.97771,0.12351 -0.32631,0.0389 -0.65295,0.0756 -0.97979,0.11007 -0.32683,0.0345 -0.65404,0.0667 -0.98133,0.0966 -0.3273,0.03 -0.65468,0.0577 -0.98237,0.0832 -0.327699,0.0255 -0.655892,0.0487 -0.983923,0.0698 -0.32803,0.0211 -0.656134,0.0397 -0.984436,0.0563 -0.0065,3.3e-4 -0.01309,7.1e-4 -0.01964,0.001 0.03964,0.0304 0.07865,0.0616 0.118339,0.092 0.459625,0.35155 0.922446,0.69913 1.389063,1.04128 0.466614,0.34215 0.937324,0.67903 1.412834,1.00924 0.23775,0.16511 0.47661,0.32872 0.71727,0.49041 0.24066,0.1617 0.48302,0.32171 0.72657,0.47956 0.24355,0.15785 0.4884,0.31358 0.73484,0.46715 0.24644,0.15357 0.4943,0.30486 0.74362,0.45372 0.24933,0.14886 0.50021,0.29502 0.75241,0.43873 0.2522,0.14372 0.50612,0.28509 0.76119,0.42323 0.25508,0.13815 0.51153,0.27353 0.76947,0.40566 0.25794,0.13214 0.51693,0.26085 0.77773,0.38654 0.2608,0.1257 0.52337,0.24808 0.78703,0.36691 0.26365,0.11882 0.5288,0.23419 0.7953,0.34571 0.2665,0.11152 0.53422,0.2192 0.80357,0.32298 0.26934,0.10378 0.54017,0.20359 0.81235,0.29921 0.27218,0.0956 0.54561,0.18738 0.82062,0.2744 0.27501,0.087 0.55157,0.16955 0.82941,0.24753 0.27783,0.078 0.55702,0.15111 0.83767,0.21962 0.28066,0.0685 0.563,0.13207 0.84646,0.19069 0.2042,0.0422 0.40873,0.0817 0.61392,0.11834 0.20519,0.0366 0.41098,0.0703 0.61702,0.10128 0.20604,0.031 0.41232,0.0593 0.61908,0.0847 0.20676,0.0255 0.41381,0.0483 0.62115,0.0682 0.20735,0.02 0.41491,0.0372 0.6227,0.0517 0.2078,0.0145 0.41563,0.0262 0.62374,0.0351 0.2081,0.009 0.41648,0.0156 0.62477,0.0191 0.20828,0.004 0.41644,0.004 0.62476,0.003 0.20833,-0.002 0.41706,-0.007 0.62529,-0.014 0.20823,-0.007 0.41625,-0.0169 0.62425,-0.0294 0.208,-0.0126 0.41559,-0.0276 0.62322,-0.0455 0.20763,-0.0179 0.41505,-0.0388 0.62218,-0.062 0.20713,-0.0232 0.41414,-0.0486 0.62064,-0.077 0.20649,-0.0284 0.41285,-0.0599 0.61856,-0.0935 0.20572,-0.0337 0.41066,-0.0697 0.61547,-0.10852 0.2048,-0.0389 0.40912,-0.0805 0.61288,-0.12454 0.20376,-0.044 0.40721,-0.0904 0.60978,-0.13953 0.20258,-0.0492 0.40439,-0.10126 0.60565,-0.15554 0.20126,-0.0543 0.40171,-0.11065 0.60151,-0.17002 0.19981,-0.0594 0.39917,-0.12162 0.59738,-0.18603 0.19822,-0.0644 0.39573,-0.13107 0.59222,-0.20051 0.19649,-0.0694 0.39189,-0.14157 0.58652,-0.21601 0.19463,-0.0744 0.38821,-0.15159 0.58085,-0.23099 0.19263,-0.0794 0.38414,-0.16113 0.57464,-0.24546 0.1905,-0.0843 0.38021,-0.17121 0.56844,-0.26045 0.18823,-0.0893 0.37486,-0.1808 0.56069,-0.27492 0.18582,-0.0941 0.37069,-0.19042 0.55397,-0.28939 0.18328,-0.099 0.3651,-0.20059 0.5457,-0.30437 0.18061,-0.10379 0.36016,-0.20975 0.53795,-0.31833 0.1778,-0.10857 0.35381,-0.21998 0.52865,-0.33331 0.17485,-0.11334 0.34811,-0.22869 0.51987,-0.34675 0.17176,-0.11807 0.34202,-0.23845 0.51056,-0.36122 0.16855,-0.12277 0.33569,-0.2479 0.50075,-0.37517 0.1233,-0.0951 0.24454,-0.19289 0.36587,-0.29042 z m -63.87104,7.23677 c 0.164594,0.0614 0.328969,0.12381 0.494026,0.18397 0.308564,0.11247 0.617977,0.22269 0.928109,0.33073 0.310132,0.10804 0.620605,0.21369 0.932243,0.31729 0.311638,0.1036 0.62433,0.20521 0.93741,0.30438 0.31308,0.0992 0.62657,0.19621 0.941028,0.29093 0.314459,0.0947 0.629905,0.18722 0.945679,0.27751 0.315774,0.0903 0.63227,0.17822 0.949296,0.26406 0.317025,0.0858 0.6347,0.16923 0.952913,0.25063 0.318214,0.0814 0.636676,0.16075 0.956014,0.23772 0.319339,0.077 0.639232,0.15175 0.959632,0.22427 0.3204,0.0725 0.641334,0.14277 0.962732,0.21084 0.321397,0.0681 0.6435,0.13378 0.965832,0.19741 0.322332,0.0636 0.645213,0.1253 0.968417,0.18448 0.323203,0.0592 0.646472,0.1158 0.970483,0.17053 0.324011,0.0547 0.648312,0.10733 0.973067,0.15762 0.324755,0.0503 0.650216,0.0983 0.975651,0.14417 0.325436,0.0458 0.651149,0.0894 0.977202,0.13074 0.326052,0.0414 0.652145,0.0809 0.978751,0.11783 0.326607,0.0369 0.653722,0.0714 0.980819,0.10387 0.327096,0.0325 0.654329,0.0629 0.981852,0.0909 0.327523,0.028 0.654999,0.0539 0.982886,0.0775 0.327887,0.0236 0.656249,0.045 0.984436,0.0641 0.328186,0.0191 0.65653,0.036 0.984953,0.0506 0.328423,0.0147 0.656873,0.027 0.985469,0.0372 0.328596,0.0102 0.657281,0.018 0.985987,0.0238 0.328705,0.006 0.657234,0.009 0.985986,0.0103 0.328752,0.001 0.657769,6e-4 0.986503,-0.003 0.328734,-0.003 0.657333,-0.009 0.985986,-0.0165 0.328654,-0.008 0.657477,-0.0173 0.985987,-0.0295 0.321957,-0.0119 0.643557,-0.0262 0.965315,-0.0424 -0.41947,-0.32183 -0.83683,-0.64613 -1.25212,-0.97359 -0.454534,-0.3584 -0.907227,-0.71938 -1.358573,-1.0821 -0.902692,-0.72545 -1.80081,-1.45688 -2.702161,-2.18437 -0.450675,-0.36374 -0.902279,-0.72631 -1.355472,-1.08675 -0.453194,-0.36044 -0.908196,-0.71872 -1.365809,-1.07332 -0.457613,-0.3546 -0.918378,-0.7064 -1.383378,-1.05317 -0.465,-0.34676 -0.93387,-0.68842 -1.407149,-1.02422 -0.236639,-0.1679 -0.474775,-0.33462 -0.713651,-0.4992 -0.238877,-0.16457 -0.478629,-0.32697 -0.719853,-0.48782 -0.241225,-0.16086 -0.48392,-0.32023 -0.727604,-0.47698 -0.243684,-0.15674 -0.488584,-0.31129 -0.734839,-0.46353 -0.246255,-0.15225 -0.493653,-0.30172 -0.742591,-0.44907 -0.248937,-0.14735 -0.499126,-0.29253 -0.750858,-0.4346 -0.251732,-0.14207 -0.505006,-0.28115 -0.759644,-0.41755 -0.254637,-0.13639 -0.510774,-0.27016 -0.768428,-0.40049 -0.257655,-0.13032 -0.516948,-0.2575 -0.77773,-0.38137 -0.260783,-0.12387 -0.52301,-0.2442 -0.787033,-0.36122 -0.264022,-0.11702 -0.529476,-0.230763 -0.79685,-0.340546 -0.267374,-0.109784 -0.536866,-0.215656 -0.807703,-0.31781 -0.270837,-0.102155 -0.543407,-0.200354 -0.818038,-0.294039 -0.274631,-0.09369 -0.550915,-0.182877 -0.82889,-0.267684 -0.277974,-0.08481 -0.557841,-0.164774 -0.838708,-0.240296 -0.280868,-0.07552 -0.56315,-0.146564 -0.84646,-0.21239 -0.28331,-0.06583 -0.567359,-0.126696 -0.852661,-0.182418 -0.285302,-0.05572 -0.571502,-0.106203 -0.858346,-0.151412 -0.286843,-0.04521 -0.574545,-0.08509 -0.862479,-0.119372 -0.287935,-0.03429 -0.576489,-0.06283 -0.865064,-0.08578 -0.288575,-0.02295 -0.577332,-0.04046 -0.866097,-0.05168 -0.288765,-0.01122 -0.577075,-0.01644 -0.86558,-0.0155 -0.05032,1.63e-4 -0.100588,0.0031 -0.150895,0.0036 z" />
      <path
         id="path10239"
         style="opacity:1;fill:#f24c4c;fill-opacity:1;stroke-width:0.264583"
         d="m 133.41925,101.446 c -0.0887,0.0591 -0.17613,0.12008 -0.2651,0.1788 -0.37105,0.24489 -0.74474,0.48616 -1.12035,0.72399 -0.3756,0.23783 -0.75323,0.47211 -1.13326,0.7028 -0.38004,0.23069 -0.76237,0.45764 -1.1467,0.6811 -0.38433,0.22345 -0.77062,0.44325 -1.15911,0.65939 -0.38848,0.21614 -0.77898,0.42895 -1.1715,0.63768 -0.39252,0.20874 -0.78698,0.41372 -1.18339,0.61495 -0.39641,0.20124 -0.7951,0.39856 -1.19528,0.59222 -0.40017,0.19365 -0.8018,0.38349 -1.20561,0.56947 -0.2987,0.13758 -0.59854,0.2731 -0.89917,0.40618 -0.30062,0.13308 -0.60237,0.26364 -0.90485,0.39222 -0.30249,0.12859 -0.60574,0.25521 -0.91002,0.37931 -0.30428,0.12409 -0.6097,0.24575 -0.91571,0.36535 -0.30601,0.1196 -0.61268,0.23681 -0.92036,0.35192 -0.30767,0.1151 -0.61624,0.22837 -0.92552,0.33899 -0.30928,0.11062 -0.61936,0.21892 -0.93018,0.32505 -0.31082,0.10613 -0.62253,0.20996 -0.93482,0.31161 -0.3123,0.10164 -0.62525,0.20101 -0.93897,0.29817 -0.31371,0.0972 -0.62803,0.19207 -0.94309,0.28474 -0.31506,0.0927 -0.63088,0.18311 -0.94723,0.2713 -0.31635,0.0882 -0.63327,0.17416 -0.95085,0.25786 -0.31757,0.0837 -0.63573,0.16521 -0.95446,0.24443 -0.31873,0.0792 -0.63774,0.15626 -0.95756,0.231 -0.31983,0.0747 -0.64033,0.14678 -0.96119,0.21704 -0.32085,0.0703 -0.64245,0.13834 -0.96428,0.20412 -0.32183,0.0658 -0.64413,0.12938 -0.96686,0.19069 -0.32274,0.0613 -0.64588,0.12042 -0.96945,0.17725 -0.32358,0.0568 -0.64717,0.11146 -0.97152,0.16381 -0.32436,0.0524 -0.64955,0.1025 -0.97462,0.15038 -0.32507,0.0479 -0.65044,0.0935 -0.97617,0.13694 -0.32572,0.0434 -0.6514,0.0846 -0.97771,0.12351 -0.32631,0.0389 -0.65295,0.0756 -0.97979,0.11007 -0.32683,0.0345 -0.65404,0.0667 -0.98133,0.0966 -0.3273,0.03 -0.65468,0.0577 -0.98237,0.0832 -0.327699,0.0255 -0.655892,0.0487 -0.983923,0.0698 -0.32803,0.0211 -0.656134,0.0397 -0.984436,0.0563 -0.0065,3.3e-4 -0.01309,7.1e-4 -0.01964,0.001 0.03964,0.0304 0.07865,0.0616 0.118339,0.092 0.459625,0.35155 0.922446,0.69913 1.389063,1.04128 0.466614,0.34215 0.937324,0.67903 1.412834,1.00924 0.23775,0.16511 0.47661,0.32872 0.71727,0.49041 0.24066,0.1617 0.48302,0.32171 0.72657,0.47956 0.24355,0.15785 0.4884,0.31358 0.73484,0.46715 0.24644,0.15357 0.4943,0.30486 0.74362,0.45372 0.24933,0.14886 0.50021,0.29502 0.75241,0.43873 0.2522,0.14372 0.50612,0.28509 0.76119,0.42323 0.25508,0.13815 0.51153,0.27353 0.76947,0.40566 0.25794,0.13214 0.51693,0.26085 0.77773,0.38654 0.2608,0.1257 0.52337,0.24808 0.78703,0.36691 0.26365,0.11882 0.5288,0.23419 0.7953,0.34571 0.2665,0.11152 0.53422,0.2192 0.80357,0.32298 0.26934,0.10378 0.54017,0.20359 0.81235,0.29921 0.27218,0.0956 0.54561,0.18738 0.82062,0.2744 0.27501,0.087 0.55157,0.16955 0.82941,0.24753 0.27783,0.078 0.55702,0.15111 0.83767,0.21962 0.28066,0.0685 0.563,0.13207 0.84646,0.19069 0.2042,0.0422 0.40873,0.0817 0.61392,0.11834 0.20519,0.0366 0.41098,0.0703 0.61702,0.10128 0.20604,0.031 0.41232,0.0593 0.61908,0.0847 0.20676,0.0255 0.41381,0.0483 0.62115,0.0682 0.20735,0.02 0.41491,0.0372 0.6227,0.0517 0.2078,0.0145 0.41563,0.0262 0.62374,0.0351 0.2081,0.009 0.41648,0.0156 0.62477,0.0191 0.20828,0.004 0.41644,0.004 0.62476,0.003 0.20833,-0.002 0.41706,-0.007 0.62529,-0.014 0.20823,-0.007 0.41625,-0.0169 0.62425,-0.0294 0.208,-0.0126 0.41559,-0.0276 0.62322,-0.0455 0.20763,-0.0179 0.41505,-0.0388 0.62218,-0.062 0.20713,-0.0232 0.41414,-0.0486 0.62064,-0.077 0.20649,-0.0284 0.41285,-0.0599 0.61856,-0.0935 0.20572,-0.0337 0.41066,-0.0697 0.61547,-0.10852 0.2048,-0.0389 0.40912,-0.0805 0.61288,-0.12454 0.20376,-0.044 0.40721,-0.0904 0.60978,-0.13953 0.20258,-0.0492 0.40439,-0.10126 0.60565,-0.15554 0.20126,-0.0543 0.40171,-0.11065 0.60151,-0.17002 0.19981,-0.0594 0.39917,-0.12162 0.59738,-0.18603 0.19822,-0.0644 0.39573,-0.13107 0.59222,-0.20051 0.19649,-0.0694 0.39189,-0.14157 0.58652,-0.21601 0.19463,-0.0744 0.38821,-0.15159 0.58085,-0.23099 0.19263,-0.0794 0.38414,-0.16113 0.57464,-0.24546 0.1905,-0.0843 0.38021,-0.17121 0.56844,-0.26045 0.18823,-0.0893 0.37486,-0.1808 0.56069,-0.27492 0.18582,-0.0941 0.37069,-0.19042 0.55397,-0.28939 0.18328,-0.099 0.3651,-0.20059 0.5457,-0.30437 0.18061,-0.10379 0.36016,-0.20975 0.53795,-0.31833 0.1778,-0.10857 0.35381,-0.21998 0.52865,-0.33331 0.17485,-0.11334 0.34811,-0.22869 0.51987,-0.34675 0.17176,-0.11807 0.34202,-0.23845 0.51056,-0.36122 0.16855,-0.12277 0.33569,-0.2479 0.50075,-0.37517 0.1233,-0.0951 0.24454,-0.19289 0.36587,-0.29042 z m -63.87104,7.23677 c 0.164594,0.0614 0.328969,0.12381 0.494026,0.18397 0.308564,0.11247 0.617977,0.22269 0.928109,0.33073 0.310132,0.10804 0.620605,0.21369 0.932243,0.31729 0.311638,0.1036 0.62433,0.20521 0.93741,0.30438 0.31308,0.0992 0.62657,0.19621 0.941028,0.29093 0.314459,0.0947 0.629905,0.18722 0.945679,0.27751 0.315774,0.0903 0.63227,0.17822 0.949296,0.26406 0.317025,0.0858 0.6347,0.16923 0.952913,0.25063 0.318214,0.0814 0.636676,0.16075 0.956014,0.23772 0.319339,0.077 0.639232,0.15175 0.959632,0.22427 0.3204,0.0725 0.641334,0.14277 0.962732,0.21084 0.321397,0.0681 0.6435,0.13378 0.965832,0.19741 0.322332,0.0636 0.645213,0.1253 0.968417,0.18448 0.323203,0.0592 0.646472,0.1158 0.970483,0.17053 0.324011,0.0547 0.648312,0.10733 0.973067,0.15762 0.324755,0.0503 0.650216,0.0983 0.975651,0.14417 0.325436,0.0458 0.651149,0.0894 0.977202,0.13074 0.326052,0.0414 0.652145,0.0809 0.978751,0.11783 0.326607,0.0369 0.653722,0.0714 0.980819,0.10387 0.327096,0.0325 0.654329,0.0629 0.981852,0.0909 0.327523,0.028 0.654999,0.0539 0.982886,0.0775 0.327887,0.0236 0.656249,0.045 0.984436,0.0641 0.328186,0.0191 0.65653,0.036 0.984953,0.0506 0.328423,0.0147 0.656873,0.027 0.985469,0.0372 0.328596,0.0102 0.657281,0.018 0.985987,0.0238 0.328705,0.006 0.657234,0.009 0.985986,0.0103 0.328752,0.001 0.657769,6e-4 0.986503,-0.003 0.328734,-0.003 0.657333,-0.009 0.985986,-0.0165 0.328654,-0.008 0.657477,-0.0173 0.985987,-0.0295 0.321957,-0.0119 0.643557,-0.0262 0.965315,-0.0424 -0.41947,-0.32183 -0.83683,-0.64613 -1.25212,-0.97359 -0.454534,-0.3584 -0.907227,-0.71938 -1.358573,-1.0821 -0.902692,-0.72545 -1.80081,-1.45688 -2.702161,-2.18437 -0.450675,-0.36374 -0.902279,-0.72631 -1.355472,-1.08675 -0.453194,-0.36044 -0.908196,-0.71872 -1.365809,-1.07332 -0.457613,-0.3546 -0.918378,-0.7064 -1.383378,-1.05317 -0.465,-0.34676 -0.93387,-0.68842 -1.407149,-1.02422 -0.236639,-0.1679 -0.474775,-0.33462 -0.713651,-0.4992 -0.238877,-0.16457 -0.478629,-0.32697 -0.719853,-0.48782 -0.241225,-0.16086 -0.48392,-0.32023 -0.727604,-0.47698 -0.243684,-0.15674 -0.488584,-0.31129 -0.734839,-0.46353 -0.246255,-0.15225 -0.493653,-0.30172 -0.742591,-0.44907 -0.248937,-0.14735 -0.499126,-0.29253 -0.750858,-0.4346 -0.251732,-0.14207 -0.505006,-0.28115 -0.759644,-0.41755 -0.254637,-0.13639 -0.510774,-0.27016 -0.768428,-0.40049 -0.257655,-0.13032 -0.516948,-0.2575 -0.77773,-0.38137 -0.260783,-0.12387 -0.52301,-0.2442 -0.787033,-0.36122 -0.264022,-0.11702 -0.529476,-0.230763 -0.79685,-0.340546 -0.267374,-0.109784 -0.536866,-0.215656 -0.807703,-0.31781 -0.270837,-0.102155 -0.543407,-0.200354 -0.818038,-0.294039 -0.274631,-0.09369 -0.550915,-0.182877 -0.82889,-0.267684 -0.277974,-0.08481 -0.557841,-0.164774 -0.838708,-0.240296 -0.280868,-0.07552 -0.56315,-0.146564 -0.84646,-0.21239 -0.28331,-0.06583 -0.567359,-0.126696 -0.852661,-0.182418 -0.285302,-0.05572 -0.571502,-0.106203 -0.858346,-0.151412 -0.286843,-0.04521 -0.574545,-0.08509 -0.862479,-0.119372 -0.287935,-0.03429 -0.576489,-0.06283 -0.865064,-0.08578 -0.288575,-0.02295 -0.577332,-0.04046 -0.866097,-0.05168 -0.288765,-0.01122 -0.577075,-0.01644 -0.86558,-0.0155 -0.05032,1.63e-4 -0.100588,0.0031 -0.150895,0.0036 z" />
      <path
         id="path17882"
         style="opacity:1;fill:#000000;fill-opacity:1;stroke-width:0.264583;filter:url(#filter18247)"
         d="M 133.41925 116.22805 C 133.29792 116.32558 133.17668 116.42339 133.05338 116.51847 C 132.88832 116.64574 132.72118 116.77087 132.55263 116.89364 C 132.38409 117.01641 132.21383 117.13679 132.04207 117.25486 C 131.87031 117.37292 131.69705 117.48827 131.5222 117.60161 C 131.34736 117.71494 131.17135 117.82635 130.99355 117.93492 C 130.81576 118.0435 130.63621 118.14946 130.4556 118.25325 C 130.275 118.35703 130.09318 118.45865 129.9099 118.55762 C 129.72662 118.65659 129.54175 118.75289 129.35593 118.84701 C 129.1701 118.94113 128.98347 119.03268 128.79524 119.12193 C 128.60701 119.21117 128.4173 119.29804 128.2268 119.38238 C 128.0363 119.46671 127.84479 119.54844 127.65216 119.62784 C 127.45952 119.70724 127.26594 119.7844 127.07131 119.85883 C 126.87668 119.93327 126.68128 120.0054 126.48479 120.07484 C 126.2883 120.14428 126.09079 120.21093 125.89257 120.27535 C 125.69436 120.33976 125.495 120.40202 125.29519 120.46138 C 125.09539 120.52075 124.89494 120.57711 124.69368 120.6314 C 124.49242 120.68568 124.29061 120.73777 124.08803 120.78694 C 123.88546 120.83611 123.68201 120.88244 123.47825 120.92647 C 123.27449 120.9705 123.07017 121.01215 122.86537 121.05101 C 122.66056 121.08987 122.45562 121.12587 122.2499 121.15953 C 122.04419 121.19319 121.83783 121.22463 121.63134 121.25306 C 121.42484 121.28149 121.21783 121.30689 121.0107 121.33006 C 120.80357 121.35323 120.59615 121.37419 120.38852 121.39207 C 120.18089 121.40996 119.9733 121.42498 119.7653 121.43755 C 119.5573 121.45011 119.34928 121.45979 119.14105 121.467 C 118.93282 121.47422 118.72409 121.47911 118.51576 121.48096 C 118.30744 121.4828 118.09928 121.48194 117.891 121.47837 C 117.68271 121.47481 117.47433 121.46825 117.26623 121.45925 C 117.05812 121.45026 116.85029 121.43858 116.64249 121.42411 C 116.4347 121.40965 116.22714 121.39239 116.01979 121.37244 C 115.81245 121.35248 115.6054 121.3297 115.39864 121.30422 C 115.19188 121.27875 114.9856 121.25051 114.77956 121.21947 C 114.57352 121.18844 114.36773 121.1548 114.16254 121.11819 C 113.95735 121.08158 113.75282 121.04207 113.54862 120.99985 C 113.26516 120.94123 112.98282 120.87768 112.70216 120.80916 C 112.42151 120.74065 112.14232 120.66752 111.86449 120.58954 C 111.58665 120.51156 111.31009 120.42902 111.03508 120.34201 C 110.76007 120.25499 110.48664 120.16322 110.21446 120.06761 C 109.94228 119.97199 109.67145 119.87218 109.40211 119.7684 C 109.13276 119.66462 108.86504 119.55694 108.59854 119.44542 C 108.33204 119.3339 108.06689 119.21853 107.80324 119.09971 C 107.53958 118.98088 107.27701 118.8585 107.01621 118.7328 C 106.75541 118.60711 106.49642 118.4784 106.23848 118.34626 C 105.98054 118.21413 105.72409 118.07875 105.46901 117.9406 C 105.21394 117.80246 104.96002 117.66109 104.70782 117.51737 C 104.45562 117.37366 104.20474 117.2275 103.95541 117.07864 C 103.70609 116.92978 103.45823 116.77849 103.21179 116.62492 C 102.96535 116.47135 102.7205 116.31562 102.47695 116.15777 C 102.2334 115.99992 101.99104 115.83991 101.75038 115.67821 C 101.50972 115.51652 101.27086 115.35291 101.03311 115.1878 C 100.5576 114.85759 100.08689 114.52071 99.620276 114.17856 C 99.153659 113.83641 98.690838 113.48883 98.231213 113.13728 C 98.191529 113.10693 98.152514 113.07571 98.112874 113.0453 C 97.791116 113.06146 97.469516 113.07579 97.147559 113.08767 C 96.819049 113.09979 96.490226 113.10947 96.161572 113.11713 C 95.832919 113.12478 95.50432 113.13047 95.175586 113.13366 C 94.846852 113.13685 94.517835 113.13752 94.189083 113.13625 C 93.860331 113.13497 93.531802 113.13164 93.203097 113.12591 C 92.874391 113.12018 92.545706 113.11233 92.21711 113.10214 C 91.888514 113.09195 91.560064 113.07959 91.231641 113.06493 C 90.903218 113.05028 90.574874 113.0334 90.246688 113.01429 C 89.918501 112.99518 89.590139 112.97378 89.262252 112.95021 C 88.934365 112.92664 88.606889 112.90072 88.279366 112.8727 C 87.951843 112.84467 87.62461 112.81422 87.297514 112.78175 C 86.970417 112.74927 86.643302 112.71481 86.316695 112.67788 C 85.990089 112.64095 85.663996 112.60144 85.337944 112.56005 C 85.011891 112.51867 84.686178 112.47515 84.360742 112.42931 C 84.035307 112.38348 83.709846 112.33542 83.385091 112.28514 C 83.060336 112.23485 82.736035 112.18226 82.412024 112.12752 C 82.088013 112.07279 81.764744 112.01617 81.441541 111.95699 C 81.118337 111.89781 80.795456 111.83613 80.473124 111.77251 C 80.150792 111.70888 79.828689 111.64318 79.507292 111.5751 C 79.185894 111.50703 78.86496 111.43678 78.54456 111.36426 C 78.22416 111.29174 77.904267 111.21695 77.584928 111.13999 C 77.26559 111.06302 76.947128 110.98368 76.628914 110.90227 C 76.310701 110.82087 75.993026 110.73749 75.676001 110.65164 C 75.358975 110.5658 75.042479 110.47786 74.726705 110.38758 C 74.410931 110.29729 74.095485 110.2048 73.781026 110.11007 C 73.466568 110.01535 73.153078 109.9183 72.839998 109.81914 C 72.526918 109.71997 72.214226 109.61836 71.902588 109.51476 C 71.59095 109.41116 71.280477 109.30551 70.970345 109.19747 C 70.660213 109.08943 70.3508 108.97921 70.042236 108.86674 C 69.877179 108.80658 69.712804 108.7442 69.54821 108.68277 L 69.54821 126.32252 L 133.41925 126.32252 L 133.41925 116.22805 z " />
      <path
         id="path10241"
         style="opacity:1;fill:#293462;fill-opacity:1;stroke-width:0.264583"
         d="M 133.41925 116.22805 C 133.29792 116.32558 133.17668 116.42339 133.05338 116.51847 C 132.88832 116.64574 132.72118 116.77087 132.55263 116.89364 C 132.38409 117.01641 132.21383 117.13679 132.04207 117.25486 C 131.87031 117.37292 131.69705 117.48827 131.5222 117.60161 C 131.34736 117.71494 131.17135 117.82635 130.99355 117.93492 C 130.81576 118.0435 130.63621 118.14946 130.4556 118.25325 C 130.275 118.35703 130.09318 118.45865 129.9099 118.55762 C 129.72662 118.65659 129.54175 118.75289 129.35593 118.84701 C 129.1701 118.94113 128.98347 119.03268 128.79524 119.12193 C 128.60701 119.21117 128.4173 119.29804 128.2268 119.38238 C 128.0363 119.46671 127.84479 119.54844 127.65216 119.62784 C 127.45952 119.70724 127.26594 119.7844 127.07131 119.85883 C 126.87668 119.93327 126.68128 120.0054 126.48479 120.07484 C 126.2883 120.14428 126.09079 120.21093 125.89257 120.27535 C 125.69436 120.33976 125.495 120.40202 125.29519 120.46138 C 125.09539 120.52075 124.89494 120.57711 124.69368 120.6314 C 124.49242 120.68568 124.29061 120.73777 124.08803 120.78694 C 123.88546 120.83611 123.68201 120.88244 123.47825 120.92647 C 123.27449 120.9705 123.07017 121.01215 122.86537 121.05101 C 122.66056 121.08987 122.45562 121.12587 122.2499 121.15953 C 122.04419 121.19319 121.83783 121.22463 121.63134 121.25306 C 121.42484 121.28149 121.21783 121.30689 121.0107 121.33006 C 120.80357 121.35323 120.59615 121.37419 120.38852 121.39207 C 120.18089 121.40996 119.9733 121.42498 119.7653 121.43755 C 119.5573 121.45011 119.34928 121.45979 119.14105 121.467 C 118.93282 121.47422 118.72409 121.47911 118.51576 121.48096 C 118.30744 121.4828 118.09928 121.48194 117.891 121.47837 C 117.68271 121.47481 117.47433 121.46825 117.26623 121.45925 C 117.05812 121.45026 116.85029 121.43858 116.64249 121.42411 C 116.4347 121.40965 116.22714 121.39239 116.01979 121.37244 C 115.81245 121.35248 115.6054 121.3297 115.39864 121.30422 C 115.19188 121.27875 114.9856 121.25051 114.77956 121.21947 C 114.57352 121.18844 114.36773 121.1548 114.16254 121.11819 C 113.95735 121.08158 113.75282 121.04207 113.54862 120.99985 C 113.26516 120.94123 112.98282 120.87768 112.70216 120.80916 C 112.42151 120.74065 112.14232 120.66752 111.86449 120.58954 C 111.58665 120.51156 111.31009 120.42902 111.03508 120.34201 C 110.76007 120.25499 110.48664 120.16322 110.21446 120.06761 C 109.94228 119.97199 109.67145 119.87218 109.40211 119.7684 C 109.13276 119.66462 108.86504 119.55694 108.59854 119.44542 C 108.33204 119.3339 108.06689 119.21853 107.80324 119.09971 C 107.53958 118.98088 107.27701 118.8585 107.01621 118.7328 C 106.75541 118.60711 106.49642 118.4784 106.23848 118.34626 C 105.98054 118.21413 105.72409 118.07875 105.46901 117.9406 C 105.21394 117.80246 104.96002 117.66109 104.70782 117.51737 C 104.45562 117.37366 104.20474 117.2275 103.95541 117.07864 C 103.70609 116.92978 103.45823 116.77849 103.21179 116.62492 C 102.96535 116.47135 102.7205 116.31562 102.47695 116.15777 C 102.2334 115.99992 101.99104 115.83991 101.75038 115.67821 C 101.50972 115.51652 101.27086 115.35291 101.03311 115.1878 C 100.5576 114.85759 100.08689 114.52071 99.620276 114.17856 C 99.153659 113.83641 98.690838 113.48883 98.231213 113.13728 C 98.191529 113.10693 98.152514 113.07571 98.112874 113.0453 C 97.791116 113.06146 97.469516 113.07579 97.147559 113.08767 C 96.819049 113.09979 96.490226 113.10947 96.161572 113.11713 C 95.832919 113.12478 95.50432 113.13047 95.175586 113.13366 C 94.846852 113.13685 94.517835 113.13752 94.189083 113.13625 C 93.860331 113.13497 93.531802 113.13164 93.203097 113.12591 C 92.874391 113.12018 92.545706 113.11233 92.21711 113.10214 C 91.888514 113.09195 91.560064 113.07959 91.231641 113.06493 C 90.903218 113.05028 90.574874 113.0334 90.246688 113.01429 C 89.918501 112.99518 89.590139 112.97378 89.262252 112.95021 C 88.934365 112.92664 88.606889 112.90072 88.279366 112.8727 C 87.951843 112.84467 87.62461 112.81422 87.297514 112.78175 C 86.970417 112.74927 86.643302 112.71481 86.316695 112.67788 C 85.990089 112.64095 85.663996 112.60144 85.337944 112.56005 C 85.011891 112.51867 84.686178 112.47515 84.360742 112.42931 C 84.035307 112.38348 83.709846 112.33542 83.385091 112.28514 C 83.060336 112.23485 82.736035 112.18226 82.412024 112.12752 C 82.088013 112.07279 81.764744 112.01617 81.441541 111.95699 C 81.118337 111.89781 80.795456 111.83613 80.473124 111.77251 C 80.150792 111.70888 79.828689 111.64318 79.507292 111.5751 C 79.185894 111.50703 78.86496 111.43678 78.54456 111.36426 C 78.22416 111.29174 77.904267 111.21695 77.584928 111.13999 C 77.26559 111.06302 76.947128 110.98368 76.628914 110.90227 C 76.310701 110.82087 75.993026 110.73749 75.676001 110.65164 C 75.358975 110.5658 75.042479 110.47786 74.726705 110.38758 C 74.410931 110.29729 74.095485 110.2048 73.781026 110.11007 C 73.466568 110.01535 73.153078 109.9183 72.839998 109.81914 C 72.526918 109.71997 72.214226 109.61836 71.902588 109.51476 C 71.59095 109.41116 71.280477 109.30551 70.970345 109.19747 C 70.660213 109.08943 70.3508 108.97921 70.042236 108.86674 C 69.877179 108.80658 69.712804 108.7442 69.54821 108.68277 L 69.54821 126.32252 L 133.41925 126.32252 L 133.41925 116.22805 z " />
    </g>
  </g>
  <metadata
     id="metadata24170">
    <rdf:RDF>
      <cc:Work
         rdf:about="">
        <dc:title>Material design by choudel</dc:title>
      </cc:Work>
    </rdf:RDF>
  </metadata>
</svg>
