<?xml version="1.0" encoding="UTF-8" standalone="no"?>
<!-- Created with Inkscape (http://www.inkscape.org/) -->

<svg
   width="210mm"
   height="297mm"
   viewBox="0 0 210 297"
   version="1.1"
   id="svg5"
   inkscape:version="1.2 (dc2aedaf03, 2022-05-15)"
   sodipodi:docname="shapes design.svg"
   xmlns:inkscape="http://www.inkscape.org/namespaces/inkscape"
   xmlns:sodipodi="http://sodipodi.sourceforge.net/DTD/sodipodi-0.dtd"
   xmlns:xlink="http://www.w3.org/1999/xlink"
   xmlns="http://www.w3.org/2000/svg"
   xmlns:svg="http://www.w3.org/2000/svg"
   xmlns:rdf="http://www.w3.org/1999/02/22-rdf-syntax-ns#"
   xmlns:cc="http://creativecommons.org/ns#"
   xmlns:dc="http://purl.org/dc/elements/1.1/">
  <title
     id="title17659">shapes design by choudel</title>
  <sodipodi:namedview
     id="namedview7"
     pagecolor="#ffffff"
     bordercolor="#999999"
     borderopacity="1"
     inkscape:showpageshadow="0"
     inkscape:pageopacity="0"
     inkscape:pagecheckerboard="0"
     inkscape:deskcolor="#d1d1d1"
     inkscape:document-units="mm"
     showgrid="false"
     inkscape:zoom="0.71713664"
     inkscape:cx="350.00303"
     inkscape:cy="679.08955"
     inkscape:window-width="1920"
     inkscape:window-height="1017"
     inkscape:window-x="-8"
     inkscape:window-y="-8"
     inkscape:window-maximized="1"
     inkscape:current-layer="layer1" />
  <defs
     id="defs2">
    <pattern
       inkscape:collect="always"
       xlink:href="#pattern15256"
       id="pattern17496"
       patternTransform="matrix(0.41458546,0.67735607,-2.8768058,1.7607901,174.89669,105.06783)" />
    <pattern
       inkscape:collect="always"
       xlink:href="#pattern15256"
       id="pattern16714"
       patternTransform="matrix(0.23688812,0.38703144,-1.6437651,1.0060899,57.059863,86.260053)" />
    <pattern
       inkscape:collect="always"
       xlink:href="#pattern15252"
       id="pattern15984"
       patternTransform="matrix(1.4652592,0.45452607,-1.9304222,6.2231171,49.735078,167.8197)" />
    <pattern
       inkscape:collect="always"
       xlink:href="#pattern15252"
       id="pattern15256"
       patternTransform="matrix(0.79416141,0,0,3.3728909,180.91783,-94.323068)" />
    <pattern
       inkscape:collect="always"
       xlink:href="#Strips1_1white"
       id="pattern15252"
       patternTransform="matrix(1.5341377,0,0,6.5156517,80.183618,84.394)" />
    <pattern
       inkscape:collect="always"
       patternUnits="userSpaceOnUse"
       width="2"
       height="1"
       patternTransform="translate(0,0) scale(10,10)"
       id="Strips1_1white"
       inkscape:stockid="Stripes 1:1 white"
       inkscape:isstock="true">
      <rect
         style="fill:white;stroke:none"
         x="0"
         y="-0.5"
         width="1"
         height="2"
         id="rect12024" />
    </pattern>
    <linearGradient
       inkscape:collect="always"
       id="linearGradient10255">
      <stop
         style="stop-color:#d42aff;stop-opacity:1;"
         offset="0"
         id="stop10251" />
      <stop
         style="stop-color:#d42aff;stop-opacity:0;"
         offset="1"
         id="stop10253" />
    </linearGradient>
    <linearGradient
       inkscape:collect="always"
       id="linearGradient10247">
      <stop
         style="stop-color:#ff0066;stop-opacity:1;"
         offset="0"
         id="stop10243" />
      <stop
         style="stop-color:#ff0066;stop-opacity:0;"
         offset="1"
         id="stop10245" />
    </linearGradient>
    <linearGradient
       inkscape:collect="always"
       id="linearGradient9449">
      <stop
         style="stop-color:#d42aff;stop-opacity:1;"
         offset="0"
         id="stop9445" />
      <stop
         style="stop-color:#d42aff;stop-opacity:0;"
         offset="1"
         id="stop9447" />
    </linearGradient>
    <linearGradient
       inkscape:collect="always"
       id="linearGradient9379">
      <stop
         style="stop-color:#ff5599;stop-opacity:1;"
         offset="0"
         id="stop9375" />
      <stop
         style="stop-color:#ff5599;stop-opacity:0;"
         offset="1"
         id="stop9377" />
    </linearGradient>
    <linearGradient
       inkscape:collect="always"
       id="linearGradient8531">
      <stop
         style="stop-color:#ff5599;stop-opacity:1;"
         offset="0"
         id="stop8527" />
      <stop
         style="stop-color:#ff5599;stop-opacity:0;"
         offset="1"
         id="stop8529" />
    </linearGradient>
    <linearGradient
       inkscape:collect="always"
       id="linearGradient8523">
      <stop
         style="stop-color:#ff5599;stop-opacity:1;"
         offset="0"
         id="stop8519" />
      <stop
         style="stop-color:#ff5599;stop-opacity:0;"
         offset="1"
         id="stop8521" />
    </linearGradient>
    <linearGradient
       inkscape:collect="always"
       id="linearGradient8517">
      <stop
         style="stop-color:#e9afe8;stop-opacity:0.80808081"
         offset="0.11470588"
         id="stop8509" />
      <stop
         style="stop-color:#e9afe8;stop-opacity:1;"
         offset="0.20785435"
         id="stop8511" />
      <stop
         style="stop-color:#afdde9;stop-opacity:1;"
         offset="0.5688749"
         id="stop8513" />
      <stop
         style="stop-color:#afdde9;stop-opacity:0;"
         offset="1"
         id="stop8515" />
    </linearGradient>
    <linearGradient
       inkscape:collect="always"
       id="linearGradient8505">
      <stop
         style="stop-color:#ff5599;stop-opacity:1;"
         offset="0"
         id="stop8501" />
      <stop
         style="stop-color:#ff5599;stop-opacity:0;"
         offset="1"
         id="stop8503" />
    </linearGradient>
    <linearGradient
       inkscape:collect="always"
       id="linearGradient8472">
      <stop
         style="stop-color:#e9afe8;stop-opacity:0.80808081"
         offset="0.11470588"
         id="stop8476" />
      <stop
         style="stop-color:#e9afe8;stop-opacity:1;"
         offset="0.34117645"
         id="stop8474" />
      <stop
         style="stop-color:#afdde9;stop-opacity:1;"
         offset="0.5688749"
         id="stop8468" />
      <stop
         style="stop-color:#afdde9;stop-opacity:0;"
         offset="1"
         id="stop8470" />
    </linearGradient>
    <linearGradient
       inkscape:collect="always"
       id="linearGradient7730">
      <stop
         style="stop-color:#afdde9;stop-opacity:1;"
         offset="0"
         id="stop7726" />
      <stop
         style="stop-color:#afdde9;stop-opacity:0;"
         offset="1"
         id="stop7728" />
    </linearGradient>
    <linearGradient
       inkscape:collect="always"
       id="linearGradient4400">
      <stop
         style="stop-color:#27b5f3;stop-opacity:1;"
         offset="0"
         id="stop4396" />
      <stop
         style="stop-color:#37abc8;stop-opacity:0;"
         offset="1"
         id="stop4398" />
    </linearGradient>
    <linearGradient
       inkscape:collect="always"
       id="linearGradient4278">
      <stop
         style="stop-color:#d4aa00;stop-opacity:1;"
         offset="0"
         id="stop4274" />
      <stop
         style="stop-color:#d4aa00;stop-opacity:0;"
         offset="1"
         id="stop4276" />
    </linearGradient>
    <linearGradient
       inkscape:collect="always"
       id="linearGradient3534">
      <stop
         style="stop-color:#0055d4;stop-opacity:0;"
         offset="0.15633424"
         id="stop3532" />
      <stop
         style="stop-color:#0055d4;stop-opacity:0.32941176;"
         offset="0.33153638"
         id="stop3544" />
      <stop
         style="stop-color:#0055d4;stop-opacity:0.52156863;"
         offset="0.52291107"
         id="stop3542" />
      <stop
         style="stop-color:#0055d4;stop-opacity:0.83921569;"
         offset="0.84097034"
         id="stop3540" />
      <stop
         style="stop-color:#0055d4;stop-opacity:1;"
         offset="1"
         id="stop3530" />
    </linearGradient>
    <linearGradient
       inkscape:collect="always"
       id="linearGradient1805">
      <stop
         style="stop-color:#ff2a7f;stop-opacity:1;"
         offset="0"
         id="stop1801" />
      <stop
         style="stop-color:#ff2a7f;stop-opacity:0.77254902;"
         offset="0.2264151"
         id="stop1933" />
      <stop
         style="stop-color:#ff2a7f;stop-opacity:0.74390244"
         offset="0.39587888"
         id="stop1935" />
      <stop
         style="stop-color:#ff2a7f;stop-opacity:0.24313725;"
         offset="0.60764122"
         id="stop1937" />
      <stop
         style="stop-color:#ff2a7f;stop-opacity:0.16470588;"
         offset="0.72719598"
         id="stop1939" />
      <stop
         style="stop-color:#ff2a7f;stop-opacity:0;"
         offset="1"
         id="stop1803" />
    </linearGradient>
    <linearGradient
       inkscape:collect="always"
       xlink:href="#linearGradient1805"
       id="linearGradient1807"
       x1="89.12204"
       y1="148.23987"
       x2="129.54939"
       y2="209.15244"
       gradientUnits="userSpaceOnUse"
       gradientTransform="rotate(-17.722947,17.475667,93.836323)" />
    <linearGradient
       inkscape:collect="always"
       xlink:href="#linearGradient3534"
       id="linearGradient3536"
       x1="13.650932"
       y1="158.27701"
       x2="88.915535"
       y2="158.27701"
       gradientUnits="userSpaceOnUse"
       gradientTransform="rotate(-25.579554,45.599593,175.78588)" />
    <linearGradient
       inkscape:collect="always"
       xlink:href="#linearGradient4278"
       id="linearGradient4280"
       x1="229.88696"
       y1="53.59341"
       x2="252.08614"
       y2="80.479919"
       gradientUnits="userSpaceOnUse"
       gradientTransform="matrix(1.0047363,0.52282323,-0.47875388,1.0972224,-23.1305,-22.443022)" />
    <linearGradient
       inkscape:collect="always"
       xlink:href="#linearGradient4400"
       id="linearGradient4402"
       x1="114.98109"
       y1="18.950912"
       x2="256.48837"
       y2="-3.6301475"
       gradientUnits="userSpaceOnUse"
       gradientTransform="rotate(32.085279)" />
    <linearGradient
       inkscape:collect="always"
       xlink:href="#linearGradient7730"
       id="linearGradient7732"
       x1="38.752335"
       y1="74.89566"
       x2="58.279961"
       y2="95.187584"
       gradientUnits="userSpaceOnUse"
       gradientTransform="rotate(-19.173032,57.186333,92.23603)" />
    <linearGradient
       inkscape:collect="always"
       xlink:href="#linearGradient7730"
       id="linearGradient7736"
       gradientUnits="userSpaceOnUse"
       x1="35.040108"
       y1="50.166119"
       x2="58.279961"
       y2="95.187584"
       gradientTransform="matrix(0.46192687,0.32557956,-0.30804787,0.48821617,165.80838,92.229064)" />
    <linearGradient
       inkscape:collect="always"
       xlink:href="#linearGradient8472"
       id="linearGradient8466"
       gradientUnits="userSpaceOnUse"
       gradientTransform="matrix(-0.85494988,0.12323894,-0.18651872,-0.86465881,140.43741,233.56474)"
       x1="38.752335"
       y1="74.89566"
       x2="58.279961"
       y2="95.187584" />
    <linearGradient
       inkscape:collect="always"
       xlink:href="#linearGradient8472"
       id="linearGradient8495"
       gradientUnits="userSpaceOnUse"
       gradientTransform="matrix(0.24067748,-0.28476778,0.32343707,0.2564123,92.913289,66.423175)"
       x1="38.752335"
       y1="74.89566"
       x2="58.279961"
       y2="95.187584" />
    <linearGradient
       inkscape:collect="always"
       xlink:href="#linearGradient8517"
       id="linearGradient8499"
       gradientUnits="userSpaceOnUse"
       gradientTransform="matrix(-0.31642783,-0.19720996,0.20721849,-0.35695841,179.02705,123.15619)"
       x1="38.752335"
       y1="74.89566"
       x2="61.621319"
       y2="98.50946" />
    <linearGradient
       inkscape:collect="always"
       xlink:href="#linearGradient8505"
       id="linearGradient8507"
       x1="217.61086"
       y1="53.309078"
       x2="222.62695"
       y2="34.785225"
       gradientUnits="userSpaceOnUse"
       gradientTransform="matrix(0.81737321,0.57610853,-0.53362245,0.84572281,0,0)" />
    <linearGradient
       inkscape:collect="always"
       xlink:href="#linearGradient8523"
       id="linearGradient8525"
       x1="-148.70863"
       y1="20.319592"
       x2="-157.22037"
       y2="19.364986"
       gradientUnits="userSpaceOnUse"
       gradientTransform="matrix(-0.84866955,-0.52892343,0.50204912,-0.86483911,43.535404,14.757764)" />
    <linearGradient
       inkscape:collect="always"
       xlink:href="#linearGradient8531"
       id="linearGradient8533"
       x1="49.394733"
       y1="196.13287"
       x2="43.759487"
       y2="195.26672"
       gradientUnits="userSpaceOnUse"
       gradientTransform="matrix(0.64550471,-0.76375629,0.78362358,0.62123593,-43.535404,-13.650931)" />
    <linearGradient
       inkscape:collect="always"
       xlink:href="#linearGradient9379"
       id="linearGradient9381"
       x1="51.283226"
       y1="113.72215"
       x2="85.595024"
       y2="113.72215"
       gradientUnits="userSpaceOnUse"
       gradientTransform="translate(10.330435,-4.0583851)" />
    <linearGradient
       inkscape:collect="always"
       xlink:href="#linearGradient9379"
       id="linearGradient9385"
       gradientUnits="userSpaceOnUse"
       gradientTransform="matrix(0.06570231,0.57691591,-0.59142958,0.0673552,101.50116,90.006701)"
       x1="51.283226"
       y1="113.72215"
       x2="85.595024"
       y2="113.72215" />
    <linearGradient
       inkscape:collect="always"
       xlink:href="#linearGradient9449"
       id="linearGradient9451"
       x1="137.61615"
       y1="88.177635"
       x2="126.54783"
       y2="103.67329"
       gradientUnits="userSpaceOnUse"
       gradientTransform="translate(33.573913,5.1652174)" />
    <linearGradient
       inkscape:collect="always"
       xlink:href="#linearGradient10247"
       id="linearGradient10249"
       x1="151.99263"
       y1="-0.081998944"
       x2="163.36909"
       y2="-82.730919"
       gradientUnits="userSpaceOnUse"
       gradientTransform="matrix(0.67339051,0.73928697,-0.76364501,0.64563635,0,0)" />
    <linearGradient
       inkscape:collect="always"
       xlink:href="#linearGradient10255"
       id="linearGradient10257"
       x1="24.350309"
       y1="98.13913"
       x2="29.146584"
       y2="53.496895"
       gradientUnits="userSpaceOnUse"
       gradientTransform="translate(-3.3204969,-0.7378882)" />
  </defs>
  <g
     inkscape:label="Layer 1"
     inkscape:groupmode="layer"
     id="layer1">
    <path
       style="opacity:0.929104;fill:#5500d4;stroke:#ffffff;stroke-width:0.264583"
       d="M 18.472334,57.51894 H 193.09733 c 0,0 0,0 0,0 v 128.58749 c 0,0 0,0 0,0 H 18.472334 c 0,0 0,0 0,0 V 57.51894 c 0,0 0,0 0,0 z"
       id="rect184" />
    <path
       id="rect10233"
       style="opacity:0.808081;fill:url(#linearGradient10249);stroke-width:6.61457"
       d="m 178.02287,48.964851 8.79262,9.653048 -96.615978,81.685581 -8.792622,-9.65305 z" />
    <path
       id="rect290"
       style="opacity:0.929104;fill:url(#linearGradient1807);stroke-width:0.264583"
       d="m 118.24166,120.02623 c 12.00753,-3.83739 24.69695,2.53159 28.4516,14.28022 l 10.44712,32.68996 c 3.75465,11.74863 -2.88936,24.29622 -14.89689,28.13361 -12.00753,3.83739 -24.69694,-2.53158 -28.4516,-14.28021 l -10.44712,-32.68996 c -3.754652,-11.74863 2.88936,-24.29623 14.89689,-28.13362 z" />
    <path
       id="rect3445"
       style="opacity:0.698171;fill:url(#linearGradient3536);stroke-width:0.264583"
       d="M 11.72238,162.77396 66.9643,136.3307 c 3.502872,-1.67676 8.027987,0.53547 10.145997,4.96015 2.118009,4.42467 1.00312,9.33666 -2.499752,11.01342 l -55.24192,26.44326 c -3.502872,1.67676 -8.027987,-0.53547 -10.1459963,-4.96015 -2.1180091,-4.42467 -1.0031208,-9.33666 2.4997513,-11.01342 z" />
    <path
       style="opacity:0.698171;fill:url(#linearGradient4280);stroke-width:0.307728"
       d="m 189.98502,158.58484 c 6.36626,3.31274 7.96813,10.11944 4.23976,18.66424 l -6.853,15.70591 c -3.72838,8.5448 -11.85511,12.7569 -18.22137,9.44416 -6.36626,-3.31273 -8.48989,-12.8587 -4.76151,-21.4035 l 6.853,-15.70591 c 3.72837,-8.5448 12.37687,-10.01763 18.74312,-6.7049 z"
       id="rect4272" />
    <path
       id="rect4334"
       style="opacity:0.868902;fill:url(#linearGradient4402);stroke-width:0.264583"
       d="M 96.719595,65.889564 210.51717,137.23391 c 5.62419,3.52604 7.70463,10.26833 4.66465,15.11724 -3.03998,4.84891 -10.01511,5.91389 -15.63931,2.38786 L 85.744935,83.394659 C 80.120741,79.868622 78.040306,73.126334 81.080287,68.277423 84.120268,63.428511 91.0954,62.363527 96.719595,65.889564 Z" />
    <path
       id="path5908"
       style="fill:none;stroke:url(#linearGradient7732);stroke-width:6.61458"
       d="M 78.443562,84.844695 A 23.981367,22.50559 70.826968 0 1 65.062342,114.88717 23.981367,22.50559 70.826968 0 1 35.929104,99.627362 23.981367,22.50559 70.826968 0 1 49.310321,69.58488 23.981367,22.50559 70.826968 0 1 78.443562,84.844695 Z" />
    <path
       id="ellipse7734"
       style="fill:url(#linearGradient8507);stroke:url(#linearGradient7736);stroke-width:5.71688"
       d="m 174.2071,163.20624 a 12.620213,13.933741 18.136071 0 1 -17.78334,4.38074 12.620213,13.933741 18.136071 0 1 -3.00853,-19.03546 12.620213,13.933741 18.136071 0 1 17.78335,-4.38073 12.620213,13.933741 18.136071 0 1 3.00852,19.03545 z" />
    <path
       id="ellipse8464"
       style="opacity:0.424242;fill:none;stroke:url(#linearGradient8466);stroke-width:5.71686"
       d="M 55.101084,163.63321 A 21.445719,19.182609 60.527869 0 1 69.869262,140.12394 21.445719,19.182609 60.527869 0 1 93.583388,158.08608 21.445719,19.182609 60.527869 0 1 78.81521,181.59534 21.445719,19.182609 60.527869 0 1 55.101084,163.63321 Z" />
    <path
       id="ellipse8497"
       style="opacity:0.424242;fill:url(#linearGradient8525);stroke:url(#linearGradient8499);stroke-width:5.71685"
       d="m 172.92331,74.515705 a 8.3766954,9.9105177 25.608535 0 1 12.09079,-4.122021 8.3766954,9.9105177 25.608535 0 1 2.15201,12.998679 8.3766954,9.9105177 25.608535 0 1 -12.09078,4.122022 8.3766954,9.9105177 25.608535 0 1 -2.15202,-12.99868 z" />
    <path
       id="path9313"
       style="opacity:0.808081;fill:url(#linearGradient9381);stroke-width:6.61459"
       d="M 95.925461,109.66376 A 17.155899,15.951979 0 0 1 78.769562,125.61574 17.155899,15.951979 0 0 1 61.613663,109.66376 17.155899,15.951979 0 0 1 78.769562,93.711779 17.155899,15.951979 0 0 1 95.925461,109.66376 Z" />
    <path
       id="ellipse9383"
       style="opacity:0.808081;fill:url(#linearGradient9385);stroke-width:6.61456"
       d="m 39.866309,147.04762 a 9.9614887,9.4954567 83.502839 0 1 -10.561654,-8.82307 9.9614887,9.4954567 83.502839 0 1 8.30729,-10.97196 9.9614887,9.4954567 83.502839 0 1 10.561654,8.82307 9.9614887,9.4954567 83.502839 0 1 -8.30729,10.97196 z" />
    <path
       id="path9391"
       style="opacity:0.808081;fill:url(#linearGradient9451);stroke-width:6.61458"
       d="M 177.46212,106.2559 A 16.23354,16.23354 0 0 1 161.22858,122.48944 16.23354,16.23354 0 0 1 144.99504,106.2559 16.23354,16.23354 0 0 1 161.22858,90.022358 16.23354,16.23354 0 0 1 177.46212,106.2559 Z" />
    <path
       id="rect10231"
       style="opacity:0.808081;fill:url(#linearGradient10257);stroke-width:6.61458"
       d="m 22.874535,49.807449 h 5.165217 v 49.807453 h -5.165217 z" />
    <path
       id="ellipse8493"
       style="opacity:0.424242;fill:url(#linearGradient8533);stroke:url(#linearGradient8495);stroke-width:5.71685"
       d="m 141.9259,67.379951 a 9.9105177,8.3766954 33.879319 0 1 2.33988,12.557985 9.9105177,8.3766954 33.879319 0 1 -13.17306,0.25975 9.9105177,8.3766954 33.879319 0 1 -2.33987,-12.557985 9.9105177,8.3766954 33.879319 0 1 13.17305,-0.25975 z" />
    <path
       id="path11037"
       style="opacity:0.808081;fill:url(#pattern15984);stroke-width:6.61458"
       d="M 70.336571,166.22941 A 19.369566,18.447205 17.233985 0 1 46.371207,178.10968 19.369566,18.447205 17.233985 0 1 33.336721,154.75199 19.369566,18.447205 17.233985 0 1 57.302084,142.87172 19.369566,18.447205 17.233985 0 1 70.336571,166.22941 Z" />
    <path
       id="ellipse15254"
       style="opacity:0.808081;fill:url(#pattern17496);stroke-width:6.6146"
       d="m 183.45231,111.48751 a 10.026846,9.5493765 58.530688 0 1 -13.37929,-3.56693 10.026846,9.5493765 58.530688 0 1 2.91042,-13.53727 10.026846,9.5493765 58.530688 0 1 13.37929,3.566925 10.026846,9.5493765 58.530688 0 1 -2.91042,13.537275 z" />
    <path
       id="ellipse16712"
       style="opacity:0.808081;fill:url(#pattern16714);stroke-width:6.61459"
       d="m 61.94842,89.928169 a 5.7291946,5.4563756 58.530688 0 1 -7.644728,-2.038084 5.7291946,5.4563756 58.530688 0 1 1.662971,-7.735003 5.7291946,5.4563756 58.530688 0 1 7.644732,2.03809 5.7291946,5.4563756 58.530688 0 1 -1.662975,7.734997 z" />
  </g>
  <metadata
     id="metadata17657">
    <rdf:RDF>
      <cc:Work
         rdf:about="">
        <dc:title>shapes design by choudel</dc:title>
      </cc:Work>
    </rdf:RDF>
  </metadata>
</svg>
